<?xml version="1.0" encoding="utf-8"?>
<!-- Generator: Adobe Illustrator 19.0.0, SVG Export Plug-In . SVG Version: 6.00 Build 0)  -->
<svg version="1.1" id="Layer_1" xmlns="http://www.w3.org/2000/svg" xmlns:xlink="http://www.w3.org/1999/xlink" x="0px" y="0px"
	 viewBox="-381.5 215.5 102 102" style="enable-background:new -381.5 215.5 102 102;" xml:space="preserve">
<style type="text/css">
	.st0{fill:none;stroke:#CACACA;stroke-width:2;stroke-linecap:round;stroke-linejoin:round;}
	.st1{fill:none;stroke:#0F9C47;stroke-width:2;stroke-linecap:round;stroke-linejoin:round;}
	.st2{fill:#CFE8FD;}
</style>
<title>Group</title>
<desc>Created with Sketch.</desc>
<g id="Page-1">
	<g id="Group" transform="translate(0.000000, 5.000000)">
		<g id="Group-10" transform="translate(113.000000, 79.279221)">
			<path id="Shape-Copy-8" class="st0" d="M-410.9,142.1h5.8"/>
			<path id="Shape-Copy-7" class="st0" d="M-408,139.2v5.7"/>
		</g>
	</g>
</g>
<path class="st1" d="M-363.6,235.6c17.2-17.2,45-17.2,62.2,0s17.2,45,0,62.2c-5.1,5.1-11.4,8.9-18.3,11"/>
<path class="st1" d="M-328.3,277.2l-14.3,0l10.4-10.7c0,0,6.8-6,1.9-11.3c-2.2-2.9-6.3-3.4-9.1-1.2c-1.3,1-2.1,2.4-2.4,3.9"/>
<polyline class="st1" points="-312,277.3 -312,253.3 -324,271.1 -307.7,271.1 "/>
<path id="Shape-Copy-8_1_" class="st0" d="M-321.6,237.3h5.8"/>
<path id="Shape-Copy-7_1_" class="st0" d="M-318.8,234.5v5.7"/>
<path id="Shape-Copy-8_2_" class="st0" d="M-321.6,237.3h5.8"/>
<path id="Shape-Copy-7_2_" class="st0" d="M-318.8,234.5v5.7"/>
<path id="Shape-Copy-8_4_" class="st0" d="M-321.6,237.3h5.8"/>
<path id="Shape-Copy-7_4_" class="st0" d="M-318.8,234.5v5.7"/>
<path id="Shape-Copy-8_3_" class="st0" d="M-321.6,237.3h5.8"/>
<path id="Shape-Copy-7_3_" class="st0" d="M-318.8,234.5v5.7"/>
<path id="Shape-Copy-8_8_" class="st0" d="M-290.2,299.7h5.8"/>
<path id="Shape-Copy-7_8_" class="st0" d="M-287.3,296.8v5.7"/>
<path id="Shape-Copy-8_7_" class="st0" d="M-290.2,299.7h5.8"/>
<path id="Shape-Copy-7_7_" class="st0" d="M-287.3,296.8v5.7"/>
<path id="Shape-Copy-8_6_" class="st0" d="M-290.2,299.7h5.8"/>
<path id="Shape-Copy-7_6_" class="st0" d="M-287.3,296.8v5.7"/>
<path id="Shape-Copy-8_5_" class="st0" d="M-290.2,299.7h5.8"/>
<path id="Shape-Copy-7_5_" class="st0" d="M-287.3,296.8v5.7"/>
<path class="st2" d="M-330.5,308.3c-1.1,0.8-6.1,4-9.1,5.8c-1.1,0.6-2.3,0.8-3.5,0.5l-0.1,0c-0.6-0.2-1.2-0.5-1.8-0.9
	c-16.7-13.7-27.8-33.1-31.3-54.4c-0.1-0.7-0.1-1.3,0.1-2l0,0c0.3-1.2,1.1-2.2,2.2-2.8c3.1-1.7,9.7-5,9.7-5s1.6-0.9,2.1,0.6
	c1.2,5.8,2.9,11.6,5.1,17.1c-1.8,2.3-3.6,4.5-5.6,6.6c3.1,7.5,7.2,14.6,12.1,21c2.8-0.6,5.6-1.1,8.5-1.5c3.7,4.7,7.8,9,12.2,12.9
	C-330,306.2-328.9,307.3-330.5,308.3z"/>
<path class="st1" d="M-328.1,304.5c-1.1,0.8-6.3,4.1-9.4,6c-1.1,0.7-2.4,0.8-3.6,0.5l-0.1,0c-0.7-0.2-1.3-0.5-1.8-0.9
	c-17.2-14.1-28.6-34.1-32.2-56c-0.1-0.7-0.1-1.4,0.1-2l0,0c0.3-1.2,1.1-2.3,2.3-2.9c3.2-1.8,10-5.2,10-5.2s1.7-1,2.1,0.6
	c1.2,6,3,11.9,5.2,17.6c-1.8,2.4-3.7,4.6-5.7,6.8c3.2,7.7,7.4,15,12.5,21.6c2.9-0.7,5.8-1.2,8.8-1.5c3.8,4.8,8,9.2,12.6,13.3
	C-327.5,302.3-326.5,303.4-328.1,304.5z"/>
</svg>
