<?xml version="1.0" encoding="utf-8"?>
<!-- Generator: Adobe Illustrator 19.0.0, SVG Export Plug-In . SVG Version: 6.00 Build 0)  -->
<svg version="1.1" id="Layer_1" xmlns="http://www.w3.org/2000/svg" xmlns:xlink="http://www.w3.org/1999/xlink" x="0px" y="0px"
	 viewBox="-381.5 215.5 102 102" style="enable-background:new -381.5 215.5 102 102;" xml:space="preserve">
<style type="text/css">
	.st0{fill:none;stroke:#CACACA;stroke-width:2;stroke-linecap:round;stroke-linejoin:round;}
	.st1{fill:none;stroke:#0F9C47;stroke-width:2;stroke-linecap:round;stroke-linejoin:round;}
	.st2{fill:none;stroke:#CFE8FD;stroke-width:2;stroke-linecap:round;stroke-linejoin:round;stroke-dasharray:0.5,2.5;}
	.st3{fill:#CFE8FD;}
	.st4{fill:none;stroke:#0F9C47;stroke-width:2;stroke-linecap:round;stroke-linejoin:round;stroke-dasharray:0.5,2.5;}
</style>
<title>Group</title>
<desc>Created with Sketch.</desc>
<path id="Shape-Copy-8_4_" class="st0" d="M-362.6,253.5h5.8"/>
<path id="Shape-Copy-7_4_" class="st0" d="M-359.8,250.6v5.7"/>
<path id="Shape-Copy-8_3_" class="st0" d="M-311.8,256.4h5.8"/>
<path id="Shape-Copy-7_3_" class="st0" d="M-308.9,253.5v5.7"/>
<path id="Shape-Copy-8_8_" class="st0" d="M-296.9,271.1h5.8"/>
<path id="Shape-Copy-7_8_" class="st0" d="M-294,268.3v5.7"/>
<path id="Shape-Copy-8_7_" class="st0" d="M-296.9,271.1h5.8"/>
<path id="Shape-Copy-7_7_" class="st0" d="M-294,268.3v5.7"/>
<path id="Shape-Copy-8_6_" class="st0" d="M-296.9,271.1h5.8"/>
<path id="Shape-Copy-7_6_" class="st0" d="M-294,268.3v5.7"/>
<path id="Shape-Copy-8_5_" class="st0" d="M-296.9,271.1h5.8"/>
<path id="Shape-Copy-7_5_" class="st0" d="M-294,268.3v5.7"/>
<polygon class="st1" points="-306.9,245.5 -287.3,245.5 -287.3,223 -365.8,223 -365.8,245.5 -321,245.5 -321,256.4 "/>
<path class="st1" d="M-307.5,308.9h14.9c0.8,0,1.4-0.7,1.4-1.5v-5.1c0-0.6-0.4-1.1-0.9-1.4c-6.5-2.5-13.8-5.7-14.4-7.6v-2
	c1.5-1.6,2.5-3.5,3.1-5.6c1.5-1.1,1.8-3.1,0.8-4.6c0-0.1-0.1-0.1-0.1-0.2v-4.6c0-4.7-2.6-8-8.7-8c-4.1-0.6-8,2.3-8.6,6.4
	c-0.1,0.5-0.1,1.1-0.1,1.6v4.6c-1.2,1.4-1,3.5,0.5,4.7c0.1,0,0.1,0.1,0.2,0.1c0.5,2.1,1.6,4,3.1,5.6"/>
<line class="st2" x1="-351.2" y1="234.8" x2="-302.5" y2="234.8"/>
<path class="st3" d="M-318.9,300.6c-8.1-3.2-17.1-7.2-17.8-9.7v-2.6c1.8-2,3.1-4.4,3.8-7.1c1.9-1.4,2.3-4.1,0.9-6
	c0,0-0.1-0.1-0.1-0.1v-5.8c0-6-3.3-10.1-10.7-10.1c-7.3,0-10.7,4.1-10.7,10.1v5.8c-1.5,1.8-1.2,4.5,0.7,6c0,0,0.1,0.1,0.1,0.1
	c0.7,2.6,2,5.1,3.8,7.1v2.6c-0.8,2.5-9.7,6.4-17.8,9.7c-0.7,0.3-1.2,1-1.1,1.7v6.5c0,1,0.8,1.8,1.8,1.8h46.7c1,0,1.8-0.8,1.8-1.8
	v-6.5C-317.7,301.6-318.2,300.9-318.9,300.6z"/>
<line class="st4" x1="-350.8" y1="234.3" x2="-302.2" y2="234.3"/>
<path class="st1" d="M-315.2,298.5c-8.3-3.3-17.6-7.4-18.4-9.9v-2.7c1.9-2.1,3.2-4.6,3.9-7.3c2-1.4,2.4-4.2,0.9-6.1
	c0,0-0.1-0.1-0.1-0.1v-6c0-6.2-3.4-10.4-11.1-10.4c-7.5,0-11.1,4.2-11.1,10.4v6c-1.5,1.9-1.2,4.7,0.7,6.2c0,0,0.1,0.1,0.1,0.1
	c0.7,2.7,2,5.2,3.9,7.3v2.7c-0.8,2.5-10,6.6-18.4,9.9c-0.7,0.3-1.2,1-1.2,1.8v6.7c0,1,0.8,1.9,1.8,1.9h48.1c1,0,1.9-0.9,1.8-1.9
	v-6.7C-314,299.5-314.4,298.8-315.2,298.5z"/>
</svg>
