<?xml version="1.0" encoding="utf-8"?>
<!-- Generator: Adobe Illustrator 19.0.0, SVG Export Plug-In . SVG Version: 6.00 Build 0)  -->
<svg version="1.1" id="Capa_1" xmlns="http://www.w3.org/2000/svg" xmlns:xlink="http://www.w3.org/1999/xlink" x="0px" y="0px"
	 viewBox="-158 90 373 373" style="enable-background:new -158 90 373 373;" xml:space="preserve">
<style type="text/css">
	.st0{fill:#0F9C47;}
</style>
<g>
	<path class="st0" d="M-10.2,446h67.1c5.8,0,10.4-4.7,10.4-10.4v-151h34.9c5.3,0,9.8-4,10.4-9.4l5.9-57c0.3-2.9-0.7-5.9-2.6-8.1
		c-2-2.2-4.8-3.4-7.7-3.4H67.3v-23.1c0-4.8,1.5-5.1,3.8-5.1h36.1c5.8,0,10.4-4.7,10.4-10.4v-55.4c0-5.7-4.6-10.4-10.4-10.4L57.5,102
		c-34.9,0-53.5,15.3-62.9,28.2c-13.2,18-15.2,39-15.2,50v26.5h-21.5c-5.8,0-10.4,4.7-10.4,10.4v57c0,5.8,4.7,10.4,10.4,10.4h21.5
		v151C-20.6,441.3-15.9,446-10.2,446z M-31.7,263.7v-36.2h21.5c5.8,0,10.4-4.7,10.4-10.4v-36.9c0-6.8,1.1-23.9,11.1-37.6
		c9.6-13.1,25.1-19.7,46.1-19.7l39.3,0.2v34.6H71.2c-12.3,0-24.7,8-24.7,26v33.5c0,5.8,4.7,10.4,10.4,10.4h39.6l-3.7,36.2H56.9
		c-5.8,0-10.4,4.7-10.4,10.4v151H0.3v-151c0-5.8-4.7-10.4-10.4-10.4H-31.7L-31.7,263.7z"/>
</g>
</svg>
