<?xml version="1.0" encoding="utf-8"?>
<!-- Generator: Adobe Illustrator 19.0.0, SVG Export Plug-In . SVG Version: 6.00 Build 0)  -->
<svg version="1.1" id="Layer_1" xmlns="http://www.w3.org/2000/svg" xmlns:xlink="http://www.w3.org/1999/xlink" x="0px" y="0px"
	 viewBox="-343 138 272 285" style="enable-background:new -343 138 272 285;" xml:space="preserve">
<style type="text/css">
	.st0{filter:url(#filter-4);}
	.st1{fill:#FFFFFF;}
	.st2{fill:none;stroke:#CACACA;stroke-width:2;stroke-linecap:round;stroke-linejoin:round;}
	.st3{fill:#CFE8FD;}
	.st4{fill:none;stroke:#383838;stroke-width:2;stroke-linecap:round;stroke-linejoin:round;stroke-miterlimit:10;}
	.st5{fill:none;stroke:#383838;stroke-width:2;stroke-linejoin:round;stroke-miterlimit:10;}
	.st6{fill:none;stroke:#0F9C47;stroke-width:2;stroke-miterlimit:10;}
	.st7{fill:none;stroke:#0F9C47;stroke-width:2;stroke-linecap:round;stroke-miterlimit:10;}
</style>
<filter  width="126.7%" height="126.7%" x="-13.3%" y="-10.0%" filterUnits="objectBoundingBox" id="filter-4">
	<feOffset  in="SourceAlpha" dy="6" result="shadowOffsetOuter1" dx="0"></feOffset>
	<feGaussianBlur  in="shadowOffsetOuter1" result="shadowBlurOuter1" stdDeviation="7"></feGaussianBlur>
	
		<feColorMatrix  type="matrix" in="shadowBlurOuter1" values="0 0 0 0 0.652051446   0 0 0 0 0.652051446   0 0 0 0 0.652051446  0 0 0 0.5 0">
		</feColorMatrix>
</filter>
<title>Group</title>
<desc>Created with Sketch.</desc>
<g id="Page-1">
	<g id="Group" transform="translate(13.000000, -3.000000)">
		
			<g id="Rectangle-13-Copy-3" transform="translate(127.279221, 148.000000) rotate(45.000000) translate(-127.279221, -148.000000) ">
			<g class="st0">
				<path id="path-3_2_" d="M-92.3,398.1H56.9c5.3,0,7.3,0.6,9.2,1.6c2,1,3.5,2.6,4.5,4.5c1,2,1.6,3.9,1.6,9.2v149.2
					c0,5.3-0.6,7.3-1.6,9.2s-2.6,3.5-4.5,4.5c-2,1-3.9,1.6-9.2,1.6H-92.3c-5.3,0-7.3-0.6-9.2-1.6c-2-1-3.5-2.6-4.5-4.5
					c-1-2-1.6-3.9-1.6-9.2V413.5c0-5.3,0.6-7.3,1.6-9.2c1-2,2.6-3.5,4.5-4.5C-99.6,398.7-97.6,398.1-92.3,398.1z"/>
			</g>
			<g>
				<path id="path-3_1_" class="st1" d="M-92.3,398.1H56.9c5.3,0,7.3,0.6,9.2,1.6c2,1,3.5,2.6,4.5,4.5c1,2,1.6,3.9,1.6,9.2v149.2
					c0,5.3-0.6,7.3-1.6,9.2s-2.6,3.5-4.5,4.5c-2,1-3.9,1.6-9.2,1.6H-92.3c-5.3,0-7.3-0.6-9.2-1.6c-2-1-3.5-2.6-4.5-4.5
					c-1-2-1.6-3.9-1.6-9.2V413.5c0-5.3,0.6-7.3,1.6-9.2c1-2,2.6-3.5,4.5-4.5C-99.6,398.7-97.6,398.1-92.3,398.1z"/>
			</g>
		</g>
		<g id="Group-3" transform="translate(86.279221, 95.000000)">
			<path id="Shape" class="st2" d="M-357.5,166.8h5.8"/>
			<path id="Shape_1_" class="st2" d="M-354.6,164v5.7"/>
			<path id="Shape_2_" class="st2" d="M-271.9,131.3h5.8"/>
			<path id="Shape_3_" class="st2" d="M-269.1,128.5v5.7"/>
			<path id="Shape_4_" class="st2" d="M-308.5,140.9h5.8"/>
			<path id="Shape_5_" class="st2" d="M-305.6,138v5.7"/>
		</g>
	</g>
</g>
<path class="st3" d="M-216.6,270.1c-5.9,3.4-16.2-3.9-19-13.6c-3.7-12.5-0.6-21.3-0.6-21.3s9.8,2.9,17.8,11.6
	C-211.7,254.3-211.4,267.1-216.6,270.1"/>
<path class="st3" d="M-223.8,287.5c0.6,5.4-7.9,10.5-15.8,9.5c-10.2-1.2-15.7-6.3-15.7-6.3s5.2-6.2,14-9.3
	C-233.8,278.9-224.4,282.8-223.8,287.5z"/>
<g>
	<polyline class="st4" points="-180.2,335.7 -183.5,366.7 -222.1,366.7 -225.5,335 -232.7,335 -232.7,322.4 -173.2,322.4 
		-173.2,335 -208,335 	"/>
	<path class="st5" d="M-214.9,267.7c3.9,7.9,8.8,22.5,10.1,45.7"/>
	<path class="st4" d="M-223.5,283.3c0,0,12.6-0.2,15.5,5.6"/>
	<path class="st6" d="M-215,267.8c-5.9,3.4-16.2-3.9-19-13.6c-3.7-12.5-0.6-21.3-0.6-21.3s9.8,2.9,17.8,11.6
		C-210.1,251.9-209.8,264.7-215,267.8z"/>
	<path class="st6" d="M-223.8,283.9c0.6,5.4-7.9,10.5-15.8,9.5c-10.2-1.2-15.7-6.3-15.7-6.3s5.2-6.2,14-9.3
		C-233.8,275.3-224.4,279.1-223.8,283.9z"/>
	<path class="st7" d="M-157.1,288.8c-15,12.5-28.3,4.9-33.9-5.3c-5.6-10.2-4.2-25.6,12.2-31.8c12.4-4.7,42.9,0.2,42.9,0.2
		S-146.2,279.8-157.1,288.8z"/>
	<line class="st4" x1="-179.4" y1="277.3" x2="-168.3" y2="282.1"/>
	<line class="st4" x1="-169.8" y1="271" x2="-169.2" y2="261.7"/>
	<path class="st4" d="M-205.8,297.7c3.8-7.1,13.5-13.5,13.5-13.5l37.4-21.5"/>
</g>
</svg>
