<?xml version="1.0" encoding="utf-8"?>
<!-- Generator: Adobe Illustrator 19.0.0, SVG Export Plug-In . SVG Version: 6.00 Build 0)  -->
<svg version="1.1" id="Layer_1" xmlns="http://www.w3.org/2000/svg" xmlns:xlink="http://www.w3.org/1999/xlink" x="0px" y="0px"
	 viewBox="-146 10.6 665.1 541.4" style="enable-background:new -146 10.6 665.1 541.4;" xml:space="preserve">
<style type="text/css">
	.st0{opacity:0.178;fill:#C4CFCF;enable-background:new    ;}
	.st1{fill:#F6F6F6;}
	.st2{fill:#F2F0F0;}
	.st3{fill:url(#SVGID_1_);}
	.st4{fill:#3A5971;}
	.st5{fill:#304D63;}
	.st6{fill:#254054;}
	.st7{fill:#9D9A91;}
	.st8{fill:#716F67;}
	.st9{fill:#504F4D;}
	.st10{fill:#FFFFFF;}
	.st11{fill:#E0E0E0;}
	.st12{fill:#EDB79F;}
	.st13{opacity:0.5;fill:#D5987C;enable-background:new    ;}
	.st14{fill:#0F9C47;}
	.st15{fill:#0B8738;}
	.st16{fill:#4F3737;}
	.st17{fill:#685353;}
	.st18{fill:#3F2727;}
	.st19{fill:#C6C6C6;}
	.st20{fill:#DFDEDE;}
	.st21{fill:#D5987C;}
	.st22{fill:#868686;}
	.st23{fill:#D9D9D9;}
	.st24{fill:#9DA0A3;}
	.st25{fill:#2F2F2F;}
	.st26{fill:#DCDCDC;}
	.st27{fill:#2C2A2B;}
	.st28{fill:#EAE7E7;}
	.st29{fill:#D2D1D6;}
	.st30{fill:#D8D8D8;}
	.st31{fill:#D5E6FD;}
	.st32{fill:#C0D5F2;}
	.st33{fill:#A4BCDC;}
	.st34{fill:none;stroke:#FFFFFF;stroke-width:2.34;stroke-linecap:round;}
	.st35{fill:#C0C0C0;}
	.st36{fill:none;stroke:#979797;stroke-width:1.178;stroke-linecap:round;}
	.st37{fill:#151D27;}
	.st38{fill:#07090D;}
	.st39{fill:#191E28;}
	.st40{fill:#15191E;}
	.st41{fill:#061D2C;}
	.st42{fill:#F9C5B4;}
	.st43{fill:#FFDFD4;}
	.st44{fill:#4B4B4B;}
	.st45{fill:#EFAC96;}
	.st46{opacity:0.771;}
	.st47{opacity:0.375;fill:none;stroke:url(#SVGID_2_);stroke-width:0.5;enable-background:new    ;}
	.st48{fill:none;stroke:#153A65;stroke-width:0.844;}
	.st49{fill:#2A150F;}
	.st50{fill:#533126;}
	.st51{fill:#0A1420;}
	.st52{fill:#F3B7A3;}
	.st53{fill:#DB967E;}
	.st54{fill:#0E2A3C;}
	.st55{fill:#E69F87;}
	.st56{opacity:0.2;fill:#8EB1DB;enable-background:new    ;}
	.st57{opacity:0.5;fill:#FFDFD4;enable-background:new    ;}
	.st58{fill:#E8E8E8;}
	.st59{fill:#ADACAC;}
	.st60{fill:#ECECEC;}
	.st61{fill:#041724;}
	.st62{opacity:0.5;fill:#0C2D42;enable-background:new    ;}
	.st63{opacity:0.5;fill:#B1B1B1;enable-background:new    ;}
	.st64{fill:#1B3549;}
	.st65{fill:#3C2016;}
</style>
<g>
	<path class="st0" d="M279.2,539.2c-112,0,33.5-19.8-79.9-19.8c-32.3,0-37-0.1-39.9-2c-4-2.6,4-13.5,34.6-13.5c13.5,0,40-5,50.5-6.1
		c25.3-2.7,30.6,0,43.1,0c31.5,0,192.4,1,192.4,6.1s-25,7.9,15,7.9c38.7,0,7.7,13.5-27.7,13.5c-39.2,0-7.7,9.5-82.9,9.5
		C299,534.9,391.2,539.2,279.2,539.2L279.2,539.2z M80.4,527.4c-178.5,0-129.9-14.8-161.1-14.8s-88.9-9.5-5-9.5s5.2-9.9,50.4-14.8
		c28.9-3.2,74.1-1.8,138.4,0c36.2,1,68.8,2.5,79.5,4.2c29.9,4.8-45.8,5.8,41.4,10.6c9.4,0.5,42,6.9,31.9,9.5
		c-14.7,3.9-47.1,8.3-89,8.3C116.8,520.9,136.4,527.4,80.4,527.4L80.4,527.4z"/>
	<path class="st1" d="M21.1,66.3v190c0,3.9,3.1,7,7,7h90.7c3.9,0,7-3.1,7-7v-190c0-3.9-3.1-7-7-7l0,0H28.1
		C24.2,59.3,21.1,62.4,21.1,66.3L21.1,66.3z"/>
	<path class="st2" d="M28.3,275.7H118c3.9,0,7,3.1,7,7v100.9c0,3.9-3.1,7-7,7l0,0H28.3c-3.9,0-7-3.1-7-7l0,0V282.7
		C21.3,278.8,24.4,275.7,28.3,275.7z M160,264.4h86.5c3.9,0,7-3.1,7-7V67.6c0-3.9-3.1-7-7-7H160c-3.9,0-7,3.1-7,7v189.8
		C152.9,261.3,156.1,264.4,160,264.4L160,264.4z"/>
	
		<linearGradient id="SVGID_1_" gradientUnits="userSpaceOnUse" x1="105.7378" y1="1.9422" x2="105.7378" y2="2.9417" gradientTransform="matrix(50.22 0 0 203.903 -5081.7012 -335.4025)">
		<stop  offset="0" style="stop-color:#FAF9F9"/>
		<stop  offset="1" style="stop-color:#F2F0F0;stop-opacity:0"/>
	</linearGradient>
	<path class="st3" d="M229.9,264.4h16.6c3.9,0,7-3.1,7-7V67.6c0-3.9-3.1-7-7-7h-43.2L229.9,264.4L229.9,264.4z"/>
	<path class="st1" d="M280,67.2v190.6c0,3.9,3.1,7,7,7h89.2c3.9,0,7-3.1,7-7l0,0V67.2c0-3.9-3.1-7-7-7H287
		C283.1,60.1,280,63.3,280,67.2L280,67.2z"/>
	<path class="st4" d="M46.1,331.9c5.1-14.1,7.6-22,7.6-23.5c1.9-1.1,3.3-2.7,4.3-4.9c1.4-3.3,1.4-7.8,2.3-9.3
		c0.6-1,4.6-12.2,12.1-33.5l0.9-39.1c-6.2-1.1-9.9-1.1-11.1,0c-1.8,1.6-1.3,5-4.2,6.5c-2.9,1.5-9.1,21.4-9.1,24.3
		c0,2.8,0.4,10.3-0.8,12.6c-1.2,2.4-2.7,9.3-2.7,19.2c-0.5,3-1.6,5.4-3,7.2c-2.2,2.7-12,29.4-12,36.3c-2.3,9.1-3.3,14.6-3.1,16.7
		c0.2,1.8,2.4,2.6,3.1,2.9c0.5-1.4,0.9-2.8,1.4-4.2c4.8,1.2,8.4,2.7,10.6,4.6c1.7-6.5,3-11.3,3.8-14.6
		C46.2,332.9,46.2,332.5,46.1,331.9L46.1,331.9z"/>
	<path class="st5" d="M87.4,344.8c-6.9-3.1-11.9-4.4-15-4c-0.5-15.3-0.5-23.8,0-25.5c0.8-2.5-1.3-4.2-0.4-6.3
		c0.9-2.2,0.9-7.2,0.9-9.9s0.8-11.1,1.7-13c0.9-1.9-0.9-17.5-0.9-19.4s-3.6-14.1-5.4-16.9s-2.8-13.1,0-20c1.9-4.6,3.4-7.3,4.6-8.3
		c7,1.6,11.7,2.6,14.2,3.1c3.8,0.7,13.3,4.7,14.8,9.4c-0.9,3.6-1.3,5.7-1.3,6.2c0,0.8,0.5,12.8-2,25.6c-2.5,12.8-6.9,35.9-6.9,37.5
		s-1,4.5-2,5.7s0.5,4.4,0.9,7.7c0.4,3.2-3.1,16.4-3.1,19.1C87.6,337.6,87.5,340.6,87.4,344.8L87.4,344.8z"/>
	<path class="st6" d="M73.2,236v17c0,0.6,2.7,1.8,8.2,3.8l8.8-0.6l2.8-16.1c-6.4-1.2-10.5-2.2-12.3-3C78.1,236,73.2,236,73.2,236
		L73.2,236z"/>
	<path class="st7" d="M28.9,333.8c-1.3,5.6-1.8,9.1-1.6,10.7c0.2,1.8,2.4,2.6,3.1,2.9c0.5-1.4,0.9-2.8,1.4-4.2
		c4.8,1.2,8.4,2.7,10.6,4.6c0.9-3.4,1.8-6.7,2.7-10.1c0-0.2-5.3-2.9-9.3-3.9C31.7,332.8,29,333.2,28.9,333.8z"/>
	<path class="st8" d="M43.6,336.9l-2.2,10.2c0.4,0.2,0.7,0.5,1,0.8c0.8-2.9,1.3-4.8,1.6-6c0.4-1.7,0.8-3.1,1.1-4.2L43.6,336.9z"/>
	<path class="st9" d="M27.3,344.5c0.2,1.4,1.6,2.3,2.5,2.6c0.2,0.1,0.9,0.3,1,0.3c7.6,0.5,11.5,0.6,11.5,0.3c0.1-0.3-0.9-1-2.4-1.6
		c-3.1-1.2-8.3-2.6-8.2-3C28.5,342,27.1,342.4,27.3,344.5L27.3,344.5z"/>
	<path class="st5" d="M73.3,221.6c-6.2-1-9.9-1-11.1,0c-1.4,1.2-1.4,3.5-2.6,5.2c2.8,0.1,4.8,0.3,6.2,0.5c1.6,0.2,4,0.8,7.3,1.7
		L73.3,221.6L73.3,221.6z"/>
	<path class="st5" d="M69.1,228c1-2.3,2.3-4.4,3.8-6.4c6.7,1.6,11.6,2.7,14.7,3.2c4.6,0.7,12.8,4.6,14.4,9.3c-0.6,2.5-1,4.1-1.1,4.8
		c-6-3.8-10.1-6.1-12.5-6.9c-3.5-1.2-7.3-1.3-13.3-2.5C73.7,229.2,71.7,228.7,69.1,228L69.1,228z"/>
	<path class="st10" d="M166.3,151.4c-3.2-0.7-4.6-1.9-4.3-3.8c0.5-2.7-1.9-3.9-3-5.1c-1.2-1.2-6-6.1-5.2-8.7s-1.2-5.2,1-7
		s-2.3-5.1,0.7-8.6c3-3.4,5.9-3.5,7.1-1.7c1.2,1.7,2.4,4.2,5.1,4.7s2.2-1.4,5.2-1.9s7.9,1.2,5.7,5.1c-2.2,3.8-4.2,1.8-2.2,5.4
		c2,3.6,4.1,1.8,5.1,5c0.5,1.7,2,2.6,2.4,4c0.3,1.2-0.3,2.8-1.3,3.8c-2,1.9-5.8-0.1-6.8,1.7c-1,1.7-0.9,2.8-1.7,2.8
		C173.4,147,170.8,148.4,166.3,151.4z"/>
	<path class="st11" d="M166.2,146.6c-1.6-1.6-2.4-2.9-2.2-4c0.3-1.7-2.1-2.4-2.8-3.2c-0.7-0.7-6.9-8.1-6.4-9.7s3.3,1.1,4.7,0
		s-4.2-6.4-2.3-8.5c1.8-2.1,4.2,2.2,5,3.3c0.7,1.1-2.1-6.1-0.4-5.8c0.3,0,2,0.8,2.3,1.4c0.7,1.7,0.9,4.8,1.6,5.4
		c0.2,0.2,0.2-2.2,0.4-2.6c0.2-0.7,0.3-0.9,0.9-1.2s1.3,0.6,1.4,0.9c0.8,2.1,0.7,7.4,1,7.2c0.6-0.5-0.3-5.3,1.1-5.3
		c1.3,0,3.3,1.6,2.6,4.6c-0.7,3,0.6,3.5,1.4,5.8s0.1,3.2-0.6,5.2s1.7,4.8-0.8,6.5C172,147.3,169.7,147.3,166.2,146.6L166.2,146.6z"
		/>
	<path class="st12" d="M166.5,147.5c-0.7-2.7-1.4-4.6-1.9-5.5c-0.9-1.7-2.5-2.5-2.9-3.1c-1-1.5-4.9-7.1-6.5-8.6s0.9-1.8,2-0.9
		c0.8,0.6,1.9,1.2,3.2,1.7c-2.2-5.6-3.2-9-3.2-9.9c0-1.4,1.4-1.7,2.4,0c0.7,1.1,1.7,3.5,3.1,7l-1.1-9.1c0,0-0.1-0.4,0.2-0.8
		c0.4-0.5,1.4-0.7,1.9,0.6c0.5,1.1,0.7,3,1.2,5.6c0.1,0.4,0.4,1.6,0.8,3.3c0-0.6,0-1.2,0-1.8c-0.1-3.1,0.2-4.4,1.1-4.4
		c0.8,0,1.2,1.7,1.7,5c0.1,0.6,0.3,1.7,0.7,3.2c0.1-3.2,0.4-4.7,1.1-4.7c0.3,0,0.8,0.3,1.1,0.9c0.6,1.6,0.6,4.7,0.4,7.1
		c-0.2,2,0.3,6.8,1.7,14.3L166.5,147.5L166.5,147.5z"/>
	<path class="st13" d="M166.5,147.5c-0.7-2.7-1.3-4.5-1.7-5.3c-1.1-2-2.6-2.6-3-3.2c-1-1.5-4.9-7.1-6.5-8.6s3.8,2.1,6.9,7.7
		c0.5,0.9,2.5,2.1,3.5,3.7c0.6,1,1.3,2.9,2,5.7L166.5,147.5L166.5,147.5z"/>
	<path class="st12" d="M76,168.5c2.2-3.3,3.8-5.4,5-6.1c1.8-1.1,3.6-1.5,4.4-1.5s2.9-2.6,4.2-2.6c0.8,0,0.8,0.9,0,2.6
		c1-1,1.9-1.4,2.6-1.4s1.1,0.5,1.3,1.4l-3.1,4.5L76,168.5L76,168.5z"/>
	<path class="st14" d="M64,221.1c6.3-6.7,10.2-10.9,11.8-12.4c2.4-2.3,5.5-11,6.4-13.4s4.9-11.2,3.6-12.9c-0.9-1.2-2.1-1.2-3.6,0
		c-0.5,3.6-1.5,5.4-2.8,5.4c-2,0-5.1,1.7-6.5,2.9s-4.4,0-7.7,0c-3.3,0-11.2,1.6-14.4-2.9c-3.1-4.5,5.9-11.1,10.1-11.1
		s10.7-3.7,12-5.5c1.3-1.9,12.8-10.2,15.8-10.2s11.2,0.6,12,2c0.5,1,8.1,2.7,22.8,5.4c1.1,1.1,2.1,1.7,2.9,1.7c1.2,0,3.9-0.2,3.9,1
		s3,2.1,5.6,2.1s7.3,1,10.3,1c1.6,0,6.6-0.1,11.3-1c4.1-0.8,8-2.4,10-3.1c0.2-11-0.2-17.2-1.3-18.6c-1.6-2.2-0.5-4.5,1.3-4.5
		s7.9-0.4,7.9,2.1s-0.6,6.1,0.9,8.6c1.5,2.4,3.1,14.3,3.1,16.7s-16.1,10.7-24.2,12.1c-8,1.4-19.6,1.1-28.8,16.5
		c-9.3,15.4-14,20.9-14,23.7c0,2.8-3.9,3.9-5.2,7.3c-1.2,3.4-2,7.2-6.6,6.4l1.3-6.4c-2.9-4.5-6.8-7.3-11.9-8.4c-7.6-1.6-9-2-13-2.8
		C69.9,221.2,65.6,220.7,64,221.1L64,221.1z"/>
	<path class="st15" d="M85.7,182.4c-1.1-1.2-2.3-1.2-3.6,0c-0.5,3.6-1.5,5.4-2.8,5.4c-2,0-5.1,1.7-6.5,2.9s-4.4,0-7.7,0
		c3.9-2,6.5-3.4,7.7-4.3c2.6-1.9,5.6-3.3,6.5-3.9c0.7-0.5,2.5-2,3.7-2C83.8,180.4,84.7,181.1,85.7,182.4L85.7,182.4z"/>
	<path class="st12" d="M64,221.1l1.7-1.9c4.7-0.3,9-0.1,13,0.8c4.5,1,10.4,1.7,14.5,3.4c8.8,3.6,13.1,13.4,12.4,14.6
		c-0.9,1.6-2.3,2.7-4.9,2.3l1.3-6.4c-1.4-1.9-2.6-3.2-3.4-3.9c-2.5-2.2-5.5-3.6-8.4-4.5c-2.8-0.8-4.8-1-6.5-1.4
		c-2.3-0.5-4.1-0.9-6.4-1.4C70.1,221.2,65.7,220.7,64,221.1L64,221.1z"/>
	<path class="st15" d="M105.6,238c-0.9,1.6-2.4,2.8-5.1,2.3c0.5-2.9,0.9-5.1,1.2-6.5c0.1-0.7,0.4-1.7,0.9-2.9c1,1.1,1.6,2.1,2,2.9
		C105.4,235.8,105.9,237.5,105.6,238L105.6,238z"/>
	<path class="st12" d="M133.1,156.9c-4.2,8.3-7.1,12.2-8.6,11.7c-1.6-0.5-2.5-1-2.9-1.4l5.9-10.3H133.1L133.1,156.9z"/>
	<path class="st16" d="M104.5,171.3c-2.1,0-3.8-1.4-2.3-4.1c1.5-2.7,1.7-3.2,3.1-5.9s2-4.5,2.7-6.6s1.2-3.8,1.7-5.7s1.7-5.3,3.9-8.1
		c2.2-2.8,3.7-3.4,5.9-5.1c2.2-1.7,7.1-3.6,11.2-1.8c4.1,1.8,9.5,7.8,7.6,14.5s-3.5,6.7-4.1,7.3s-1,1.2-3.5,2.4
		c-1.9,1.3-3.2,2.8-3.9,4.3c-1,2.3-1.5,5.6-4.5,5.6s-2.7,0.2-6.1,2.1s-3.8,0-5.9,0C108.3,170.1,106.6,171.3,104.5,171.3L104.5,171.3
		z"/>
	<path class="st17" d="M107,157.6c1.4-3.5,2-6,2.5-7.9s1-4,3.2-7.6s4.5-4.5,6.7-6.2s7.1-3.6,11.2-1.8c2,0.9,4.4,2.9,6.1,5.5
		c0.4,0.7-2.5-3.7-7.7-3.7c-4,0-5.2,2.5-7.2,3.7s-3.6,1.1-6.2,2c-3.1,1.1-2.1,4.5-4.3,7.3c-1,1.4-1.3,4.1-2.3,5.1
		C108.7,154.3,108,155.5,107,157.6z"/>
	<path class="st18" d="M88.7,186.1c0.4-3,4.1-8.2,7.3-11.4c2.6-2.6,3.7-4.2,4.7-5.5c2.3-2.7,2.9-4.4,3.5-5.7c0.8,0.2,1.8,0.4,3,0.4
		c3.1,0,4.1-4.2,6.6-5.7c1.8-1.1,6.5,1.1,8.6,0c2.4-1.4,4-4.7,6.1-6.2c1.8-1.2,4.2,0.8,5.6,0c3.4-1.8,4.6-5.3,4.2-3.4
		c-0.6,3.4-2.1,5.7-3.7,7.1s-1.4,1.3-3.9,2.5c-2,1.4-3.3,2.8-3.9,4.3c-0.9,2.2-1.5,3.1-1.9,7.4c-0.1,1-0.2,3.8,0.2,6.9
		c0.6,4.5,4.9,8.3,1.7,16.3c-2.6,6.6-11.6,7.6-16.3,8.2c-11,1.3-16.6-2.4-19.2-4.1C88.8,195.4,87.9,191.4,88.7,186.1L88.7,186.1z"/>
	<path class="st1" d="M154.2,283.9v99.9c0,3.9,3.1,7,7,7l0,0h85.4c3.9,0,7-3.1,7-7l0,0v-99.9c0-3.9-3.1-7-7-7h-85.4
		C157.4,276.9,154.2,280,154.2,283.9z"/>
	<path class="st19" d="M-6.9,501.6c-1,3.2-3,4.2-5.8,3.2c-2.8-1.1-3.2-3.3-1-6.8l65.2-150.4l3.1-6.3h4.3L61,346L-6.9,501.6
		L-6.9,501.6z"/>
	<path class="st20" d="M31.8,343.2c-1.2,5.6-2.6,9.5-4.4,11.7c-1.1,1.4-0.2,2.8,1,4.3c1.7,2.1,4.6,4,5.3,4.8
		c1.3,1.5,1.7,3.6,4.1,4.7c1.6,0.7,3.9,0.9,7.1,0.4c1.8-1,2.1-2.3,0.7-3.9c-2.1-2.4-4.8-7.2-4.8-8.2c0-0.4-1-1.8-1-4
		c0-1.1,0.3-3.3,1-6.5c-1.2-0.7-2.6-1.4-4.3-2C34.8,344,33.2,343.5,31.8,343.2L31.8,343.2z"/>
	<path class="st12" d="M31.8,343.2c-0.2,0.8-0.3,1.3-0.3,1.6c0.9,0,1.7,0.1,2.3,0.4c0.9,0.4,2.4,2.1,3.7,3.1c0.6,0.5,1.6,0.8,2.9,1
		c0.1-0.4,0.2-1.3,0.5-2.7c-1.2-0.7-2.6-1.4-4.3-2C34.8,344,33.2,343.5,31.8,343.2L31.8,343.2z"/>
	<path class="st21" d="M27.4,357.8c1.2,2.6,5.3,5.2,6.3,6.3c1.3,1.5,1.5,3.5,3.8,4.6c1.6,0.7,3.7,1,6.5,0.9
		c-0.9-0.5-2.5-0.8-3.2-1.6c-0.7-0.8-2.1-2.3-3.5-4.6c-1.2-1.9-2.3-4.6-4.5-5.5C28.7,356.2,27.2,357.4,27.4,357.8L27.4,357.8z"/>
	<path class="st22" d="M26.2,356.3l0.8-2c0.4-0.6,0.6-1,0.7-1.2c0.1-0.4,2-5,2.2-6c0.2-1.1,0.5-0.3,1.3-0.3s1.1-0.4,1.9,0.3
		c0.5,0.4,2.4,3.2,5.3,5c1.1,0.7,1.7-0.3,2.4-0.3c1.8,0,0.5,6.6,1.9,8.7s5.8,6,5.8,7.5c0,1.4-0.6,2.6-1.1,2.6H42L26.2,356.3
		L26.2,356.3z"/>
	<path class="st23" d="M26.2,356.3l0.8-2c1.2-0.2,2.1-0.3,2.8-0.1c2.2,0.4,3.3,1.2,4.4,2.4c1,1,1.7,2.5,2.1,3
		c0.8,1.2,3.4,5.4,5.7,7.8c1.1,1.2,2.9,2.3,5.4,3.2H42L26.2,356.3L26.2,356.3z"/>
	<path class="st24" d="M26.6,358.4c-0.6-1-0.5-2-0.2-2.5c0.5-0.8,2.1-1,3.8-0.4c4.1,1.4,5.5,5.1,6.4,6.7s5.2,6.6,6.6,7.5
		c1,0.6,1.7,0.9,2.2,0.9h-8.5c-1.3-1.7-2.3-3.3-3-5c-0.5-1.1-3.1-2.7-4.9-4.3C28,360.4,27.1,359.3,26.6,358.4z"/>
	<path class="st25" d="M-6.9,501.6c-1,3.2-3,4.2-5.8,3.2c-2.8-1.1-3.2-3.3-1-6.8L-6.9,501.6L-6.9,501.6z"/>
	<path class="st19" d="M129.9,506.1c0.9,3.2,2.8,4.3,5.7,3.4c2.9-1,3.3-3.2,1.2-6.8L73.5,340.9h-5.3l-0.7,7.2L129.9,506.1z"/>
	<path class="st20" d="M73.9,354.2c-0.5,5.6-0.9,9.2-1.1,10.8c-0.6,3.4-1.9,4.5-0.2,5.5c0.7,0.4,7.1,0.6,19.2,0.6
		c1.1,0.3,1.6-0.3,1.6-1.6c0-2-8.9-4.5-9.9-5.5c-0.7-0.7-1-2.9-1.1-6.6l-0.2-3.8l-8.1-2.3L73.9,354.2z"/>
	<path class="st12" d="M73.9,354.2c0.6,1.3,1.7,2.1,3.2,2.4s3.3,0.7,5.3,1.1l-0.1-4.3l-8.1-2.2L73.9,354.2L73.9,354.2z"/>
	<path class="st22" d="M72.6,359.2c-0.3,1.1-0.6,2.3-0.8,3.4c-0.7,3-1.1,5.1-1,6s1.1,2.3,1.6,2.3c1.2,0,8.3,0.1,21.4,0.3
		c1-1.5,1-2.6,0-3.6c-1.4-1.4-9.2-4-9.2-5s0.1-2.3-1-2.3s-0.9,1.8-2.7,1.8s-2.3-1.2-4.6-2.5c-0.6-0.3-1.8-0.8-3-0.8
		C73.1,358.8,72.8,358.9,72.6,359.2L72.6,359.2z"/>
	<path class="st23" d="M70.9,369.3c0.3,0.8,1,1.6,1.5,1.6c1.2,0,8.3,0.1,21.4,0.3c0.3-0.5,0.5-0.9,0.6-1.1L70.9,369.3L70.9,369.3z"
		/>
	<path class="st7" d="M72.1,340.7L71,352.6l14.6,4.5c0.7-5.6,1.4-9.7,1.9-12.3c-4.1-2.4-8.3-3.9-12.4-4.6
		C73.6,340,72.6,340.2,72.1,340.7z"/>
	<path class="st8" d="M85.5,357.1c0.7-5.6,1.5-9.7,1.9-12.3c-0.9-0.5-1.5-0.8-1.9-1L84,356.7L85.5,357.1L85.5,357.1z"/>
	<path class="st25" d="M129.9,506.1c0.9,3.2,2.8,4.3,5.7,3.4c2.9-1,3.3-3.2,1.2-6.8L129.9,506.1L129.9,506.1z"/>
	<path class="st2" d="M280.9,283.8v100.7c0,3.9,3.1,7,7,7l0,0h90.8c3.9,0,7-3.1,7-7l0,0V283.8c0-3.9-3.1-7-7-7h-90.8
		C284,276.8,280.9,279.9,280.9,283.8L280.9,283.8z"/>
	<g transform="translate(112.53 606.092)">
		<path class="st26" d="M-128.1-130.5l11.6-0.7h8.2c0.4,0,0.8,0.3,0.8,0.8c0,0.4-0.3,0.7-0.6,0.8l-6.9,1.5c-0.1,0-0.2,0-0.3,0H-128
			c-0.6,0-1.2-0.5-1.2-1.2v-0.1C-129.2-129.9-128.7-130.5-128.1-130.5L-128.1-130.5z"/>
		<path class="st27" d="M-128-130.4h11.7c0.6,0,1.2,0.5,1.2,1.2l0,0c0,0.6-0.5,1.2-1.2,1.2H-128c-0.6,0-1.2-0.5-1.2-1.2l0,0
			C-129.2-129.9-128.7-130.4-128-130.4z"/>
	</g>
	<g transform="translate(127.74 572.197)">
		<path class="st26" d="M-128.1-130.5l11.6-0.7h8.2c0.4,0,0.8,0.3,0.8,0.8c0,0.4-0.3,0.7-0.6,0.8l-6.9,1.5c-0.1,0-0.2,0-0.3,0H-128
			c-0.6,0-1.2-0.5-1.2-1.2v-0.1C-129.2-129.9-128.7-130.5-128.1-130.5L-128.1-130.5z"/>
		<path class="st27" d="M-128-130.4h11.7c0.6,0,1.2,0.5,1.2,1.2l0,0c0,0.6-0.5,1.2-1.2,1.2H-128c-0.6,0-1.2-0.5-1.2-1.2l0,0
			C-129.2-129.9-128.7-130.4-128-130.4z"/>
	</g>
	<g transform="translate(141.779 538.302)">
		<path class="st26" d="M-128.1-130.5l11.6-0.7h8.2c0.4,0,0.8,0.3,0.8,0.8c0,0.4-0.3,0.7-0.6,0.8l-6.9,1.5c-0.1,0-0.2,0-0.3,0H-128
			c-0.6,0-1.2-0.5-1.2-1.2v-0.1C-129.2-129.9-128.7-130.5-128.1-130.5L-128.1-130.5z"/>
		<path class="st27" d="M-128-130.4h11.7c0.6,0,1.2,0.5,1.2,1.2l0,0c0,0.6-0.5,1.2-1.2,1.2H-128c-0.6,0-1.2-0.5-1.2-1.2l0,0
			C-129.2-129.9-128.7-130.4-128-130.4z"/>
	</g>
	<g transform="translate(155.989 501.9)">
		<path class="st28" d="M-127.2-130.7l11.6-0.7h8.2c0.4,0,0.8,0.3,0.8,0.8c0,0.4-0.3,0.7-0.6,0.8l-6.9,1.5c-0.1,0-0.2,0-0.3,0h-12.7
			c-0.6,0-1.2-0.5-1.2-1.2l0,0v-0.1C-128.3-130.2-127.8-130.7-127.2-130.7L-127.2-130.7z"/>
		<path class="st27" d="M-127.1-130.6h11.7c0.6,0,1.2,0.5,1.2,1.2l0,0c0,0.6-0.5,1.2-1.2,1.2h-11.7c-0.6,0-1.2-0.5-1.2-1.2l0,0
			C-128.3-130.1-127.8-130.6-127.1-130.6z"/>
	</g>
	<path class="st28" d="M69.8,371.8l11.6-0.7h8.2c0.4,0,0.8,0.3,0.8,0.8c0,0.4-0.3,0.7-0.6,0.8l-6.9,1.5c-0.1,0-0.2,0-0.3,0H69.9
		c-0.6,0-1.2-0.5-1.2-1.2v-0.1C68.7,372.3,69.2,371.8,69.8,371.8L69.8,371.8z"/>
	<path class="st27" d="M69.9,371.8h11.7c0.6,0,1.2,0.5,1.2,1.2s-0.5,1.2-1.2,1.2H69.9c-0.6,0-1.2-0.5-1.2-1.2S69.2,371.8,69.9,371.8
		L69.9,371.8z"/>
	<g transform="translate(209.637 539.47)">
		<path class="st28" d="M-128.1-130.5l11.6-0.7h8.2c0.4,0,0.8,0.3,0.8,0.8c0,0.4-0.3,0.7-0.6,0.8l-6.9,1.5c-0.1,0-0.2,0-0.3,0H-128
			c-0.6,0-1.2-0.5-1.2-1.2v-0.1C-129.2-129.9-128.7-130.5-128.1-130.5L-128.1-130.5z"/>
		<path class="st27" d="M-128-130.4h11.7c0.6,0,1.2,0.5,1.2,1.2l0,0c0,0.6-0.5,1.2-1.2,1.2H-128c-0.6,0-1.2-0.5-1.2-1.2l0,0
			C-129.2-129.9-128.7-130.4-128-130.4z"/>
	</g>
	<g transform="translate(223.677 574.535)">
		<path class="st26" d="M-128.1-130.5l11.6-0.7h8.2c0.4,0,0.8,0.3,0.8,0.8c0,0.4-0.3,0.7-0.6,0.8l-6.9,1.5c-0.1,0-0.2,0-0.3,0H-128
			c-0.6,0-1.2-0.5-1.2-1.2v-0.1C-129.2-129.9-128.7-130.5-128.1-130.5L-128.1-130.5z"/>
		<path class="st27" d="M-128-130.4h11.7c0.6,0,1.2,0.5,1.2,1.2l0,0c0,0.6-0.5,1.2-1.2,1.2H-128c-0.6,0-1.2-0.5-1.2-1.2l0,0
			C-129.2-129.9-128.7-130.4-128-130.4z"/>
	</g>
	<g transform="translate(236.547 608.43)">
		<path class="st26" d="M-128.1-130.5l11.6-0.7h8.2c0.4,0,0.8,0.3,0.8,0.8c0,0.4-0.3,0.7-0.6,0.8l-6.9,1.5c-0.1,0-0.2,0-0.3,0H-128
			c-0.6,0-1.2-0.5-1.2-1.2v-0.1C-129.2-129.9-128.7-130.5-128.1-130.5L-128.1-130.5z"/>
		<path class="st27" d="M-128-130.4h11.7c0.6,0,1.2,0.5,1.2,1.2l0,0c0,0.6-0.5,1.2-1.2,1.2H-128c-0.6,0-1.2-0.5-1.2-1.2l0,0
			C-129.2-129.9-128.7-130.4-128-130.4z"/>
	</g>
	<path class="st29" d="M123.7,511.4c0.9,3.2,2.8,4.4,5.6,3.5c2.9-0.9,3.3-3.2,1.3-6.8l-61-163.7L68,342l-9.1-0.5l3.3,6.4
		L123.7,511.4z"/>
	<path class="st27" d="M69.6,344.4l-1.5-3.1h-9.2l3.3,6.7L69.6,344.4z"/>
	<path class="st25" d="M123.7,511.4c0.9,3.2,2.8,4.4,5.6,3.5c2.9-0.9,3.3-3.2,1.3-6.8L123.7,511.4z"/>
	<path class="st29" d="M-18.6,507.4c-1,3.2-3,4.2-5.8,3.2c-2.8-1.1-3.2-3.3-1-6.8l69.5-160.3l1.7-2.3h9.1l-3.6,6.2L-18.6,507.4
		L-18.6,507.4z"/>
	<path class="st27" d="M44.2,343.5l1.7-2.3H55l-3.6,6.2L44.2,343.5z"/>
	<path class="st25" d="M-18.6,507.4c-1,3.2-3,4.2-5.8,3.2c-2.8-1.1-3.2-3.3-1-6.8L-18.6,507.4L-18.6,507.4z"/>
	<path class="st30" d="M44.2,337.7h29.2v3.5H44.2V337.7z"/>
	<g>
		<path class="st31" d="M149.3,477.7c-1.2-0.2-2-0.5-2.3-0.8s-0.5-1-0.5-2h38.4c0,0.9-0.2,1.6-0.5,2s-0.9,0.9-1.7,1.4l-4,36.2
			c-5.8,0.5-10.1,0.7-13.1,0.7c-2.9,0-6.9-0.2-12-0.7L149.3,477.7L149.3,477.7z"/>
		<path class="st32" d="M180.1,474.9h4.8c0,0.9-0.2,1.6-0.5,2s-0.9,0.9-1.7,1.4l-4,36.2c-3.5,0.3-6,0.4-7.4,0.5L180.1,474.9
			L180.1,474.9z"/>
		<path class="st33" d="M149.3,477.7c-1.2-0.2-2-0.5-2.3-0.8s-0.5-1-0.5-2h38.4c0,0.9-0.2,1.6-0.5,2s-0.9,0.9-1.7,1.4L149.3,477.7
			L149.3,477.7z"/>
		<path class="st34" d="M166.1,478c0.4,11.2,5,18.2,13.7,20.8"/>
	</g>
	<g transform="translate(465)">
		<path class="st35" d="M-33.7,110.4"/>
		<path class="st36" d="M-92.8,70.5"/>
	</g>
	<g>
		<path class="st37" d="M862.6,405.9c7.2-4.4,12.3-6.8,15.4-7.3c3.1-0.5,6.4,0,10.1,1.6c10.4,1.4,16,2.3,16.8,2.8
			c1.2,0.7,0.3,2.9-1.1,2.9c-0.9,0-5.5,1.8-13.8,5.5l-8.9-2l-3.1,0.7L862.6,405.9z"/>
		<path class="st38" d="M863.2,405.5c5.4,0.4,9.4,0.9,12.1,1.3c3.2,0.5,7.9,1.5,14.2,2.9c6.9-3.8,15-7.1,15.5-6.8
			c0.9,0.5,0.6,1.8-0.1,2.5c-0.3,0.2-0.6,0.4-1,0.5s-1.6,0.6-3.7,1.4c-1,0.4-2,1-3.4,1.5l0.8,2c-2,1.1-3.3,1.7-3.9,2
			c-1.3-1.5-2.1-2.1-2.4-2l-1.3,0.6l-8.9-2l-3.1,0.7l-14.7-4c-0.2,0-0.3-0.2-0.2-0.4C863.1,405.6,863.2,405.6,863.2,405.5
			L863.2,405.5z"/>
		<path class="st39" d="M895.9,435.1c0.6,1,1.1,1.5,1.6,1.5h4.2l-2.9-3.4L895.9,435.1L895.9,435.1z"/>
		<path class="st38" d="M837.9,430.8c-0.5,0.3-0.8,0.7-0.8,1.3c0,0.9-0.4,3.2,0,3.4s19.2,5.6,21.1,5.6c1.9,0,5.6,2.1,15.3,0
			c6.4-1.4,14.6-3.7,24.5-6.7c1.3,2,2.8,2.7,4.4,2c2.4-1,6.9-3.4,5-15.3l0.9-0.9l-0.9-11.2c1.1-1.5,1.2-2.5,0.4-2.9s-2-0.5-3.7-0.2
			l-7.4,2.8l2,3.5l-25.3,22.3L837.9,430.8L837.9,430.8z"/>
		<path class="st31" d="M838.6,429.8c-1.2,1.3-1,2.3,0.7,3c2.5,1,22.8,4.9,24.3,4.9s4.9-1.6,5.7,1.1c5.7-0.6,9.3-1.5,10.6-2.7
			c1.4-1.2,8.3-10,20.8-26.3c0.2-0.4,0.3-0.7,0.2-0.9c-0.2-1.2-0.7-1.3-2.7-0.8c-0.4,0.1-0.7,0.2-1.1,0.3c-0.3,0.1-0.4,0.4-0.3,0.7
			l0,0l0.7,1.8l-3.8,1.8c-0.9-1-1.5-1.6-1.9-1.8s-0.9-0.1-1.7,0.3l-9-2.2c-0.4-0.1-0.9-0.1-1.3,0l-0.9,0.2c-0.4,0.1-0.8,0.1-1.2,0
			l-8.1-1.6c-0.1,0-0.1-0.1-0.1-0.2c0,0,0-0.1,0.1-0.1l0.6-0.2c0.1,0,0.1-0.1,0.1-0.2l-0.1-0.1l-7.7-1c-5.8,3.1-9.3,5.1-10.6,5.8
			c-5.5,2.8-8.5,4.7-9.1,5.7C842.2,418.3,840.8,422.5,838.6,429.8L838.6,429.8z"/>
		<path class="st40" d="M869.5,439c2.1-0.1,3.6-0.3,4.5-0.5c20.1-4.6,30.2-7.4,31.4-9c1.9-2.5-0.3-9-1.6-13.1
			c-0.8-2.7,0.3-5.1,3.4-7.1c1.2-1.9,1.4-3,0.4-3.3c-1-0.4-2.1-0.4-3.2-0.2c-3,0.9-4.9,1.7-5.6,2.1l-0.5,3.4
			c-13.6,16.2-20.6,24.3-20.9,24.3C876.9,435.6,874.3,436.7,869.5,439L869.5,439z"/>
		<path class="st32" d="M858.8,436.9c2.5,0.5,4.4,0.8,4.8,0.8c1.5,0,4.9-1.6,5.7,1.1c5.7-0.6,9.3-1.5,10.6-2.7
			c1.4-1.2,8.3-10,20.8-26.3c0.2-0.4,0.3-0.7,0.2-0.9c-0.2-1.2-0.7-1.3-2.7-0.8c-0.4,0.1-0.7,0.2-1.1,0.3c-0.3,0.1-0.4,0.4-0.3,0.7
			l0,0l0.5,1.4c0.1,0.3,0,0.6-0.3,0.7l-3,1.4c-0.2,0.1-0.5,0-0.6-0.1c-0.7-0.8-1.3-1.3-1.6-1.5c-0.4-0.2-0.9-0.1-1.6,0.3
			c-12.8,5.3-20.5,8.6-23,10C864.6,422.7,861.8,427.9,858.8,436.9L858.8,436.9z M847.6,417.2c1.5,0,5.9,0.9,13,2.7
			c1.1,0.3,1.8,1.4,1.6,2.6c0,0.1,0,0.1-0.1,0.2l-3.4,9.7c-0.5,1.4-1.9,2.2-3.4,1.9l-12.5-2.5c-0.7-0.1-1.2-0.9-1-1.6v-0.1
			C844,421.5,845.9,417.2,847.6,417.2L847.6,417.2z"/>
		<path class="st41" d="M794,266.7c1.3,22.1,2,35.8,2,41.2c0,8.1,5.8,19.2,5.8,43.2s-11.9,49.7,4.4,64.8c5,4.6,11.7,5.9,19.9,7.8
			c5.7,1.3,16,2.5,30.8,3.6c2.1-1.6,2.1-3.5,0-5.6l-18.9-2.3c-18.3-1.4-28.9-6.2-31.8-14.4c-4.4-12.3-2.6-22.1-0.9-30.2
			c1.7-8.1,3.5-36,0-46.7c-0.8-2.4-1.1-5.9-1.8-10.5c-0.8-6.1-1.9-19.5-3.3-40.2v-31l-4.3,5L794,266.7L794,266.7z"/>
		<path class="st4" d="M855.7,301.9c0.1,8-0.5,15.1-1.8,21.3c-0.8,3.9-2.2,11.7-4.2,19.5c-2.1,8.4-4.5,17.1-5.5,22.6
			c-0.3,1.5-0.4,2.8-0.4,3.8c0,0.9-0.4,2.1,0,2.8c0.4,0.7,0.3,2.1-0.8,2.8c-1.1,0.7-1.3,3.6-0.9,4.1c0.4,0.6-0.4,2.2,0,2.7
			s0.6,0.5,0,1.9c-0.4,0.9-0.8,2.3-1,4.2l-7.1,24.3c-1.1,3-1.6,4.8-1.6,5.4c0,1-0.6,5.4-1,5.4c-0.2,0-0.2,0.2,0,0.5l-1.3,6
			c-6.1-0.3-10.6-1.6-13.5-3.7c0.7-3.8,1-6.1,1-6.7c0-1-0.7-1.5,0-1.5c0.4,0,0.7-0.2,0.8-0.6c0-2.2,0.2-3.8,0.7-4.8
			c0.8-1.5,0.6-4.6,1.1-5.3c0.6-0.7,1.1-5.7,1.1-7c0-1.2,1.2-9.7,2.2-12.6c0.7-1.9,3.6-16.9,8.8-45.1l-1.6-18.8
			c0.6-0.9,1.2-1.7,1.6-2.4c3.2-4.9,0.4-10.6,1.3-15c0.7-3.3,1.7-4.5,1-6.1c-0.3-0.7-1.8-1.1-2.3-2.2l21.5-5.6
			c1.7,1.8,2.3,3.6,1.8,5.6C855.2,299.4,855.2,300.9,855.7,301.9L855.7,301.9z"/>
		<path class="st42" d="M818.6,426.6c0,0-1.2,4.1-1.9,5.5c-0.6,1.4-0.5,4-0.5,5.3l11.9,1.7c-0.5-0.9-0.8-1.8-0.8-2.3v-2.2
			c0-0.8-0.2-0.9-0.2-1.7s-0.2-2.1,0.6-3.9L818.6,426.6L818.6,426.6z"/>
		<path class="st43" d="M818.6,426.6c0,0-1.2,4.1-1.9,5.5c-0.6,1.4-0.6,3.9-0.6,5.1c0,1.3-1.1,6.6-0.3,7.7c0-1.2,0.2-2.3,0.5-3.4
			c0.3-1.2,1.3-2.4,1.6-4.1c0.2-1.3,0-2.7,0.3-4.3c0.2-0.9,0.8-2.9,2-6.1L818.6,426.6z"/>
		<path class="st20" d="M817.9,428.8c-0.2,0.7-1,2.9-1.2,3.3c-0.6,1.4-0.7,4.1-0.7,5.4l12.1,1.6c-0.5-0.9-0.8-1.8-0.8-2.3v-2.2
			c0-0.8-0.2-2.4-0.2-3.2c-2.8,0-5-0.2-6.4-0.5C819.9,430.6,819,429.9,817.9,428.8z"/>
		<path class="st11" d="M841.1,453.9c0,1-0.1,1.9-2.2,3.1c-2.2,1.2-7.6,2.7-10.6,0.5s-3.4-5.5-6.4-6.6c-3.1-1.2-7.9-2.6-8.4-3.8
			c-0.1-0.3-0.2-1.8-0.1-3L841.1,453.9L841.1,453.9z"/>
		<path class="st44" d="M821.2,437.4c4.1-0.7,5.9-1.4,7.5,0.3c1.5,1.7,2.2,4.3,4.1,6.2c1.9,1.8,5.1,5.3,6.2,6.4
			c1.1,1.1,3.8,3.7,1.2,5.2c-2.6,1.6-8.1,2.2-11.1,0s-4.1-5.9-7.2-7.1c-3.1-1.2-8.1-2.7-8.5-3.9s1.1-11.9,2.1-10.6
			C816.6,435,817.2,438.1,821.2,437.4L821.2,437.4z"/>
		<path class="st7" d="M831.5,423.3l-1.3,6c-6.1-0.3-10.6-1.6-13.5-3.7c0.7-3.8,1-6.1,1-6.7c0-1-0.7-1.5,0-1.5
			c0.3,0,2.7,1.6,7.4,3.5C826.4,421.3,828.5,422.1,831.5,423.3L831.5,423.3z"/>
		<path class="st8" d="M817.2,425.9c-0.2-0.1-0.3-0.2-0.5-0.3c0.7-3.8,1-6.1,1-6.7c0-1-0.7-1.5,0-1.5c0.1,0,0.7,0.3,1.6,0.8
			L817.2,425.9L817.2,425.9z"/>
		<path class="st5" d="M801.4,298.8c0.7,7.9,1.3,13.3,1.7,16.3c2.2,15.1,4.2,23.1,5.3,27.3c2.2,8.1,9.4,26.9,9.4,29.6
			s1.2,4.8,1.7,5.2c0.4,0.4,0,3.3,0.6,3.8c1.1,0.8,0.5,1.6,1.1,2.7c0.6,1.2,1.6,2.2,1.9,2.6c0.4,0.5,7.2,15,20.5,43.4v1.6l3.4,7.5
			c7-1.2,11.3-3.4,12.9-6.4l-3.7-10.5h-1c-4.6-14.3-7.6-22.7-9.3-25.2c-1.6-2.4-3.2-5.6-4.9-9.3c-0.3-2.4-0.9-4.2-1.9-5.5
			c-1.6-1.9,0.5-4.3,0-5.5s-2.2-1.6-1.6-3.4c0.6-1.9,0.1-4-0.5-4.8c-0.5-0.8-0.5-6.2-0.5-7.4c0-1.2-3.7-12.5-3.7-15.1
			s-1.4-21.3-1.4-21.9c0-0.4,1.4-1.9,2.4-4.9s-0.3-12.3,0.6-13.9c1.9-3.5,1.2-5.7-1.6-7.5c13.5-2,20.4-2.6,20.7-1.9
			c1.8,1.2,2.7,1.2,2.7,0s-0.6-2.4-1.8-3.6L801.4,298.8L801.4,298.8z"/>
		<path class="st6" d="M801.2,298c0.8,8.4,1.4,14.1,1.9,17.1c1.3,9.3,2.6,15.9,3.7,20.6c0.5,2.2,1.1,4.5,1.7,6.7
			c0.8,2.9,0,0.1,0-8.8c0-2.1,0.8-4.7,0.8-7.5c0-1.8,0.9-4.1,1-7.1c0.1-1.9-1.8-4.6-1.8-8.7c0-1.3-2-3.4-1.7-5.9
			c0.1-0.7,2.5-1.2,2.6-2c0.2-0.9,0.5-2.4,0.9-4.4L801.2,298L801.2,298z"/>
		<path class="st42" d="M849.5,437.9c3.8,6.2,6.2,9.6,7.2,10.1c0.7,0.3,6,1.4,7.5-0.6c1.7-2.3,1.6-5.3,1.1-5.6
			c-0.9-0.5-3-2.7-3.6-3.5c-0.4-0.5-1.6-2.1-3.4-4.7L849.5,437.9L849.5,437.9z"/>
		<path class="st45" d="M849.5,438c4.9,7.9,7.9,12.1,8.9,12.6l0.7-1.3c-2.3-1.2-5.2-5.1-8.7-11.7L849.5,438L849.5,438z"/>
		<path class="st20" d="M850.7,439.9c0.2,0.3,1.3,2.2,1.4,2.4c2.4,3.9,3.8,5.4,4.6,5.8c0.7,0.3,6,1.4,7.5-0.6
			c1.7-2.3,1.6-5.3,1.1-5.6c-0.9-0.5-2.8-2.7-3.5-3.4c-0.2-0.2-1.3-1.5-1.7-2.2c0.2,1.9-0.2,3.1-1.3,3.7
			C857.2,440.8,854.5,440.8,850.7,439.9L850.7,439.9z"/>
		<path class="st11" d="M855.2,448.2c0.4,1.8,1.5,2.8,2.3,3.3c1.8,1.1,6,8,7.8,10.7c1.7,2.7,6,2.8,10,1.5s1-6.9,0-7.6L855.2,448.2
			L855.2,448.2z"/>
		<path class="st44" d="M852.5,442.9c1.7,4.4,3.2,6.9,4.4,7.7c1.8,1.1,6,7.8,8.1,10.4c2.1,2.6,6,2.1,9.7,1.2c3.7-0.9,2.1-4,1.1-6.2
			c-0.9-2.3-4.1-5.4-6.3-8.4s-4.7-7.1-5.3-7.1s1.6,3.1,0,4.7c-1.6,1.6-5.2,2.6-7.7,1.6C854.9,446,853.6,444.7,852.5,442.9
			L852.5,442.9z"/>
		<path class="st7" d="M843.5,429.6l-0.4,0.7l3.8,8.4c7-1.2,11.3-3.4,12.9-6.4l-3.7-10.5h-0.9L843.5,429.6z"/>
		<path class="st8" d="M843.5,429.6l-0.4,0.7l3.8,8.4c0.4-0.1,0.6-0.1,0.8-0.1l-3.2-9.6L843.5,429.6L843.5,429.6z"/>
		<path class="st14" d="M815.7,200.8c-0.6-0.3-1-0.3-1.4,0c-0.5,0.5-2.1,1.8-4.2,1.8c-2.1,0-16.6,5.1-18.2,7.5
			c-1.6,2.3-8.5,13.8-9.8,22.8c-2.6,10.4-4.5,16.3-5.7,17.4c-1.8,1.8-4.1,9.4-2,12.3l25.6-16.2c0,11.4-0.3,18.2-1,20.6
			c-1,3.6-1.5,8.8-1.6,11.5c-0.1,1.7,0.1,3,0.2,4.4c0.1,0.8-0.1,2.1-0.6,3.8c-0.4,1.7-0.3,3.1,0,4s1.3,0.9,1.5,2
			c0.6,2.8,1,5.8,3.3,5.8h22.6c3.1,0,13.7-1.9,15.6-2.7c1.9-0.8,13.2-3.2,15.3-4.7l-0.7-2.9c-1.8-5.8-2.3-9.8-1.4-12
			c0.6-1.4,2-1.2,3.1-2.7c1.4-2,2.5-5.6,2.6-7.6c0.1-3.5-0.1-4.5-0.1-6.3c0-1.7-0.4-3-0.3-4.1c0.1-1,0.6-2,1.3-2.6
			c1-0.9,2.1-0.9,2.8-0.9c0.9,0,1.7,0.9,2.5,2.6c1,2.1,2.2,3.4,3.6,3.9c-1.5,2.6-2.3,4.4-2.3,5.2c0,1.3-7.5,6.1-7.5,8.4v4l-2.2,2.2
			c1.5,0.6,2.5,1.1,3,1.4c1.4,0.9,2.3,1.9,2.7,2.3c1.2,1.2,1.4,2.5,1.1,3.1c-0.2,0.4-0.7,1-1.4,1.7c0.6,0.3,1.2,0.2,1.6-0.4
			c0.4-0.5,1.4-1.6,3-3.4c2.1,0.8,4,0.3,5.9-1.7c2.8-3,6-7,7.4-8.9s3.4-4.1,3-6c2.8-3.1,4.1-6,3.9-8.9c-0.2-4.3,0-10.7,0-12.6
			s-2.2-1.9-3-2.9c-0.5-0.6-3.3-6.3-7.5-11.5c-2.8-3.5-6.8-6.2-9-9.2c-2.5-3.5-4-3.8-5.7-5.8c-2.4-2.9-3.5-4.9-9.3-7.7
			c-5.9-2.9-7.9-2.3-10.4-3.7c-2.5-1.4-3.8-3.5-6-3.5h-20.3V200.8z"/>
		<g class="st46">
			
				<linearGradient id="SVGID_2_" gradientUnits="userSpaceOnUse" x1="95.1308" y1="0.3938" x2="95.1308" y2="0.3938" gradientTransform="matrix(23.354 0 0 28.2998 -1388.028 233.5136)">
				<stop  offset="0" style="stop-color:#C8C8C8"/>
				<stop  offset="1" style="stop-color:#979797"/>
			</linearGradient>
			<path class="st47" d="M833.7,244.7"/>
			<path class="st48" d="M833.5,244.7"/>
			<path class="st48" d="M834.7,236.2"/>
			<path class="st48" d="M821.4,236.2L821.4,236.2"/>
			<path class="st48" d="M823.2,245.7"/>
		</g>
		<path class="st42" d="M815.9,163.3c-3.8,5.6-5.7,9-5.7,10.1c0,0.4,0.1,0.7,0.2,1.1c0,0.4-0.1,0.6,0,1.2s0.5,1.2,0.5,1.6
			c0,0.6-0.1,1.2-0.4,1.8c-0.4,0.8-1.2,2-1.3,2.9c0,0.6,0.3,1.2,1,1.4c-0.1,0.1-0.3,0.4-0.5,0.9c-0.2,0.4-0.3,0.8-0.4,1.2
			c-0.1,0.5,0.1,1.1,0.3,1.5c0.3,1.1,1.4,2.4,0.6,4.5c-0.8,2.1-1.1,5.6,3.1,6.5c1.7,0.4,2.8,0.5,3.6,0.5c1.2,0,0.2,1.6-1,2.2
			c-0.5,0.3-1,0.8-1.3,1.3c-0.5,1,0.8,3,1.5,3.7c1,1.1,4.7,3.1,7.3,3.7c2.4,0.5,7,1.1,9.9,0.6c2.8-0.5,4.9-3.3,5.2-4.6
			c0.4-1.4-1.3-2.9-2.2-5c-0.7-1.5-0.7-3.7-0.8-5.1c-0.4-4.2,0.4-7.4,0.4-7.7c0.3-1.7,2.9-3.5,3.7-6.4c0.7-2.6-0.7-4.7-1.4-4.7
			c-2,0-8.9-4.3-10.3-5.2c1.6-1.2,2.2-3,1.8-5.5c-0.3-1.7-2.5-2.6-5.4-2.9C822.7,162.7,819.9,162.8,815.9,163.3L815.9,163.3z"/>
		<path class="st43" d="M815.9,163.3c-3.8,5.6-5.7,9-5.7,10.1c0,0.4,0.1,0.7,0.2,1.1c0,0.4-0.1,0.6,0,1.2s0.5,1.2,0.5,1.6
			c0,0.6-0.1,1.2-0.4,1.8c-0.4,0.8-1.2,2-1.3,2.9c0,0.6,0.3,1.2,1,1.4c-0.1,0.1-0.3,0.4-0.5,0.9c-0.2,0.4-0.3,0.8-0.4,1.2
			c-0.1,0.5,0.1,1.1,0.2,1.5c0.3,1.1,1.4,2.4,0.7,4.5c-0.1,0.2,0.6-0.9,0.7-2.6c0.1-0.7-0.6-1.4-0.7-2.2c-0.1-1,0.5-2.2,0.6-3.2
			c0.1-1.2-1-0.6-0.8-2c0.4-2.2,2.4-4.1,3-7c0.1-0.7-0.1-1.4-0.9-2.1c0.5-2,2.1-5.1,4.9-9.2L815.9,163.3L815.9,163.3z"/>
		<path class="st45" d="M816.9,198.4c1.2,0,0.2,1.6-1,2.2c-0.5,0.3-1,0.8-1.3,1.3c-0.5,1,0.8,3,1.5,3.7c1,1.1,4.7,3.1,7.3,3.7
			c2.4,0.5,4.1-13.7-1.3-11.8C819.2,198.5,816.6,198.4,816.9,198.4L816.9,198.4z"/>
		<path class="st49" d="M815.9,163.3c-2.1-2.4-1.8-5,0.9-7.6c-0.1,0.7-0.2,1.1-0.2,1.2c1.5-3.1,3.2-4.9,5.3-5.4
			c3-0.8,2.8,1.4,4.2,1.6c1.5,0.2,3-0.6,5.2,0.9s3.6,3.5,7.5,3.2c-0.3,1-1,1.8-2.1,2.4c0,0.9,0.8,1.4,2.3,1.5c2.2,0.3,2.3,2.5,3,3
			c0.7,0.6,1.7,1.9,2,3.8s1.9,4.7,1.9,5.4s-0.4,2,0,3.4c0.4,1.3-2.2,2.5-2.2,4.4s-1.9,2.9-3.8,5.8c-2.1,3.3-4.2,6.9-4.2,8
			c0,2.1-0.8-6.9,1.1-9.1c1.9-2.2,3.1-4.2,3.1-5.9c0-1.7-0.9-3.8-2-3.5s-3.9,2.1-5.1,3.2c-1.1,1.1-1.7,3.9-1.9,4.7
			c-0.2,0.9-0.3,1.6-0.5,2.9c-0.2,1.6-0.2,3.3-0.3,4c-0.2,1.2-4.9,5.9-9.2,6.8c-1.8,0.4-4.1,0.4-5.8,0.2c-2.3-0.2-4.1-1-4.7-2.1
			c-0.4-0.8-0.7-1.7-0.6-2.9c0-0.5,0.2-1.2,0.5-2.1c0.2,0.6,0.4,1.2,0.4,1.9c0,1,1,0.9,1-0.2c0-1-1.2-2.2,0.2-2.2
			c0.3,0,0.7,0.2,1,0.2c0.4,0,0.7-0.2,1-0.2c0.6,0,1.2,0.3,0.6,0.9c-0.6,0.6-0.9,1.3-0.7,1.8c0.1,0.2,0.5,0.3,1,0.2
			c0.5-0.2,1.5-0.5,2.3-1.2c1.2-1.1,2-1.8,2.2-2.6c0.1-0.3,0.1-0.6-0.2-1c-0.7-1.4-4.4-2-5.8-2.5c-0.4-0.1-1.1-0.1-1.5,0
			c-1.1,0.3-1.9,1.1-2.3,0.6c-0.4-0.4-0.5-1.7,0-2.6c0.2-0.3,0.3-0.8,0.8-0.9c0.3-0.1,0.6-0.2,0.9-0.2c0.4,0,0.9,0.1,1.3,0
			c0.5-0.1,0.9-0.2,1.3-0.3c0.4-0.1,1-0.1,1.3,0c1.3,0.5,1.9,1.8,3.8,1.8c1.9,0,1.4,3.5,1.4,3.9s0.6,0.9,1,0s2.9-4.4,5-5.3
			s4-7.4,3.4-9.3c-0.4-1.2-1-2.2-1.9-3c0.8-0.7,1.4-1.6,1.6-2.5c0.3-1.4,0.3-3.6-0.9-4.6c-1.3-1-3.5-1.3-5.9-1.3
			C821.3,162.8,819,162.9,815.9,163.3L815.9,163.3z"/>
		<path class="st50" d="M815.9,163.3c-2.1-2.4-1.8-5,0.9-7.7c-0.1,0.7-0.2,1.1-0.2,1.2c1.5-3.1,3.2-4.9,5.3-5.4
			c3-0.8,2.8,1.4,4.2,1.6c1.5,0.2,3-0.6,5.2,0.9s3.6,3.5,7.5,3.2c-1.9,0.4-3.6,0.2-5.1-0.6c-1.4-0.8-3.1-1.3-4.4-1.8
			c-1.2-0.5-3.1-0.2-3.7-0.3c-2.2-0.4-2.3-0.8-3.3-0.8c-1.9,0.1-2.8,3.4-3.2,3.6c-2.3,1.1-2.6,3-0.8,5.8
			C817.7,163.1,816.9,163.2,815.9,163.3L815.9,163.3z"/>
		<path class="st45" d="M810.8,171.7c0.5,0.2,0.9,0.3,1.1,0.5c1.3,1,1.5,2.2,0.9,3.3c-0.8,1.4-1.7,3-2.9,4.7
			c0.8-1.5,1.1-2.7,0.9-3.6c-0.3-1.3-0.4-1.7-0.3-2.1c0-0.4-0.3-1.1,0-2L810.8,171.7L810.8,171.7z"/>
		<path class="st51" d="M816.1,173.5c-0.6-0.1-0.8-0.4-0.6-0.8c0.3-0.7,1.4-1.1,2.3-0.8c1,0.3,2.3-0.1,2.9,0.3
			c0.6,0.4,2.4,2,2.4,2.8c0,0.5-0.6-0.3-1.7-0.9c-0.5-0.3-1.1-0.6-1.8-0.6c-0.6,0-1.9,0-2.4,0C816.9,173.6,816.5,173.6,816.1,173.5z
			 M810.3,173.8c0.9-0.2,1.4-0.3,1.5-0.6c0.1-0.3,0.3-0.9,0-1.1s-1-0.4-1-0.4s-0.3,0.5-0.5,1.2C810.3,173.1,810.3,173.4,810.3,173.8
			L810.3,173.8z"/>
		<path class="st45" d="M831.9,185.8c0.1,0.9,0.3,1.3,0.7,1.3l-1.1,0.2L831.9,185.8z M834.6,181.2c-0.2-0.1-0.4,0-0.6,0.2
			c-0.2,0.3,0,0.7-0.3,1.1c-0.4,0.4-0.9,1-0.5,1.3c0.3,0.2,0.5,0.2,0.7,0c0.1-0.1,0.2-0.3,0.3-0.5c0.5-0.6,1.3,0.3,2.1,0
			s1.5-1.6,1.1-2.2"/>
		<path class="st45" d="M835.7,178.9c0.7-1,1.4-1.5,2-1.4c0.9,0.2,1.6,1.5,1.4,2.3c-0.2,0.8-0.5,2.4-1.7,3.7
			c0.5-1.3,0.8-2.2,0.9-2.6c0.2-1,0.2-1.3,0.1-1.7c-0.1-0.4-0.4-0.7-0.6-0.8c-0.3-0.2-0.8-0.3-1,0c-0.3,0.5,0,0.8-0.5,1
			C835.9,179.5,835.7,179.3,835.7,178.9L835.7,178.9z"/>
		<path class="st41" d="M794,240.5c1.7-12.1,4.5-19.5,8.4-22.1s7.2-1.3,9.7,3.8v3.6h-5.9l-1.7-1.8l-4.9,15.5L794,240.5z"/>
		<path class="st52" d="M792.5,242.4c-0.3,4.9,1.2,7.6,4.8,8.2c0.8-1.1,1.6-2.3,2.5-3.6c1.3-1.9,2-3.3,2.7-3.3s4.3-1.7,5-2.7
			s3-2.4,4.4-2.4s2.4,0.4,2.4-2.5c1.1-1,1.3-2,0.8-3.2c0.9-1.3,0.9-2.3,0-3.2c0.6-1.7,0.4-2.8-0.4-3.3c-2.5-0.9-4.2-1.3-5.2-1.3
			c-1.4,0-3.4,0.3-5.3,1v-2.7c1.3-1.7,2-3,2-3.8c0-1.3-1.3-1.7-1.6-1.2c-0.3,0.4-1.8,2.2-2.9,3.2c-0.1,0.1-0.3,0.3-0.4,0.5
			c0,0.1-0.1,0.1-0.1,0.2c-0.1,0.2-0.1,0.4-0.2,0.5c-0.2,2.7-0.4,4.3-0.7,4.9c-0.4,1,0.2,4.6-0.4,6c-0.6,1.4-2.9,2.3-3.7,3.4
			C795.6,237.7,794.4,239.6,792.5,242.4L792.5,242.4z"/>
		<path class="st42" d="M792.5,242.4c0,1.3,0,2.2,0,2.8c0.1,0.5,1,1.4,2.4,0.5c1.1-0.6,2.3-1.6,3.4-3.1c0.4-0.6,1.1-1.4,1.6-1.7
			c0.9-0.5,1.4-0.5,2.3-1.2c1.1-0.8,2.9-2.1,3.5-3c1.9-2.6-0.4-2.5,0.3-4.9c0.4-1.6-0.7-2.2-0.9-3.2c-0.1-0.8-0.4-2-2.3-2
			c-1.4,0-1.1-1.9-0.8-3.2c0.1-0.5,0.1-0.9,0.2-1c0.2-0.2,0.4-0.4,0.5-0.5c2-2.3,2.9-3.5,2.6-3.6c-0.4-0.2-0.8-0.2-0.9,0.1
			c-0.3,0.4-1.4,1.7-2.4,2.7c-0.1,0.1-0.3,0.3-0.5,0.4c-0.4,0.3-0.7,0.8-0.7,1.3v0.1c-0.2,2.6-0.4,4.1-0.7,4.7c-0.4,1,0.2,4.6-0.4,6
			c-0.6,1.4-2.9,2.3-3.7,3.4C795.6,237.7,794.4,239.6,792.5,242.4L792.5,242.4z"/>
		<path class="st53" d="M804.1,226.1v-2.7c1.3-1.7,2-3,2-3.8c0-0.4-0.1-0.7-0.3-1c-0.1,0.5-0.1,0.8-0.2,1.1
			c-0.2,0.8-0.4,1.2-0.8,1.7c-0.6,1.1-1.6,1.1-1.8,1.5c-0.2,0.5,0.2,2.1-0.2,3.7C804,226.2,805,225.8,804.1,226.1L804.1,226.1z
			 M806.6,228.4c0.6-0.2,1.4-0.1,2,0.1s1.9,0.4,3.4,0.7l3.1,0.6l0.1-0.6c-0.9,0-1.6,0-2.2-0.2c-0.9-0.3-2.1-0.4-2.7-0.7
			c-0.6-0.3-1.5-1-2.4-1s-1.7,0.6-2.1,1C805.4,228.6,806,228.6,806.6,228.4L806.6,228.4z M807.4,231.8c-0.6,0.3-0.7,0.2-0.5-0.3
			c0.4-0.8,1.2-0.8,1.9-0.5s1.6,0.6,2.4,0.6c0.8,0,1.7,0,2.2,0.4c0.4,0.2,1,0.4,1.7,0.6v0.3c-1.2-0.4-1.9-0.6-2.2-0.6
			c-0.4,0-2.8-0.1-3.4-0.3C809,231.9,808.4,231.8,807.4,231.8L807.4,231.8z"/>
		<path class="st41" d="M806.8,241.9c0.3,2.1,0.3,3.9,0,5.4s-1.3,7.3-3,17.6c1,0.3,1.7,0.5,2.2,0.6s1.3,0.1,2.4,0.2l1.3-6.9
			c1.1-1.1,1.6-2.2,1.6-3.3c0-1.7,1.1-10.7,1.1-12.7v-4.2c-1-0.2-2,0-3.1,0.6C808.3,239.9,807.4,240.8,806.8,241.9L806.8,241.9z"/>
		<path class="st54" d="M807,243c0.2,1.7,0.1,3.1-0.1,4.3c-0.3,1.5-1.3,7.3-3,17.6c0.4,0.1,0.7,0.2,0.9,0.3l1.5-7.9
			c1.3,0.2,2-0.3,2-1.4c0-0.5,0.2-2,0.7-4.6c0.1-0.5-0.2-1-0.7-1.2l-0.6-0.2c0-0.9,0.6-4.9,0.6-6C808.1,242.8,807,242.8,807,243
			L807,243z"/>
		<path class="st55" d="M792.6,245.6c0.9,1.4,1.6,2.1,2.3,2.1c1,0,1.6-1.5,2.4-2.4c0.8-0.9,1.8-1,2.3-1.4c0.4-0.4,1.7-1.6,2.1-1.3
			c0.5,0.3,1.7,0.3,2.3,0s2.2-1.7,2.9-2.6c0-0.1,0.1-0.1,0.1-0.2c0.5-0.9,1.1-1.2,2.1-1.7c1-0.6,2.3-0.2,3.3-0.2
			c0.9,0,1.8-0.1,1.8-0.1s0,1.1-1.9,0.9c-0.7-0.1-1.4,0.1-2.1,0.5c-0.5,0.2-1.2,0.7-2.2,1.4c-0.3,0.3-0.5,0.6-0.6,0.7
			c-0.9,0.8-2.1,1.4-3.1,1.8c-0.7,0.3-1.2,0.5-1.8,0.6c-0.3,0.1-0.5,0.3-0.7,0.5c-0.3,0.4-0.6,0.8-0.9,1.4c-0.5,0.8-1.7,2.5-3.4,5.1
			c-1.8-0.4-2.9-1-3.4-1.9C793.3,247.9,792.9,246.8,792.6,245.6L792.6,245.6z"/>
		<path class="st53" d="M807,234.7c0.4-0.6,1-0.7,1.8-0.3c1.1,0.5,0.8,0.8,1.5,0.8h2c0.6,0,1.4,0.2,1.8,0.5c0.3,0.2,0.4,0.3,0.4,0.4
			c-0.2,0-0.6,0-1.2-0.2c-1-0.3-1.6-0.3-2.2-0.3c-0.6,0-1.1,0.2-1.4-0.2c-0.3-0.3-1.2-0.5-1.8-0.3C807.4,235.1,807.1,235,807,234.7
			L807,234.7z"/>
		<path class="st14" d="M792.3,242.4h-0.5l-4,4.3c-1.2-0.5-2.3-0.5-3.4,0c-1.7,0.8-2.5,3.3-3.4,4.5c-0.9,1.3-4.6,1.8-5.9,5.4
			c-1.3,3.6-1.4,7.9,0.4,11.8c1.6-0.2,2.8,0.1,3.7,1.1c1.3,1.4,2.1,3.5,4.1,2.4c1.9-1,3.7-0.4,5.2-0.4s4.9-4.2,5.3-4.9s5-9.9,5-10.6
			s-0.8-2.4-0.8-2.4l1.9-4.2l-0.9-1.5l-1.8,2.7c-1.9-0.5-3.2-1.4-4-2.7C792.5,246.8,792.2,244.9,792.3,242.4L792.3,242.4z"/>
		<path class="st56" d="M784.4,271.6c1.9-1,2.6,0,4.1,0s4.9-4.2,5.3-4.9c0.4-0.6,5-9.9,5-10.6s-0.8-2.4-0.8-2.4s-2.4,8.9-8,13.9
			C789.1,268.5,787.2,269.8,784.4,271.6L784.4,271.6z"/>
		<path class="st15" d="M775.1,257.1c-1.3,3.6-0.5,7.4,0.5,11.4c1.6-0.2,2.8,0.1,3.7,1.1C780.7,271,776.5,253.5,775.1,257.1z"/>
		<path class="st15" d="M792.3,242.4h-0.5l-4,4.3c0.2,2.2,0.8,3.7,1.7,4.4c4.4,4,5-1.3,3.8-3.1C792.5,246.8,792.2,244.9,792.3,242.4
			z"/>
		<path class="st15" d="M792.5,242.4h-0.6l-0.5,0.5c0,3,0.8,5.3,2.5,6.7c0.2,0.2,0-1.1-0.3-1.5C792.7,246.8,792.4,244.9,792.5,242.4
			L792.5,242.4z M782.2,249.2c-0.4,0.8-0.8,1.5-1.2,2.1c-0.3,0.4-0.8,0.7-1.3,1c-1.5,0.8-2.2,6.3-0.4,10.3c0.7,2.3,1.1,3.4,1.4,3.4
			c1.4,0,1-4.9,1-10.7C781.7,253.9,781.9,251.8,782.2,249.2L782.2,249.2z"/>
		<path class="st52" d="M856,278.6c-1.3-1.1-2.1-1.8-2.6-2.1c-0.7-0.4-3.9,0.6-4.4,0.9c-0.5,0.4-0.8,1.4-0.8,1.5s0.2,0.9,1.6,0.2
			C850.8,278.6,852.8,278.4,856,278.6L856,278.6z"/>
		<path class="st55" d="M853.2,277.7c-1-0.1-3.1,0.1-3.6,0.5s-1.3,1.1-1.1,1.2s0.6,0.1,1.3-0.2c0.9-0.4,2.3-0.6,5.1-0.5
			C854.5,278,853.9,277.7,853.2,277.7L853.2,277.7z"/>
		<path class="st52" d="M857.2,278.6c-2.4-0.2-4-0.2-4.8-0.2c-1.3,0-1.6,0-2.3,0.5s-5.2,4.2-5.6,5c-0.3,0.7,0.9,1.8,1.8,1.3
			c0.9-0.5,4.7-3.2,5.1-3.5c0.4-0.3,1.5-0.9,2.1-0.4c-0.2,0.1-0.4,0.3-0.7,0.5c-0.5,0.2-3.6,2.7-4,3c-0.4,0.2-2,1.1-1.6,2
			c0.4,0.8,1.2,1.2,2,0.7c0.9-0.5,4.1-2.6,4.8-2.9c0.7-0.4,1.5-0.5,2.4-0.3c0.9,0.3,0,0.5-1.1,0.8s-2,0.6-2.9,0.9
			c-1,0.3-1.4,1.4-0.7,1.8s4.1-0.3,5.2,0c1.1,0.3,3.4,0.8,5.6-0.5c0.9-0.9,1.4-1.7,1.5-2.2c0.1-0.6-0.3-1.5-1-2.5s-2.4-2.4-4-3.1
			C858.1,279,857.6,278.7,857.2,278.6L857.2,278.6z"/>
		<path class="st55" d="M854,287.7c1.1-0.1,2.3-0.2,2.9,0c1.1,0.3,3.4,0.8,5.6-0.5c0.9-0.9,1.4-1.7,1.5-2.2
			c-0.7,0.6-1.6,1.2-2.6,1.6c-0.6,0.3-1.4,0.7-2.1,0.8c-0.9,0-1.3-0.1-2.1-0.2C855.7,287,852.9,287.8,854,287.7L854,287.7z"/>
		<path class="st41" d="M774.6,418.9h-0.4l-2.5,14.4l5.2,0.9l2.7-13.6l-0.5-0.5L774.6,418.9z"/>
		<path class="st57" d="M852.3,278.4c-1.3,0-1.6,0-2.3,0.5c-0.5,0.4-3.3,2.7-4.7,4c0.3,0,0.6,0.1,0.8,0.3c0.5-0.3,0.8-0.6,1-0.8
			c1.6-1.4,2.4-2.2,2.6-2.3C850.1,279.8,853.6,278.4,852.3,278.4L852.3,278.4z"/>
		<path class="st58" d="M803.8,264.8l-29.1,154c0.2,1.7,1.7,2.2,4.2,1.7l29.8-155c-0.8,0.1-1.7,0.1-2.5,0
			C805.4,265.4,804.6,265.2,803.8,264.8L803.8,264.8z"/>
		<path class="st15" d="M809.7,258.7c0.6,5.2,1.6,8.8,3.1,10.8c2.2,2.9,5.2,13.5,5.2,13.5v4.1c-1.8-6.7-3.5-10.8-5.2-12.1
			c-1.7-1.4-3.2-4.4-4.4-9L809.7,258.7z"/>
		<path class="st59" d="M777.6,420.7c0.4,0,0.8-0.1,1.3-0.2l29.8-155c-0.7,0.1-1.2,0.1-1.6,0.1L777.6,420.7L777.6,420.7z"/>
		<path class="st60" d="M750,450.7v1.5c0.9,0.1,1.7,0.2,2.3,0.3c0.4,0,0.9,0,1.4,0c1.7,0.1,1.8,0.2,3,0.2c0.3,0,0.6-0.3,1-0.2
			c2.2,0.2,2.3,0.5,4.4,0.6c1.7,0.1,2.2,0.2,3.3,0.2c0.3,0,0.7-0.2,1.1-0.2c2,0.2,1.7,0.5,3.9,0.6c1.8,0.1,2.1,0.2,3.5,0.3
			c0.3,0,0.7-0.3,1.1-0.3c2.3,0.2,2.4,0.5,4.5,0.7c1.7,0.1,2,0.2,3.2,0.2c0.3,0,0.6-0.2,1-0.2c2.1,0.2,2.9,0.5,4.3,0.6
			c0.2,0,0.5,0,0.8,0c0.6,0,1.6,0.1,3.1,0.2l2-2.3v-1.6L750,450.7L750,450.7z"/>
		<path class="st41" d="M749.5,446.7v2.9c0,0.6,0.4,1,1,1.1c26.5,1.9,40.1,2.9,40.9,2.9c1.2,0,2.8-2.9,2.8-3.5
			c0-0.4-0.3-1.5-0.8-3.3h-43.9V446.7z"/>
		<path class="st61" d="M761.5,443.3h-8.8c-2.6,2.1-3.6,3.4-3,4c1,0.9,40.4,3.2,41.2,3.2s2.3-3.4,2.3-3.9c0-0.4-2.7-0.8-8.1-1.2
			L761.5,443.3L761.5,443.3z"/>
		<path class="st41" d="M789.8,338.8c-0.1,0-0.2-0.2-0.2-0.3l0.8-4.9c0-0.1,0.2-0.2,0.3-0.2h0.1c0.1,0,0.1,0.1,0.2,0.1
			c0.7,0.4,1.6,0.6,2.5,0.7c0.5,0,1.3,0,2.4-0.1c0.1,0,0.3,0.1,0.3,0.2v0.1l-1.2,5.1c0,0.1-0.1,0.2-0.3,0.2
			c-0.9-0.1-1.7-0.1-2.3-0.3C792,339.4,791.1,339.2,789.8,338.8L789.8,338.8z M794.8,338.2c0.1,0,0.1,0,0.1-0.1l0.5-2
			c-0.8,0.1-1.5,0.1-2.5,0c-0.5-0.1-1.2-0.2-2.1-0.5c-0.1,0-0.1,0-0.2,0.1l0,0l-0.3,1.7c0.4,0.3,1.1,0.5,2.1,0.6
			C792.9,338.1,793.7,338.1,794.8,338.2L794.8,338.2z M761.2,447.1c-0.4-2.5-0.1-4.2,0.9-5h7.5c-0.2-1.3-0.1-2.3,0.3-3
			c0.7-1.1,5.5-1.2,7,0.5c1,1.1,1.3,2.2,0.9,3.2c4.3,0.2,6.6,0.5,7.1,1c0.4,0.5,0.6,1.1,0.4,1.6l-2.2,2.9L761.2,447.1L761.2,447.1z"
			/>
		<path class="st62" d="M784.8,443.7c0.4,0.5,0.6,1.1,0.4,1.6l-2.2,2.9c0,0-0.4,0.4-0.8,0C781.6,447.5,784.2,442.9,784.8,443.7
			L784.8,443.7z"/>
		<path class="st30" d="M769.1,442.1c-0.1-1.5-0.1-2.7,0-3.5c0.2-2.1,0.9-4.1,1.3-4.5c0.8-0.9,2.5-0.5,4.3-0.3
			c1.4,0.2,2.4,0.3,3,0.7c1,0.8,1.7,2.8,1.8,5.2c0,0.9,0.1,1.9-0.1,3h-1.7c0.1-2.5-0.9-3.9-2.8-4.2c-2.9-0.5-5.2,0.2-5.2,1.2v2.3
			L769.1,442.1L769.1,442.1z"/>
		<path class="st63" d="M777.7,434.5c1,0.8,1.7,2.8,1.8,5.2c0,0.9,0.1,1.9-0.1,3h-1.7c0.1-1,0.1-1.7,0-2.1c-0.3-1.2-1.3-2-1.4-2.5
			c-0.4-2.4,0-3.3,0-3.8C776.4,433.8,777.6,434.4,777.7,434.5L777.7,434.5z"/>
		<path class="st15" d="M853.1,220c2.9,10.2,4.7,16.3,5.6,18.4c0.8,2.1,1.8,5.6,3,10.6l-1.7-12.5c-1.7-6-2.1-9.8-1.3-11.3
			c-1.4,2.2-2.2,2.9-2.2,2.2C856.5,226.6,855.4,224.2,853.1,220L853.1,220z M804.1,291.7h9.4c5,0,14.3-3.6,16.8-5.2
			s22.5-13.8,24.4-16.9c1.9-3.2,4.2-13.9,4.2-13.9s0.2-1.5,1.9-3.3c-3.4,1.8-5.9,5-7.5,9.9c-2.5,7.3-18.9,19.2-21,19.2
			s-9.5,8.5-18.9,8.5C807.2,290,804.1,290.6,804.1,291.7z"/>
		<path class="st15" d="M781.7,234.7l9.8-20.2l2.1-5.9c-1.1,0.8-1.8,1.5-2.1,1.9c-2.4,3.4-3.6,6.3-4.3,7.9c-0.6,1.4-2.3,4.6-3.9,9.4
			C782.9,229.2,782.3,231.5,781.7,234.7L781.7,234.7z"/>
		<path class="st15" d="M863.9,252.4c4.3-1.1,7.1-2,8.3-2.8c1.9-1.2,8.9-3.4,10.3-3.4s4.6-1.8,4.6-0.6s-3.3,3-4.6,3
			s-9.1,2.9-10.3,4.6s-2.5,5.3-3.6,5.3c-0.4,0-1.2-0.6-2.1-1.9c-0.3-0.4-0.7-1.4-1.3-2.4C865,253.8,864.6,253.2,863.9,252.4
			L863.9,252.4z M866.4,264.5c1.9-1.1,3-1.6,3.4-1.6l0.5-1c0,0-2.3,1.2-2.3,1v-0.8l2.3-1.1v-0.6c-1.7,0.5-2.6,0.9-2.8,1.2
			C867.3,262,866.9,263,866.4,264.5L866.4,264.5z M859.1,276.2l1.7-1.9c-1-1.5-1.5-2.3-1.5-2.5c0-0.1-0.1,0.6-0.2,2.2
			C859.1,274.4,859.1,275.1,859.1,276.2L859.1,276.2z M812.1,202.2c0.7,4.1,2.6,6.7,6,7.7c5,1.5,14.1,2.7,16.1,1.8
			c2-0.9,6.2-3.2,6.2-5.2c0.1,1.4-0.6,2.6-2,3.4c-2.1,1.3-4.1,2.5-5.8,2.7c-1.6,0.2-12.9-1.3-15.1-2.1c-0.8-0.3-2.8-1.6-4-3
			c-1.4-1.7-1.8-3.4-1.9-4c-0.1-0.3-0.1-0.7-0.1-1L812.1,202.2L812.1,202.2z"/>
		<path class="st64" d="M803.2,311.7c4-2.3,6.2-3.8,6.6-4.3c0.7-0.8,2.9-4,2.5-6.2c0.5-0.4,0.9-0.6,1.3-0.6c0.4,0,0.6-0.6,0.6-1.8
			v2.4c2.6,0.4,4.6,0.5,6.1,0.5c2.2,0,5.4-0.5,5.8-0.5l-5,1l-6.9-0.4l-0.6,1.7c-0.7,2.7-1.6,4.3-2.8,5.1c-1.8,1.1-7.6,4.2-7.6,4.7
			L803.2,311.7L803.2,311.7z"/>
		<path class="st64" d="M803.6,310.9c-0.9-3.1-1.1-4.9-0.7-5.5c0.7-0.9,6.3-1.9,6.7-1.9c0.3,0,0.3,0.9,0,2.7l1-2.7l-0.3-0.4
			c-1.7,0.3-3,0.5-4,0.7s-2.2,0.6-3.8,1.2c-0.2,0.6-0.2,1.5,0,2.6C802.7,308.7,803.1,309.8,803.6,310.9z"/>
	</g>
</g>
<g>
	<path class="st15" d="M837,233.8c0.4-0.9,1.3-1.6,2.3-1.5c0.3,0,0.6,0,0.9,0.1v-0.1c0-1.1-0.9-2-1.9-2s-1.9,0.9-1.9,2
		C836.4,232.9,836.7,233.4,837,233.8L837,233.8z"/>
	<path class="st15" d="M837.2,235.4c-0.1-0.3-0.3-0.6-0.3-0.9l0,0c0-0.1,0-0.4,0.1-0.5c-0.5-0.4-0.8-1.1-0.8-1.8v-0.1
		c-1,0-1.9,0.8-1.9,1.8s0.9,1.8,1.9,1.8C836.5,235.7,836.9,235.5,837.2,235.4L837.2,235.4z"/>
	<path class="st65" d="M828.3,235.4c0.1,0,4,1.6,4,1.6l0,0l0,0l-4-2l0,0l0,0l0,0l0,0l-4.2,2l0.3,0.4L828.3,235.4L828.3,235.4z"/>
	<path class="st65" d="M821.8,234L821.8,234L821.8,234l7.3-1l-4.5-1c0,0-1.8,1.3-1.9,1.4l0,0l0,0c0.1,0,1.9-1,1.9-1l3.4,0.8
		l-5.7,0.6C822.6,233.5,821.9,234,821.8,234L821.8,234z"/>
	<path class="st65" d="M834.4,232.9c0.1-0.1,0.3-0.3,0.3-0.3l-11.1,1.6l0,0l0,0L834.4,232.9L834.4,232.9z"/>
	<path class="st15" d="M837.4,235.4c0-0.1,0.1-0.1,0.1-0.3c0.3-0.4,0.6-0.6,1-1l0.1-0.1l-0.9,1.3c0,0.1-0.1,0.1-0.1,0.3l0,0
		c0,0,0,0.1,0.1,0.1l0,0c0.4,0.5,1,0.8,1.8,0.8c1.3,0,2.3-0.9,2.3-2s-1-2-2.3-2s-2.3,0.9-2.3,2C837.2,234.8,837.2,235.2,837.4,235.4
		L837.4,235.4z"/>
	<path class="st15" d="M824.2,227.7l0.6,0.6c4.4-3.4,10.8-3.1,15.2,0.5c1.5,1.4,2.8,3.1,3.6,5c0.1,0.3,0.8,1.8,1,2.8
		c0.1,0.6,0.4,1.4,0.4,2c0.1,1,0.1,1.4,0.3,2.4c0,0,0,0,0,0.1l0,0l0,0c0-0.1,0-0.4,0-0.4c0-0.8,0-2.1-0.1-2.9
		c-0.3-2.1-0.9-3.5-1.1-4.3c-0.9-2.1-2.3-4-3.9-5.5l0,0C835.5,224.2,829,224.1,824.2,227.7L824.2,227.7z"/>
	<path class="st65" d="M818.8,243.2c-0.1,0-0.3-0.1-0.4-0.1c-0.1,0-0.3,0-0.5,0c-0.4,0-0.6,0.1-0.9,0.3c-0.3,0.1-0.5,0.4-0.6,0.5
		c-0.1,0.1-0.3,0.5-0.3,0.9c0,0.5,0.1,0.9,0.5,1.1c0.4,0.3,0.8,0.4,1.3,0.5c0.3,0,0.5,0,0.6,0c0.1,0,0.3,0,0.4-0.1v-1.6h-1.1v0.4
		h0.6v1h-0.1c-0.1,0-0.1,0-0.4,0s-0.4,0-0.6-0.1c-0.3-0.1-0.4-0.3-0.4-0.4s-0.1-0.4-0.1-0.6c0-0.4,0.1-0.6,0.4-0.9
		c0.3-0.3,0.5-0.4,0.9-0.4c0.3,0,0.4,0,0.5,0s0.3,0.1,0.4,0.1L818.8,243.2L818.8,243.2z M826.2,246.2h0.5v-2.8h1v-0.4h-2.4v0.4h1
		v2.8H826.2z M828.1,246.2h1.8v-0.4h-1.3v-1h1.1v-0.4h-1.1v-0.9h1.3v-0.4h-1.8V246.2L828.1,246.2z M842.3,243.5v1.4
		c0,0.3,0,0.5-0.1,0.8c-0.1,0.1-0.4,0.3-0.6,0.3s-0.5-0.1-0.6-0.3c-0.1-0.1-0.1-0.4-0.1-0.8v-1.8h-0.5v1.9c0,0.5,0.1,0.8,0.4,1
		c0.3,0.3,0.5,0.4,0.9,0.4s0.6-0.1,0.9-0.4c0.3-0.3,0.4-0.5,0.4-1v-1.5l0,0v-0.4h-0.9v0.4H842.3L842.3,243.5z M845.2,243.1
		c-0.1,0-0.3-0.1-0.4-0.1c-0.1,0-0.3,0-0.4,0c-0.3,0-0.5,0.1-0.8,0.3c-0.1,0.1-0.3,0.4-0.3,0.6s0.1,0.4,0.3,0.5
		c0.1,0.1,0.3,0.3,0.5,0.3c0.1,0.1,0.4,0.1,0.5,0.3c0.1,0.1,0.3,0.3,0.3,0.4c0,0.1,0,0.3-0.1,0.3c-0.1,0-0.1,0.1-0.3,0.1
		c-0.1,0-0.1,0-0.3,0s-0.3,0-0.4,0c-0.1,0-0.3-0.1-0.3-0.1v0.4c0.1,0,0.3,0.1,0.4,0.1c0.1,0,0.3,0,0.4,0c0.3,0,0.4,0,0.6-0.1
		c0.3-0.1,0.3-0.1,0.4-0.3c0.1-0.1,0.1-0.4,0.1-0.5c0-0.3-0.1-0.5-0.3-0.6c-0.1-0.1-0.3-0.3-0.5-0.4c-0.1-0.1-0.4-0.1-0.5-0.3
		c-0.1-0.1-0.3-0.3-0.3-0.4c0-0.1,0.1-0.3,0.1-0.4c0.1,0,0.3-0.1,0.4-0.1c0.1,0,0.3,0,0.3,0c0.1,0,0.1,0,0.3,0.1L845.2,243.1
		L845.2,243.1z M836.7,243.1L836.7,243.1h-0.9v0.4h0.4v0.9h-1.5v-1.3h-0.5v3.1h0.5v-1.4h1.5v1.4h0.5L836.7,243.1L836.7,243.1
		L836.7,243.1z M832.8,243.5v1.8l0,0l0,0l-2-2.4v3.4h0.5v-2.1l0,0l1,1.3l0.8,1l0.1,0.3v-0.3v-3l0,0l0,0h-0.9v0.4h0.5V243.5z
		 M836.9,246.2h0.5l0.4-0.8h1.5l0.4,0.8h0.5l-1.5-3.4L836.9,246.2L836.9,246.2L836.9,246.2z M839.2,245.1h-1.3l0.6-1.4L839.2,245.1
		L839.2,245.1z M822.8,243.5v2.8h0.5V245l0,0h0.5l0,0l0.8,1.3h0.5l-0.8-1.4l0,0c0.1-0.1,0.4-0.1,0.5-0.4c0.1-0.4,0.1-0.8,0-1.1
		c-0.3-0.4-0.5-0.4-1-0.4l0,0c-0.1,0-0.1,0-0.3,0h-0.4l0,0h-0.9v0.4h0.5V243.5z M823.2,243.5h0.5h0.1c0.4,0,0.5,0.1,0.5,0.5
		c0,0.5-0.4,0.5-0.8,0.5l0,0h-0.4L823.2,243.5L823.2,243.5z M819.3,246.2h0.5l0.4-0.8h1.5l0.4,0.8h0.5l-1.5-3.4L819.3,246.2
		L819.3,246.2L819.3,246.2z M821.4,245.1h-1.3l0.6-1.4L821.4,245.1L821.4,245.1z"/>
	<path class="st65" d="M829.1,225.2c0.1,0,0.5-0.1,0.6-0.1l0,0l0,0c-0.1,0-0.5,0-0.5,0c-5.4,0.5-9.3,3.8-11.5,8.6
		c-0.9,1.9-1.3,3.9-1.4,6c0,0.6,0,1.3,0,1.9v0.1v0.1h0.9V241c0.1-2.6,0.5-5.2,1.6-7.6C820,231.1,822.2,226.9,829.1,225.2
		L829.1,225.2z"/>
	<path class="st65" d="M821.9,241.1c-1.9,0-1.8,0,0.3,0v-6.8h-0.1h-0.3v6.8H821.9z"/>
	<path class="st65" d="M825.7,241.2c-2.1,0-2,0,0.3,0v-4h4.9v4.2c-0.5,0-0.4,0,0.3,0v-4.4h-5.4L825.7,241.2L825.7,241.2z"/>
	<path class="st65" d="M834.9,241.5c0.1,0,0.3,0,0.3,0v-5.9c-0.1,0-0.3-0.1-0.3-0.1V241.5L834.9,241.5z"/>
	<path class="st65" d="M836.3,241.5c0.1,0,0.3,0,0.4,0c-0.1-0.1-0.1-0.4-0.3-0.5c-0.3-0.6-0.4-1.3-0.3-2c0.3-1.3,0.6-2.3,1.4-3.3
		c0,0,0,0,0-0.1l0,0l0,0l0,0c-0.4,0.5-0.6,0.9-0.9,1.4l-0.1,0.4v-0.1l0,0c0.1-0.4,0.3-0.8,0.4-1.1l0,0c0-0.1,0.1-0.4,0.3-0.4l0,0
		v-0.1c0,0,0,0-0.1,0l0,0l0,0c0,0,0,0.1-0.1,0.1c-0.3,0.5-0.4,0.9-0.5,1.4c-0.1,0.5-0.4,1-0.5,1.6c-0.1,0.5-0.1,1.1,0,1.6
		c0,0.1,0,0.3,0.1,0.4C836.1,241.1,836.3,241.3,836.3,241.5L836.3,241.5z"/>
	<path class="st15" d="M824.7,228.5l-0.6-0.6c-0.4,0.3-0.6,0.5-1,0.9l0,0c-3.3,3.3-5,7.8-5,12.3l0,0l0,0l0,0c0,0.1,0,0.3,0,0.4v0.4
		H844h1.3l0,0l0,0l0,0l0,0c-1.4-0.1-2.6-0.1-3.8-0.1c-3.5-0.1-5.3-0.1-8.7-0.3c-5.9-0.1-13.8-0.4-13.8-0.4c0.1-4.4,1.6-8.7,4.8-11.8
		C824.1,229,824.3,228.6,824.7,228.5L824.7,228.5z"/>
</g>
</svg>
