<?xml version="1.0" encoding="utf-8"?>
<!-- Generator: Adobe Illustrator 19.0.0, SVG Export Plug-In . SVG Version: 6.00 Build 0)  -->
<svg version="1.1" id="Layer_1" xmlns="http://www.w3.org/2000/svg" xmlns:xlink="http://www.w3.org/1999/xlink" x="0px" y="0px"
	 viewBox="-231 238.4 90.5 95.6" style="enable-background:new -231 238.4 90.5 95.6;" xml:space="preserve">
<style type="text/css">
	.st0{fill:none;stroke:#383838;stroke-width:2;stroke-linecap:round;}
	.st1{fill:none;stroke:#CACACA;stroke-width:2;stroke-linecap:round;stroke-linejoin:round;}
	.st2{fill:none;stroke:#383838;stroke-width:2;}
	.st3{fill:#CFE8FD;}
	.st4{fill:none;stroke:#0F9C47;stroke-width:2;}
	.st5{fill:none;stroke:#0F9C47;stroke-width:2;stroke-linecap:round;stroke-linejoin:round;}
</style>
<title>Group</title>
<desc>Created with Sketch.</desc>
<g id="Page-1">
	<g id="Group" transform="translate(0.000000, 5.000000)">
		<g id="Group-10" transform="translate(113.000000, 79.279221)">
			<path id="Rectangle-12" class="st0" d="M-314.7,170.2h27.5 M-283.5,170.2h5.8c3.8,0,7,3.1,7,6.9c0,11.1,0,19.4,0,25 M-295.8,229
				c-7.4,0-18.5,0-33.2,0c-3.8,0-7-3.1-7-6.9v-45c0-3.8,3.1-6.9,7-6.9h10.4"/>
			<path id="Shape-Copy-8" class="st1" d="M-303.5,147.9h5.8"/>
			<path id="Shape-Copy-7" class="st1" d="M-300.6,145v5.7"/>
			<path id="Shape-Copy-10" class="st1" d="M-329.5,159.9h5.8"/>
			<path id="Shape-Copy-9" class="st1" d="M-326.6,157v5.7"/>
			<path id="Shape-Copy-12" class="st1" d="M-262.5,198.9h5.8"/>
			<path id="Shape-Copy-11" class="st1" d="M-259.6,196v5.7"/>
			<path id="Path-183" class="st0" d="M-318.6,174.5v-8.6"/>
			<path id="Path-183-Copy" class="st0" d="M-287.2,174.5v-8.6"/>
			<path id="Path-184" class="st2" d="M-336,184.9h66.2"/>
			<g id="Group-9" transform="translate(10.451613, 45.977802)">
				<path id="Path-Copy-18" class="st3" d="M-326.1,152.9c0,0.9-0.7,1.6-1.6,1.6h-4.5c-0.9,0-1.6-0.7-1.6-1.6v-4.5
					c0-0.9,0.7-1.6,1.6-1.6h4.5c0.9,0,1.6,0.7,1.6,1.6V152.9z"/>
				<path id="Path-Copy-17" class="st3" d="M-313.9,148.4c0-0.9-0.7-1.6-1.6-1.6h-4.5c-0.9,0-1.6,0.7-1.6,1.6v4.5
					c0,0.9,0.7,1.6,1.6,1.6h4.5c0.9,0,1.6-0.7,1.6-1.6V148.4z"/>
				<path id="Path-Copy-16" class="st3" d="M-301.7,148.4c0-0.9-0.7-1.6-1.6-1.6h-4.5c-0.9,0-1.6,0.7-1.6,1.6v4.5
					c0,0.9,0.7,1.6,1.6,1.6h4.5c0.9,0,1.6-0.7,1.6-1.6V148.4z"/>
				<path id="Path-Copy-15" class="st3" d="M-313.9,159.6c0-0.9-0.7-1.6-1.6-1.6h-4.5c-0.9,0-1.6,0.7-1.6,1.6v4.5
					c0,0.9,0.7,1.6,1.6,1.6h4.5c0.9,0,1.6-0.7,1.6-1.6V159.6z"/>
				<path id="Path-Copy-14" class="st3" d="M-301.7,159.6c0-0.9-0.7-1.6-1.6-1.6h-4.5c-0.9,0-1.6,0.7-1.6,1.6v4.5
					c0,0.9,0.7,1.6,1.6,1.6h4.5c0.9,0,1.6-0.7,1.6-1.6V159.6z"/>
				<path id="Path-Copy-13" class="st3" d="M-289.5,164.1v-4.5c0-0.9-0.7-1.6-1.6-1.6h-4.5c-0.9,0-1.6,0.7-1.6,1.6v4.5
					c0,0.9,0.7,1.6,1.6,1.6h4.5C-290.3,165.8-289.5,165-289.5,164.1z"/>
				<path id="Path-Copy-12" class="st3" d="M-327.6,158.1h-4.5c-0.9,0-1.6,0.7-1.6,1.6v4.5c0,0.9,0.7,1.6,1.6,1.6h4.5
					c0.9,0,1.6-0.7,1.6-1.6v-4.5C-326.1,158.8-326.8,158.1-327.6,158.1z"/>
				<path id="Path-Copy-11" class="st3" d="M-303.3,170.2h-4.5c-0.9,0-1.6,0.7-1.6,1.6v4.5c0,0.9,0.7,1.6,1.6,1.6h4.5
					c0.9,0,1.6-0.7,1.6-1.6v-4.5C-301.7,170.9-302.4,170.2-303.3,170.2z"/>
				<path id="Path-Copy-10" class="st3" d="M-315.4,170.2h-4.5c-0.9,0-1.6,0.7-1.6,1.6v4.5c0,0.9,0.7,1.6,1.6,1.6h4.5
					c0.9,0,1.6-0.7,1.6-1.6v-4.5C-313.9,170.9-314.6,170.2-315.4,170.2z"/>
				<path id="Path-Copy-9" class="st4" d="M-327.8,151.1c0,0.9-0.7,1.6-1.6,1.6h-4.5c-0.9,0-1.6-0.7-1.6-1.6v-4.5
					c0-0.9,0.7-1.6,1.6-1.6h4.5c0.9,0,1.6,0.7,1.6,1.6V151.1z"/>
				<path id="Path-Copy-8" class="st4" d="M-315.6,146.6c0-0.9-0.7-1.6-1.6-1.6h-4.5c-0.9,0-1.6,0.7-1.6,1.6v4.5
					c0,0.9,0.7,1.6,1.6,1.6h4.5c0.9,0,1.6-0.7,1.6-1.6V146.6z"/>
				<path id="Path-Copy-7" class="st4" d="M-303.4,146.6c0-0.9-0.7-1.6-1.6-1.6h-4.5c-0.9,0-1.6,0.7-1.6,1.6v4.5
					c0,0.9,0.7,1.6,1.6,1.6h4.5c0.9,0,1.6-0.7,1.6-1.6V146.6z"/>
				<path id="Path-Copy-6" class="st4" d="M-315.6,157.9c0-0.9-0.7-1.6-1.6-1.6h-4.5c-0.9,0-1.6,0.7-1.6,1.6v4.5
					c0,0.9,0.7,1.6,1.6,1.6h4.5c0.9,0,1.6-0.7,1.6-1.6V157.9z"/>
				<path id="Path-Copy-5" class="st4" d="M-303.4,157.9c0-0.9-0.7-1.6-1.6-1.6h-4.5c-0.9,0-1.6,0.7-1.6,1.6v4.5
					c0,0.9,0.7,1.6,1.6,1.6h4.5c0.9,0,1.6-0.7,1.6-1.6V157.9z"/>
				<path id="Path-Copy-4" class="st4" d="M-291.2,162.4v-4.5c0-0.9-0.7-1.6-1.6-1.6h-4.5c-0.9,0-1.6,0.7-1.6,1.6v4.5
					c0,0.9,0.7,1.6,1.6,1.6h4.5C-292,164-291.2,163.2-291.2,162.4z"/>
				<path id="Path-Copy-3" class="st4" d="M-329.4,156.3h-4.5c-0.9,0-1.6,0.7-1.6,1.6v4.5c0,0.9,0.7,1.6,1.6,1.6h4.5
					c0.9,0,1.6-0.7,1.6-1.6v-4.5C-327.8,157.1-328.5,156.3-329.4,156.3z"/>
				<path id="Path-Copy-2" class="st4" d="M-305,168.4h-4.5c-0.9,0-1.6,0.7-1.6,1.6v4.5c0,0.9,0.7,1.6,1.6,1.6h4.5
					c0.9,0,1.6-0.7,1.6-1.6V170C-303.4,169.1-304.1,168.4-305,168.4z"/>
				<path id="Path-Copy" class="st4" d="M-317.2,168.4h-4.5c-0.9,0-1.6,0.7-1.6,1.6v4.5c0,0.9,0.7,1.6,1.6,1.6h4.5
					c0.9,0,1.6-0.7,1.6-1.6V170C-315.6,169.1-316.3,168.4-317.2,168.4z"/>
			</g>
			<ellipse id="Oval-4-Copy" class="st3" cx="-270.1" cy="226" rx="16.1" ry="16"/>
			<ellipse id="Oval-4" class="st4" cx="-272.9" cy="224.3" rx="16.1" ry="16"/>
			<polyline id="Path-185" class="st5" points="-276.2,224.1 -273.5,227.7 -266.5,221.5 			"/>
		</g>
	</g>
</g>
</svg>
