<?xml version="1.0" encoding="utf-8"?>
<!-- Generator: Adobe Illustrator 19.0.0, SVG Export Plug-In . SVG Version: 6.00 Build 0)  -->
<svg version="1.1" id="Capa_1" xmlns="http://www.w3.org/2000/svg" xmlns:xlink="http://www.w3.org/1999/xlink" x="0px" y="0px"
	 viewBox="-158 90 373 373" style="enable-background:new -158 90 373 373;" xml:space="preserve">
<style type="text/css">
	.st0{fill:#0F9C47;}
</style>
<path class="st0" d="M197.8,190.8c-2.3-22.6-11-42.7-27.8-58.7c-17.7-16.9-39.4-24.4-63.1-25.6c-40.4-2.2-136.5-3.6-170.2,1.9
	c-38.5,6.3-63.8,28.8-74.5,66.8c-8.2,29.3-6.6,164.2-1.8,193.2c6.5,39.6,29.9,65,69.1,75.1c27.1,7,160.6,6.1,190.5,1.3
	c39.6-6.4,65.1-29.7,75.4-68.8C203.3,345.8,200.5,217.9,197.8,190.8z M166.1,362.8c-4.6,30.1-24.6,48.7-54.8,52
	c-27.8,3-151.7,4.7-177.5-2.5c-24.6-6.9-38.7-23.8-42.8-48.6c-3.9-23.7-4.9-142-0.1-173.7c4.5-29.8,24.5-48.4,54.5-51.8
	c30.5-3.4,140.2-3.8,169.4,0.7c30,4.6,48.6,24.6,51.9,54.9C169.9,222,170.8,332.4,166.1,362.8z M28.5,188.3
	c-48.7,0-88.3,39.5-88.3,88.2c0,48.7,39.5,88.3,88.2,88.3c48.7,0,88.3-39.5,88.3-88.2C116.7,227.8,77.3,188.3,28.5,188.3z
	 M27.9,333.5c-31.5-0.3-56.8-26.1-56.5-57.6c0.3-31.5,26.1-56.8,57.6-56.5c31.5,0.3,56.8,26.1,56.5,57.6
	C85.2,308.5,59.4,333.8,27.9,333.5z M140.9,185c0,11.4-9.3,20.6-20.7,20.6c-11.4,0-20.6-9.3-20.6-20.7c0-11.4,9.3-20.6,20.7-20.6
	C131.7,164.3,140.9,173.5,140.9,185z"/>
</svg>
