<?xml version="1.0" encoding="utf-8"?>
<!-- Generator: Adobe Illustrator 19.0.0, SVG Export Plug-In . SVG Version: 6.00 Build 0)  -->
<svg version="1.1" id="Layer_1" xmlns="http://www.w3.org/2000/svg" xmlns:xlink="http://www.w3.org/1999/xlink" x="0px" y="0px"
	 viewBox="205 -142.4 665.1 541.4" style="enable-background:new 205 -142.4 665.1 541.4;" xml:space="preserve">
<style type="text/css">
	.st0{opacity:0.178;fill:#C4CFCF;enable-background:new    ;}
	.st1{fill:#F6F6F6;}
	.st2{fill:#F2F0F0;}
	.st3{fill:url(#SVGID_1_);}
	.st4{fill:#3A5971;}
	.st5{fill:#304D63;}
	.st6{fill:#254054;}
	.st7{fill:#9D9A91;}
	.st8{fill:#716F67;}
	.st9{fill:#504F4D;}
	.st10{fill:#FFFFFF;}
	.st11{fill:#E0E0E0;}
	.st12{fill:#EDB79F;}
	.st13{opacity:0.5;fill:#D5987C;enable-background:new    ;}
	.st14{fill:#0F9C47;}
	.st15{fill:#0B8738;}
	.st16{fill:#4F3737;}
	.st17{fill:#685353;}
	.st18{fill:#3F2727;}
	.st19{fill:#C6C6C6;}
	.st20{fill:#DFDEDE;}
	.st21{fill:#D5987C;}
	.st22{fill:#868686;}
	.st23{fill:#D9D9D9;}
	.st24{fill:#9DA0A3;}
	.st25{fill:#2F2F2F;}
	.st26{fill:#DCDCDC;}
	.st27{fill:#2C2A2B;}
	.st28{fill:#EAE7E7;}
	.st29{fill:#D2D1D6;}
	.st30{fill:#D8D8D8;}
	.st31{fill:#D5E6FD;}
	.st32{fill:#C0D5F2;}
	.st33{fill:#A4BCDC;}
	.st34{fill:none;stroke:#FFFFFF;stroke-width:2.34;stroke-linecap:round;}
	.st35{fill:#C0C0C0;}
	.st36{fill:none;stroke:#979797;stroke-width:1.178;stroke-linecap:round;}
	.st37{fill:#151D27;}
	.st38{fill:#07090D;}
	.st39{fill:#191E28;}
	.st40{fill:#15191E;}
	.st41{fill:#061D2C;}
	.st42{fill:#F9C5B4;}
	.st43{fill:#FFDFD4;}
	.st44{fill:#4B4B4B;}
	.st45{fill:#EFAC96;}
	.st46{opacity:0.771;}
	.st47{opacity:0.375;fill:none;stroke:url(#SVGID_2_);stroke-width:0.5;enable-background:new    ;}
	.st48{fill:none;stroke:#153A65;stroke-width:0.844;}
	.st49{fill:#2A150F;}
	.st50{fill:#0A1420;}
	.st51{fill:#F3B7A3;}
	.st52{fill:#DB967E;}
	.st53{fill:#0E2A3C;}
	.st54{fill:#E69F87;}
	.st55{opacity:0.2;fill:#8EB1DB;enable-background:new    ;}
	.st56{opacity:0.5;fill:#FFDFD4;enable-background:new    ;}
	.st57{fill:#E8E8E8;}
	.st58{fill:#ADACAC;}
	.st59{fill:#ECECEC;}
	.st60{fill:#041724;}
	.st61{opacity:0.5;fill:#0C2D42;enable-background:new    ;}
	.st62{opacity:0.5;fill:#B1B1B1;enable-background:new    ;}
	.st63{fill:#1B3549;}
	.st64{fill:#3C2016;}
</style>
<g>
	<path class="st0" d="M-308,267.6c-112,0,33.5-19.8-79.9-19.8c-32.3,0-37-0.1-39.9-2c-4-2.6,4-13.5,34.6-13.5c13.5,0,40-5,50.5-6.1
		c25.3-2.7,30.6,0,43.1,0c31.5,0,192.4,1,192.4,6.1s-25,7.9,15,7.9c38.7,0,7.7,13.5-27.7,13.5c-39.2,0-7.7,9.5-82.9,9.5
		C-288.2,263.3-196,267.6-308,267.6L-308,267.6z M-506.8,255.8c-178.5,0-129.9-14.8-161.1-14.8s-88.9-9.5-5-9.5s5.2-9.9,50.4-14.8
		c28.9-3.2,74.1-1.8,138.4,0c36.2,1,68.8,2.5,79.5,4.2c29.9,4.8-45.8,5.8,41.4,10.6c9.4,0.5,42,6.9,31.9,9.5
		c-14.7,3.9-47.1,8.3-89,8.3C-470.4,249.3-450.8,255.8-506.8,255.8L-506.8,255.8z"/>
	<path class="st1" d="M-566.1-205.3v190c0,3.9,3.1,7,7,7h90.7c3.9,0,7-3.1,7-7v-190c0-3.9-3.1-7-7-7l0,0h-90.7
		C-563-212.3-566.1-209.2-566.1-205.3L-566.1-205.3z"/>
	<path class="st2" d="M-558.9,4.1h89.7c3.9,0,7,3.1,7,7V112c0,3.9-3.1,7-7,7l0,0h-89.7c-3.9,0-7-3.1-7-7l0,0V11.1
		C-565.9,7.2-562.8,4.1-558.9,4.1z M-427.2-7.2h86.5c3.9,0,7-3.1,7-7V-204c0-3.9-3.1-7-7-7h-86.5c-3.9,0-7,3.1-7,7v189.8
		C-434.3-10.3-431.1-7.2-427.2-7.2L-427.2-7.2z"/>
	
		<linearGradient id="SVGID_1_" gradientUnits="userSpaceOnUse" x1="495.8803" y1="255.9926" x2="495.8803" y2="254.9931" gradientTransform="matrix(50.22 0 0 -203.903 -25261.9023 51986.7031)">
		<stop  offset="0" style="stop-color:#FAF9F9"/>
		<stop  offset="1" style="stop-color:#F2F0F0;stop-opacity:0"/>
	</linearGradient>
	<path class="st3" d="M-357.3-7.2h16.6c3.9,0,7-3.1,7-7V-204c0-3.9-3.1-7-7-7h-43.2L-357.3-7.2L-357.3-7.2z"/>
	<path class="st1" d="M-307.2-204.4v190.6c0,3.9,3.1,7,7,7h89.2c3.9,0,7-3.1,7-7l0,0v-190.6c0-3.9-3.1-7-7-7h-89.2
		C-304.1-211.5-307.2-208.3-307.2-204.4L-307.2-204.4z"/>
	<path class="st4" d="M-541.1,60.3c5.1-14.1,7.6-22,7.6-23.5c1.9-1.1,3.3-2.7,4.3-4.9c1.4-3.3,1.4-7.8,2.3-9.3
		c0.6-1,4.6-12.2,12.1-33.5l0.9-39.1c-6.2-1.1-9.9-1.1-11.1,0c-1.8,1.6-1.3,5-4.2,6.5s-9.1,21.4-9.1,24.3c0,2.8,0.4,10.3-0.8,12.6
		c-1.2,2.4-2.7,9.3-2.7,19.2c-0.5,3-1.6,5.4-3,7.2c-2.2,2.7-12,29.4-12,36.3c-2.3,9.1-3.3,14.6-3.1,16.7c0.2,1.8,2.4,2.6,3.1,2.9
		c0.5-1.4,0.9-2.8,1.4-4.2c4.8,1.2,8.4,2.7,10.6,4.6c1.7-6.5,3-11.3,3.8-14.6C-541,61.3-541,60.9-541.1,60.3L-541.1,60.3z"/>
	<path class="st5" d="M-499.8,73.2c-6.9-3.1-11.9-4.4-15-4c-0.5-15.3-0.5-23.8,0-25.5c0.8-2.5-1.3-4.2-0.4-6.3
		c0.9-2.2,0.9-7.2,0.9-9.9s0.8-11.1,1.7-13c0.9-1.9-0.9-17.5-0.9-19.4s-3.6-14.1-5.4-16.9s-2.8-13.1,0-20c1.9-4.6,3.4-7.3,4.6-8.3
		c7,1.6,11.7,2.6,14.2,3.1c3.8,0.7,13.3,4.7,14.8,9.4c-0.9,3.6-1.3,5.7-1.3,6.2c0,0.8,0.5,12.8-2,25.6s-6.9,35.9-6.9,37.5
		c0,1.6-1,4.5-2,5.7s0.5,4.4,0.9,7.7c0.4,3.2-3.1,16.4-3.1,19.1C-499.6,66-499.7,69-499.8,73.2L-499.8,73.2z"/>
	<path class="st6" d="M-514-35.6v17c0,0.6,2.7,1.8,8.2,3.8l8.8-0.6l2.8-16.1c-6.4-1.2-10.5-2.2-12.3-3
		C-509.1-35.6-514-35.6-514-35.6L-514-35.6z"/>
	<path class="st7" d="M-558.3,62.2c-1.3,5.6-1.8,9.1-1.6,10.7c0.2,1.8,2.4,2.6,3.1,2.9c0.5-1.4,0.9-2.8,1.4-4.2
		c4.8,1.2,8.4,2.7,10.6,4.6c0.9-3.4,1.8-6.7,2.7-10.1c0-0.2-5.3-2.9-9.3-3.9C-555.5,61.2-558.2,61.6-558.3,62.2z"/>
	<path class="st8" d="M-543.6,65.3l-2.2,10.2c0.4,0.2,0.7,0.5,1,0.8c0.8-2.9,1.3-4.8,1.6-6c0.4-1.7,0.8-3.1,1.1-4.2L-543.6,65.3z"/>
	<path class="st9" d="M-559.9,72.9c0.2,1.4,1.6,2.3,2.5,2.6c0.2,0.1,0.9,0.3,1,0.3c7.6,0.5,11.5,0.6,11.5,0.3c0.1-0.3-0.9-1-2.4-1.6
		c-3.1-1.2-8.3-2.6-8.2-3C-558.7,70.4-560.1,70.8-559.9,72.9L-559.9,72.9z"/>
	<path class="st5" d="M-513.9-50c-6.2-1-9.9-1-11.1,0c-1.4,1.2-1.4,3.5-2.6,5.2c2.8,0.1,4.8,0.3,6.2,0.5c1.6,0.2,4,0.8,7.3,1.7
		L-513.9-50L-513.9-50z"/>
	<path class="st5" d="M-518.1-43.6c1-2.3,2.3-4.4,3.8-6.4c6.7,1.6,11.6,2.7,14.7,3.2c4.6,0.7,12.8,4.6,14.4,9.3
		c-0.6,2.5-1,4.1-1.1,4.8c-6-3.8-10.1-6.1-12.5-6.9c-3.5-1.2-7.3-1.3-13.3-2.5C-513.5-42.4-515.5-42.9-518.1-43.6L-518.1-43.6z"/>
	<path class="st10" d="M-420.9-120.2c-3.2-0.7-4.6-1.9-4.3-3.8c0.5-2.7-1.9-3.9-3-5.1c-1.2-1.2-6-6.1-5.2-8.7s-1.2-5.2,1-7
		s-2.3-5.1,0.7-8.6c3-3.4,5.9-3.5,7.1-1.7c1.2,1.7,2.4,4.2,5.1,4.7s2.2-1.4,5.2-1.9s7.9,1.2,5.7,5.1c-2.2,3.8-4.2,1.8-2.2,5.4
		s4.1,1.8,5.1,5c0.5,1.7,2,2.6,2.4,4c0.3,1.2-0.3,2.8-1.3,3.8c-2,1.9-5.8-0.1-6.8,1.7c-1,1.7-0.9,2.8-1.7,2.8
		C-413.8-124.6-416.4-123.2-420.9-120.2z"/>
	<path class="st11" d="M-421-125c-1.6-1.6-2.4-2.9-2.2-4c0.3-1.7-2.1-2.4-2.8-3.2c-0.7-0.7-6.9-8.1-6.4-9.7c0.5-1.6,3.3,1.1,4.7,0
		c1.4-1.1-4.2-6.4-2.3-8.5c1.8-2.1,4.2,2.2,5,3.3c0.7,1.1-2.1-6.1-0.4-5.8c0.3,0,2,0.8,2.3,1.4c0.7,1.7,0.9,4.8,1.6,5.4
		c0.2,0.2,0.2-2.2,0.4-2.6c0.2-0.7,0.3-0.9,0.9-1.2c0.6-0.3,1.3,0.6,1.4,0.9c0.8,2.1,0.7,7.4,1,7.2c0.6-0.5-0.3-5.3,1.1-5.3
		c1.3,0,3.3,1.6,2.6,4.6s0.6,3.5,1.4,5.8c0.8,2.3,0.1,3.2-0.6,5.2s1.7,4.8-0.8,6.5C-415.2-124.3-417.5-124.3-421-125L-421-125z"/>
	<path class="st12" d="M-420.7-124.1c-0.7-2.7-1.4-4.6-1.9-5.5c-0.9-1.7-2.5-2.5-2.9-3.1c-1-1.5-4.9-7.1-6.5-8.6s0.9-1.8,2-0.9
		c0.8,0.6,1.9,1.2,3.2,1.7c-2.2-5.6-3.2-9-3.2-9.9c0-1.4,1.4-1.7,2.4,0c0.7,1.1,1.7,3.5,3.1,7l-1.1-9.1c0,0-0.1-0.4,0.2-0.8
		c0.4-0.5,1.4-0.7,1.9,0.6c0.5,1.1,0.7,3,1.2,5.6c0.1,0.4,0.4,1.6,0.8,3.3c0-0.6,0-1.2,0-1.8c-0.1-3.1,0.2-4.4,1.1-4.4
		c0.8,0,1.2,1.7,1.7,5c0.1,0.6,0.3,1.7,0.7,3.2c0.1-3.2,0.4-4.7,1.1-4.7c0.3,0,0.8,0.3,1.1,0.9c0.6,1.6,0.6,4.7,0.4,7.1
		c-0.2,2,0.3,6.8,1.7,14.3L-420.7-124.1L-420.7-124.1z"/>
	<path class="st13" d="M-420.7-124.1c-0.7-2.7-1.3-4.5-1.7-5.3c-1.1-2-2.6-2.6-3-3.2c-1-1.5-4.9-7.1-6.5-8.6s3.8,2.1,6.9,7.7
		c0.5,0.9,2.5,2.1,3.5,3.7c0.6,1,1.3,2.9,2,5.7H-420.7L-420.7-124.1z"/>
	<path class="st12" d="M-511.2-103.1c2.2-3.3,3.8-5.4,5-6.1c1.8-1.1,3.6-1.5,4.4-1.5s2.9-2.6,4.2-2.6c0.8,0,0.8,0.9,0,2.6
		c1-1,1.9-1.4,2.6-1.4s1.1,0.5,1.3,1.4l-3.1,4.5L-511.2-103.1L-511.2-103.1z"/>
	<path class="st14" d="M-523.2-50.5c6.3-6.7,10.2-10.9,11.8-12.4c2.4-2.3,5.5-11,6.4-13.4s4.9-11.2,3.6-12.9c-0.9-1.2-2.1-1.2-3.6,0
		c-0.5,3.6-1.5,5.4-2.8,5.4c-2,0-5.1,1.7-6.5,2.9c-1.4,1.2-4.4,0-7.7,0s-11.2,1.6-14.4-2.9c-3.1-4.5,5.9-11.1,10.1-11.1
		s10.7-3.7,12-5.5c1.3-1.9,12.8-10.2,15.8-10.2s11.2,0.6,12,2c0.5,1,8.1,2.7,22.8,5.4c1.1,1.1,2.1,1.7,2.9,1.7c1.2,0,3.9-0.2,3.9,1
		c0,1.2,3,2.1,5.6,2.1s7.3,1,10.3,1c1.6,0,6.6-0.1,11.3-1c4.1-0.8,8-2.4,10-3.1c0.2-11-0.2-17.2-1.3-18.6c-1.6-2.2-0.5-4.5,1.3-4.5
		s7.9-0.4,7.9,2.1s-0.6,6.1,0.9,8.6c1.5,2.4,3.1,14.3,3.1,16.7s-16.1,10.7-24.2,12.1c-8,1.4-19.6,1.1-28.8,16.5
		c-9.3,15.4-14,20.9-14,23.7s-3.9,3.9-5.2,7.3c-1.2,3.4-2,7.2-6.6,6.4l1.3-6.4c-2.9-4.5-6.8-7.3-11.9-8.4c-7.6-1.6-9-2-13-2.8
		C-517.3-50.4-521.6-50.9-523.2-50.5L-523.2-50.5z"/>
	<path class="st15" d="M-501.5-89.2c-1.1-1.2-2.3-1.2-3.6,0c-0.5,3.6-1.5,5.4-2.8,5.4c-2,0-5.1,1.7-6.5,2.9c-1.4,1.2-4.4,0-7.7,0
		c3.9-2,6.5-3.4,7.7-4.3c2.6-1.9,5.6-3.3,6.5-3.9c0.7-0.5,2.5-2,3.7-2C-503.4-91.2-502.5-90.5-501.5-89.2L-501.5-89.2z"/>
	<path class="st12" d="M-523.2-50.5l1.7-1.9c4.7-0.3,9-0.1,13,0.8c4.5,1,10.4,1.7,14.5,3.4c8.8,3.6,13.1,13.4,12.4,14.6
		c-0.9,1.6-2.3,2.7-4.9,2.3l1.3-6.4c-1.4-1.9-2.6-3.2-3.4-3.9c-2.5-2.2-5.5-3.6-8.4-4.5c-2.8-0.8-4.8-1-6.5-1.4
		c-2.3-0.5-4.1-0.9-6.4-1.4C-517.1-50.4-521.5-50.9-523.2-50.5L-523.2-50.5z"/>
	<path class="st15" d="M-481.6-33.6c-0.9,1.6-2.4,2.8-5.1,2.3c0.5-2.9,0.9-5.1,1.2-6.5c0.1-0.7,0.4-1.7,0.9-2.9c1,1.1,1.6,2.1,2,2.9
		C-481.8-35.8-481.3-34.1-481.6-33.6L-481.6-33.6z"/>
	<path class="st12" d="M-454.1-114.7c-4.2,8.3-7.1,12.2-8.6,11.7c-1.6-0.5-2.5-1-2.9-1.4l5.9-10.3H-454.1L-454.1-114.7z"/>
	<path class="st16" d="M-482.7-100.3c-2.1,0-3.8-1.4-2.3-4.1c1.5-2.7,1.7-3.2,3.1-5.9c1.4-2.7,2-4.5,2.7-6.6s1.2-3.8,1.7-5.7
		s1.7-5.3,3.9-8.1c2.2-2.8,3.7-3.4,5.9-5.1s7.1-3.6,11.2-1.8c4.1,1.8,9.5,7.8,7.6,14.5c-1.9,6.7-3.5,6.7-4.1,7.3s-1,1.2-3.5,2.4
		c-1.9,1.3-3.2,2.8-3.9,4.3c-1,2.3-1.5,5.6-4.5,5.6s-2.7,0.2-6.1,2.1c-3.4,1.9-3.8,0-5.9,0C-478.9-101.5-480.6-100.3-482.7-100.3
		L-482.7-100.3z"/>
	<path class="st17" d="M-480.2-114c1.4-3.5,2-6,2.5-7.9c0.5-1.9,1-4,3.2-7.6c2.2-3.6,4.5-4.5,6.7-6.2c2.2-1.7,7.1-3.6,11.2-1.8
		c2,0.9,4.4,2.9,6.1,5.5c0.4,0.7-2.5-3.7-7.7-3.7c-4,0-5.2,2.5-7.2,3.7c-2,1.2-3.6,1.1-6.2,2c-3.1,1.1-2.1,4.5-4.3,7.3
		c-1,1.4-1.3,4.1-2.3,5.1C-478.5-117.3-479.2-116.1-480.2-114z"/>
	<path class="st18" d="M-498.5-85.5c0.4-3,4.1-8.2,7.3-11.4c2.6-2.6,3.7-4.2,4.7-5.5c2.3-2.7,2.9-4.4,3.5-5.7c0.8,0.2,1.8,0.4,3,0.4
		c3.1,0,4.1-4.2,6.6-5.7c1.8-1.1,6.5,1.1,8.6,0c2.4-1.4,4-4.7,6.1-6.2c1.8-1.2,4.2,0.8,5.6,0c3.4-1.8,4.6-5.3,4.2-3.4
		c-0.6,3.4-2.1,5.7-3.7,7.1c-1.6,1.4-1.4,1.3-3.9,2.5c-2,1.4-3.3,2.8-3.9,4.3c-0.9,2.2-1.5,3.1-1.9,7.4c-0.1,1-0.2,3.8,0.2,6.9
		c0.6,4.5,4.9,8.3,1.7,16.3c-2.6,6.6-11.6,7.6-16.3,8.2c-11,1.3-16.6-2.4-19.2-4.1C-498.4-76.2-499.3-80.2-498.5-85.5L-498.5-85.5z"
		/>
	<path class="st1" d="M-433,12.3v99.9c0,3.9,3.1,7,7,7l0,0h85.4c3.9,0,7-3.1,7-7l0,0V12.3c0-3.9-3.1-7-7-7H-426
		C-429.8,5.3-433,8.4-433,12.3z"/>
	<path class="st19" d="M-594.1,230c-1,3.2-3,4.2-5.8,3.2c-2.8-1.1-3.2-3.3-1-6.8L-535.7,76l3.1-6.3h4.3l2.1,4.7L-594.1,230
		L-594.1,230z"/>
	<path class="st20" d="M-555.4,71.6c-1.2,5.6-2.6,9.5-4.4,11.7c-1.1,1.4-0.2,2.8,1,4.3c1.7,2.1,4.6,4,5.3,4.8
		c1.3,1.5,1.7,3.6,4.1,4.7c1.6,0.7,3.9,0.9,7.1,0.4c1.8-1,2.1-2.3,0.7-3.9c-2.1-2.4-4.8-7.2-4.8-8.2c0-0.4-1-1.8-1-4
		c0-1.1,0.3-3.3,1-6.5c-1.2-0.7-2.6-1.4-4.3-2C-552.4,72.4-554,71.9-555.4,71.6L-555.4,71.6z"/>
	<path class="st12" d="M-555.4,71.6c-0.2,0.8-0.3,1.3-0.3,1.6c0.9,0,1.7,0.1,2.3,0.4c0.9,0.4,2.4,2.1,3.7,3.1c0.6,0.5,1.6,0.8,2.9,1
		c0.1-0.4,0.2-1.3,0.5-2.7c-1.2-0.7-2.6-1.4-4.3-2C-552.4,72.4-554,71.9-555.4,71.6L-555.4,71.6z"/>
	<path class="st21" d="M-559.8,86.2c1.2,2.6,5.3,5.2,6.3,6.3c1.3,1.5,1.5,3.5,3.8,4.6c1.6,0.7,3.7,1,6.5,0.9
		c-0.9-0.5-2.5-0.8-3.2-1.6s-2.1-2.3-3.5-4.6c-1.2-1.9-2.3-4.6-4.5-5.5C-558.5,84.6-560,85.8-559.8,86.2L-559.8,86.2z"/>
	<path class="st22" d="M-561,84.7l0.8-2c0.4-0.6,0.6-1,0.7-1.2c0.1-0.4,2-5,2.2-6c0.2-1.1,0.5-0.3,1.3-0.3s1.1-0.4,1.9,0.3
		c0.5,0.4,2.4,3.2,5.3,5c1.1,0.7,1.7-0.3,2.4-0.3c1.8,0,0.5,6.6,1.9,8.7c1.4,2.1,5.8,6,5.8,7.5c0,1.4-0.6,2.6-1.1,2.6h-5.4
		L-561,84.7L-561,84.7z"/>
	<path class="st23" d="M-561,84.7l0.8-2c1.2-0.2,2.1-0.3,2.8-0.1c2.2,0.4,3.3,1.2,4.4,2.4c1,1,1.7,2.5,2.1,3
		c0.8,1.2,3.4,5.4,5.7,7.8c1.1,1.2,2.9,2.3,5.4,3.2h-5.4L-561,84.7L-561,84.7z"/>
	<path class="st24" d="M-560.6,86.8c-0.6-1-0.5-2-0.2-2.5c0.5-0.8,2.1-1,3.8-0.4c4.1,1.4,5.5,5.1,6.4,6.7c0.9,1.6,5.2,6.6,6.6,7.5
		c1,0.6,1.7,0.9,2.2,0.9h-8.5c-1.3-1.7-2.3-3.3-3-5c-0.5-1.1-3.1-2.7-4.9-4.3C-559.2,88.8-560.1,87.7-560.6,86.8z"/>
	<path class="st25" d="M-594.1,230c-1,3.2-3,4.2-5.8,3.2c-2.8-1.1-3.2-3.3-1-6.8L-594.1,230L-594.1,230z"/>
	<path class="st19" d="M-457.3,234.5c0.9,3.2,2.8,4.3,5.7,3.4c2.9-1,3.3-3.2,1.2-6.8l-63.3-161.8h-5.3l-0.7,7.2L-457.3,234.5z"/>
	<path class="st20" d="M-513.3,82.6c-0.5,5.6-0.9,9.2-1.1,10.8c-0.6,3.4-1.9,4.5-0.2,5.5c0.7,0.4,7.1,0.6,19.2,0.6
		c1.1,0.3,1.6-0.3,1.6-1.6c0-2-8.9-4.5-9.9-5.5c-0.7-0.7-1-2.9-1.1-6.6L-505,82l-8.1-2.3L-513.3,82.6z"/>
	<path class="st12" d="M-513.3,82.6c0.6,1.3,1.7,2.1,3.2,2.4s3.3,0.7,5.3,1.1l-0.1-4.3l-8.1-2.2L-513.3,82.6L-513.3,82.6z"/>
	<path class="st22" d="M-514.6,87.6c-0.3,1.1-0.6,2.3-0.8,3.4c-0.7,3-1.1,5.1-1,6s1.1,2.3,1.6,2.3c1.2,0,8.3,0.1,21.4,0.3
		c1-1.5,1-2.6,0-3.6c-1.4-1.4-9.2-4-9.2-5s0.1-2.3-1-2.3s-0.9,1.8-2.7,1.8s-2.3-1.2-4.6-2.5c-0.6-0.3-1.8-0.8-3-0.8
		C-514.1,87.2-514.4,87.3-514.6,87.6L-514.6,87.6z"/>
	<path class="st23" d="M-516.3,97.7c0.3,0.8,1,1.6,1.5,1.6c1.2,0,8.3,0.1,21.4,0.3c0.3-0.5,0.5-0.9,0.6-1.1L-516.3,97.7L-516.3,97.7
		z"/>
	<path class="st7" d="M-515.1,69.1l-1.1,11.9l14.6,4.5c0.7-5.6,1.4-9.7,1.9-12.3c-4.1-2.4-8.3-3.9-12.4-4.6
		C-513.6,68.4-514.6,68.6-515.1,69.1z"/>
	<path class="st8" d="M-501.7,85.5c0.7-5.6,1.5-9.7,1.9-12.3c-0.9-0.5-1.5-0.8-1.9-1l-1.5,12.9L-501.7,85.5L-501.7,85.5z"/>
	<path class="st25" d="M-457.3,234.5c0.9,3.2,2.8,4.3,5.7,3.4c2.9-1,3.3-3.2,1.2-6.8L-457.3,234.5L-457.3,234.5z"/>
	<path class="st2" d="M-306.3,12.2v100.7c0,3.9,3.1,7,7,7l0,0h90.8c3.9,0,7-3.1,7-7l0,0V12.2c0-3.9-3.1-7-7-7h-90.8
		C-303.2,5.2-306.3,8.3-306.3,12.2L-306.3,12.2z"/>
	<g transform="translate(112.53 606.092)">
		<path class="st26" d="M-715.3-402.1l11.6-0.7h8.2c0.4,0,0.8,0.3,0.8,0.8c0,0.4-0.3,0.7-0.6,0.8l-6.9,1.5c-0.1,0-0.2,0-0.3,0h-12.7
			c-0.6,0-1.2-0.5-1.2-1.2v-0.1C-716.4-401.5-715.9-402.1-715.3-402.1L-715.3-402.1z"/>
		<path class="st27" d="M-715.2-402h11.7c0.6,0,1.2,0.5,1.2,1.2l0,0c0,0.6-0.5,1.2-1.2,1.2h-11.7c-0.6,0-1.2-0.5-1.2-1.2l0,0
			C-716.4-401.5-715.9-402-715.2-402z"/>
	</g>
	<g transform="translate(127.74 572.197)">
		<path class="st26" d="M-715.3-402.1l11.6-0.7h8.2c0.4,0,0.8,0.3,0.8,0.8c0,0.4-0.3,0.7-0.6,0.8l-6.9,1.5c-0.1,0-0.2,0-0.3,0h-12.7
			c-0.6,0-1.2-0.5-1.2-1.2v-0.1C-716.4-401.5-715.9-402.1-715.3-402.1L-715.3-402.1z"/>
		<path class="st27" d="M-715.2-402h11.7c0.6,0,1.2,0.5,1.2,1.2l0,0c0,0.6-0.5,1.2-1.2,1.2h-11.7c-0.6,0-1.2-0.5-1.2-1.2l0,0
			C-716.4-401.5-715.9-402-715.2-402z"/>
	</g>
	<g transform="translate(141.779 538.302)">
		<path class="st26" d="M-715.3-402.1l11.6-0.7h8.2c0.4,0,0.8,0.3,0.8,0.8c0,0.4-0.3,0.7-0.6,0.8l-6.9,1.5c-0.1,0-0.2,0-0.3,0h-12.7
			c-0.6,0-1.2-0.5-1.2-1.2v-0.1C-716.4-401.5-715.9-402.1-715.3-402.1L-715.3-402.1z"/>
		<path class="st27" d="M-715.2-402h11.7c0.6,0,1.2,0.5,1.2,1.2l0,0c0,0.6-0.5,1.2-1.2,1.2h-11.7c-0.6,0-1.2-0.5-1.2-1.2l0,0
			C-716.4-401.5-715.9-402-715.2-402z"/>
	</g>
	<g transform="translate(155.989 501.9)">
		<path class="st28" d="M-714.4-402.3l11.6-0.7h8.2c0.4,0,0.8,0.3,0.8,0.8c0,0.4-0.3,0.7-0.6,0.8l-6.9,1.5c-0.1,0-0.2,0-0.3,0h-12.7
			c-0.6,0-1.2-0.5-1.2-1.2l0,0v-0.1C-715.5-401.8-715-402.3-714.4-402.3L-714.4-402.3z"/>
		<path class="st27" d="M-714.3-402.2h11.7c0.6,0,1.2,0.5,1.2,1.2l0,0c0,0.6-0.5,1.2-1.2,1.2h-11.7c-0.6,0-1.2-0.5-1.2-1.2l0,0
			C-715.5-401.7-715-402.2-714.3-402.2z"/>
	</g>
	<path class="st28" d="M-517.4,100.2l11.6-0.7h8.2c0.4,0,0.8,0.3,0.8,0.8c0,0.4-0.3,0.7-0.6,0.8l-6.9,1.5c-0.1,0-0.2,0-0.3,0h-12.7
		c-0.6,0-1.2-0.5-1.2-1.2v-0.1C-518.5,100.7-518,100.2-517.4,100.2L-517.4,100.2z"/>
	<path class="st27" d="M-517.3,100.2h11.7c0.6,0,1.2,0.5,1.2,1.2s-0.5,1.2-1.2,1.2h-11.7c-0.6,0-1.2-0.5-1.2-1.2
		S-518,100.2-517.3,100.2L-517.3,100.2z"/>
	<g transform="translate(209.637 539.47)">
		<path class="st28" d="M-715.3-402.1l11.6-0.7h8.2c0.4,0,0.8,0.3,0.8,0.8c0,0.4-0.3,0.7-0.6,0.8l-6.9,1.5c-0.1,0-0.2,0-0.3,0h-12.7
			c-0.6,0-1.2-0.5-1.2-1.2v-0.1C-716.4-401.5-715.9-402.1-715.3-402.1L-715.3-402.1z"/>
		<path class="st27" d="M-715.2-402h11.7c0.6,0,1.2,0.5,1.2,1.2l0,0c0,0.6-0.5,1.2-1.2,1.2h-11.7c-0.6,0-1.2-0.5-1.2-1.2l0,0
			C-716.4-401.5-715.9-402-715.2-402z"/>
	</g>
	<g transform="translate(223.677 574.535)">
		<path class="st26" d="M-715.3-402.1l11.6-0.7h8.2c0.4,0,0.8,0.3,0.8,0.8c0,0.4-0.3,0.7-0.6,0.8l-6.9,1.5c-0.1,0-0.2,0-0.3,0h-12.7
			c-0.6,0-1.2-0.5-1.2-1.2v-0.1C-716.4-401.5-715.9-402.1-715.3-402.1L-715.3-402.1z"/>
		<path class="st27" d="M-715.2-402h11.7c0.6,0,1.2,0.5,1.2,1.2l0,0c0,0.6-0.5,1.2-1.2,1.2h-11.7c-0.6,0-1.2-0.5-1.2-1.2l0,0
			C-716.4-401.5-715.9-402-715.2-402z"/>
	</g>
	<g transform="translate(236.547 608.43)">
		<path class="st26" d="M-715.3-402.1l11.6-0.7h8.2c0.4,0,0.8,0.3,0.8,0.8c0,0.4-0.3,0.7-0.6,0.8l-6.9,1.5c-0.1,0-0.2,0-0.3,0h-12.7
			c-0.6,0-1.2-0.5-1.2-1.2v-0.1C-716.4-401.5-715.9-402.1-715.3-402.1L-715.3-402.1z"/>
		<path class="st27" d="M-715.2-402h11.7c0.6,0,1.2,0.5,1.2,1.2l0,0c0,0.6-0.5,1.2-1.2,1.2h-11.7c-0.6,0-1.2-0.5-1.2-1.2l0,0
			C-716.4-401.5-715.9-402-715.2-402z"/>
	</g>
	<path class="st29" d="M-463.5,239.8c0.9,3.2,2.8,4.4,5.6,3.5c2.9-0.9,3.3-3.2,1.3-6.8l-61-163.7l-1.6-2.4l-9.1-0.5l3.3,6.4
		L-463.5,239.8z"/>
	<path class="st27" d="M-517.6,72.8l-1.5-3.1h-9.2l3.3,6.7L-517.6,72.8z"/>
	<path class="st25" d="M-463.5,239.8c0.9,3.2,2.8,4.4,5.6,3.5c2.9-0.9,3.3-3.2,1.3-6.8L-463.5,239.8z"/>
	<path class="st29" d="M-605.8,235.8c-1,3.2-3,4.2-5.8,3.2c-2.8-1.1-3.2-3.3-1-6.8l69.5-160.3l1.7-2.3h9.1l-3.6,6.2L-605.8,235.8
		L-605.8,235.8z"/>
	<path class="st27" d="M-543,71.9l1.7-2.3h9.1l-3.6,6.2L-543,71.9z"/>
	<path class="st25" d="M-605.8,235.8c-1,3.2-3,4.2-5.8,3.2c-2.8-1.1-3.2-3.3-1-6.8L-605.8,235.8L-605.8,235.8z"/>
	<path class="st30" d="M-543,66.1h29.2v3.5H-543V66.1z"/>
	<g>
		<path class="st31" d="M-437.9,206.1c-1.2-0.2-2-0.5-2.3-0.8s-0.5-1-0.5-2h38.4c0,0.9-0.2,1.6-0.5,2s-0.9,0.9-1.7,1.4l-4,36.2
			c-5.8,0.5-10.1,0.7-13.1,0.7c-2.9,0-6.9-0.2-12-0.7L-437.9,206.1L-437.9,206.1z"/>
		<path class="st32" d="M-407.1,203.3h4.8c0,0.9-0.2,1.6-0.5,2s-0.9,0.9-1.7,1.4l-4,36.2c-3.5,0.3-6,0.4-7.4,0.5L-407.1,203.3
			L-407.1,203.3z"/>
		<path class="st33" d="M-437.9,206.1c-1.2-0.2-2-0.5-2.3-0.8s-0.5-1-0.5-2h38.4c0,0.9-0.2,1.6-0.5,2s-0.9,0.9-1.7,1.4L-437.9,206.1
			L-437.9,206.1z"/>
		<path class="st34" d="M-421.1,206.4c0.4,11.2,5,18.2,13.7,20.8"/>
	</g>
	<g transform="translate(465)">
		<path class="st35" d="M325-28.9"/>
		<path class="st36" d="M265.9-68.8"/>
	</g>
	<g>
		<path class="st37" d="M741.9,333.9c7.2-4.4,12.3-6.8,15.4-7.3c3.1-0.5,6.4,0,10.1,1.6c10.4,1.4,16,2.3,16.8,2.8
			c1.2,0.7,0.3,2.9-1.1,2.9c-0.9,0-5.5,1.8-13.8,5.5l-8.9-2l-3.1,0.7L741.9,333.9z"/>
		<path class="st38" d="M742.5,333.5c5.4,0.4,9.4,0.9,12.1,1.3c3.2,0.5,7.9,1.5,14.2,2.9c6.9-3.8,15-7.1,15.5-6.8
			c0.9,0.5,0.6,1.8-0.1,2.5c-0.3,0.2-0.6,0.4-1,0.5c-0.4,0.1-1.6,0.6-3.7,1.4c-1,0.4-2,1-3.4,1.5l0.8,2c-2,1.1-3.3,1.7-3.9,2
			c-1.3-1.5-2.1-2.1-2.4-2l-1.3,0.6l-8.9-2l-3.1,0.7l-14.7-4c-0.2,0-0.3-0.2-0.2-0.4C742.4,333.6,742.5,333.6,742.5,333.5
			L742.5,333.5z"/>
		<path class="st39" d="M775.2,363.1c0.6,1,1.1,1.5,1.6,1.5h4.2l-2.9-3.4L775.2,363.1L775.2,363.1z"/>
		<path class="st38" d="M717.2,358.8c-0.5,0.3-0.8,0.7-0.8,1.3c0,0.9-0.4,3.2,0,3.4c0.4,0.2,19.2,5.6,21.1,5.6c1.9,0,5.6,2.1,15.3,0
			c6.4-1.4,14.6-3.7,24.5-6.7c1.3,2,2.8,2.7,4.4,2c2.4-1,6.9-3.4,5-15.3l0.9-0.9l-0.9-11.2c1.1-1.5,1.2-2.5,0.4-2.9
			c-0.8-0.4-2-0.5-3.7-0.2l-7.4,2.8l2,3.5l-25.3,22.3L717.2,358.8L717.2,358.8z"/>
		<path class="st31" d="M717.9,357.8c-1.2,1.3-1,2.3,0.7,3c2.5,1,22.8,4.9,24.3,4.9s4.9-1.6,5.7,1.1c5.7-0.6,9.3-1.5,10.6-2.7
			c1.4-1.2,8.3-10,20.8-26.3c0.2-0.4,0.3-0.7,0.2-0.9c-0.2-1.2-0.7-1.3-2.7-0.8c-0.4,0.1-0.7,0.2-1.1,0.3c-0.3,0.1-0.4,0.4-0.3,0.7
			l0,0l0.7,1.8l-3.8,1.8c-0.9-1-1.5-1.6-1.9-1.8c-0.4-0.2-0.9-0.1-1.7,0.3l-9-2.2c-0.4-0.1-0.9-0.1-1.3,0l-0.9,0.2
			c-0.4,0.1-0.8,0.1-1.2,0l-8.1-1.6c-0.1,0-0.1-0.1-0.1-0.2c0,0,0-0.1,0.1-0.1l0.6-0.2c0.1,0,0.1-0.1,0.1-0.2l-0.1-0.1l-7.7-1
			c-5.8,3.1-9.3,5.1-10.6,5.8c-5.5,2.8-8.5,4.7-9.1,5.7C721.5,346.3,720.1,350.5,717.9,357.8L717.9,357.8z"/>
		<path class="st40" d="M748.8,367c2.1-0.1,3.6-0.3,4.5-0.5c20.1-4.6,30.2-7.4,31.4-9c1.9-2.5-0.3-9-1.6-13.1
			c-0.8-2.7,0.3-5.1,3.4-7.1c1.2-1.9,1.4-3,0.4-3.3c-1-0.4-2.1-0.4-3.2-0.2c-3,0.9-4.9,1.7-5.6,2.1l-0.5,3.4
			c-13.6,16.2-20.6,24.3-20.9,24.3C756.2,363.6,753.6,364.7,748.8,367L748.8,367z"/>
		<path class="st32" d="M738.1,364.9c2.5,0.5,4.4,0.8,4.8,0.8c1.5,0,4.9-1.6,5.7,1.1c5.7-0.6,9.3-1.5,10.6-2.7
			c1.4-1.2,8.3-10,20.8-26.3c0.2-0.4,0.3-0.7,0.2-0.9c-0.2-1.2-0.7-1.3-2.7-0.8c-0.4,0.1-0.7,0.2-1.1,0.3c-0.3,0.1-0.4,0.4-0.3,0.7
			l0,0l0.5,1.4c0.1,0.3,0,0.6-0.3,0.7l-3,1.4c-0.2,0.1-0.5,0-0.6-0.1c-0.7-0.8-1.3-1.3-1.6-1.5c-0.4-0.2-0.9-0.1-1.6,0.3
			c-12.8,5.3-20.5,8.6-23,10C743.9,350.7,741.1,355.9,738.1,364.9L738.1,364.9z M726.9,345.2c1.5,0,5.9,0.9,13,2.7
			c1.1,0.3,1.8,1.4,1.6,2.6c0,0.1,0,0.1-0.1,0.2l-3.4,9.7c-0.5,1.4-1.9,2.2-3.4,1.9l-12.5-2.5c-0.7-0.1-1.2-0.9-1-1.6v-0.1
			C723.3,349.5,725.2,345.2,726.9,345.2L726.9,345.2z"/>
		<path class="st41" d="M673.3,194.7c1.3,22.1,2,35.8,2,41.2c0,8.1,5.8,19.2,5.8,43.2s-11.9,49.7,4.4,64.8c5,4.6,11.7,5.9,19.9,7.8
			c5.7,1.3,16,2.5,30.8,3.6c2.1-1.6,2.1-3.5,0-5.6l-18.9-2.3c-18.3-1.4-28.9-6.2-31.8-14.4c-4.4-12.3-2.6-22.1-0.9-30.2
			s3.5-36,0-46.7c-0.8-2.4-1.1-5.9-1.8-10.5c-0.8-6.1-1.9-19.5-3.3-40.2v-31l-4.3,5L673.3,194.7L673.3,194.7z"/>
		<path class="st4" d="M735,229.9c0.1,8-0.5,15.1-1.8,21.3c-0.8,3.9-2.2,11.7-4.2,19.5c-2.1,8.4-4.5,17.1-5.5,22.6
			c-0.3,1.5-0.4,2.8-0.4,3.8c0,0.9-0.4,2.1,0,2.8c0.4,0.7,0.3,2.1-0.8,2.8c-1.1,0.7-1.3,3.6-0.9,4.1c0.4,0.6-0.4,2.2,0,2.7
			c0.4,0.5,0.6,0.5,0,1.9c-0.4,0.9-0.8,2.3-1,4.2l-7.1,24.3c-1.1,3-1.6,4.8-1.6,5.4c0,1-0.6,5.4-1,5.4c-0.2,0-0.2,0.2,0,0.5l-1.3,6
			c-6.1-0.3-10.6-1.6-13.5-3.7c0.7-3.8,1-6.1,1-6.7c0-1-0.7-1.5,0-1.5c0.4,0,0.7-0.2,0.8-0.6c0-2.2,0.2-3.8,0.7-4.8
			c0.8-1.5,0.6-4.6,1.1-5.3c0.6-0.7,1.1-5.7,1.1-7c0-1.2,1.2-9.7,2.2-12.6c0.7-1.9,3.6-16.9,8.8-45.1l-1.6-18.8
			c0.6-0.9,1.2-1.7,1.6-2.4c3.2-4.9,0.4-10.6,1.3-15c0.7-3.3,1.7-4.5,1-6.1c-0.3-0.7-1.8-1.1-2.3-2.2l21.5-5.6
			c1.7,1.8,2.3,3.6,1.8,5.6C734.5,227.4,734.5,228.9,735,229.9L735,229.9z"/>
		<path class="st42" d="M697.9,354.6c0,0-1.2,4.1-1.9,5.5c-0.6,1.4-0.5,4-0.5,5.3l11.9,1.7c-0.5-0.9-0.8-1.8-0.8-2.3v-2.2
			c0-0.8-0.2-0.9-0.2-1.7s-0.2-2.1,0.6-3.9L697.9,354.6L697.9,354.6z"/>
		<path class="st43" d="M697.9,354.6c0,0-1.2,4.1-1.9,5.5c-0.6,1.4-0.6,3.9-0.6,5.1c0,1.3-1.1,6.6-0.3,7.7c0-1.2,0.2-2.3,0.5-3.4
			c0.3-1.2,1.3-2.4,1.6-4.1c0.2-1.3,0-2.7,0.3-4.3c0.2-0.9,0.8-2.9,2-6.1L697.9,354.6z"/>
		<path class="st20" d="M697.2,356.8c-0.2,0.7-1,2.9-1.2,3.3c-0.6,1.4-0.7,4.1-0.7,5.4l12.1,1.6c-0.5-0.9-0.8-1.8-0.8-2.3v-2.2
			c0-0.8-0.2-2.4-0.2-3.2c-2.8,0-5-0.2-6.4-0.5C699.2,358.6,698.3,357.9,697.2,356.8z"/>
		<path class="st11" d="M720.4,381.9c0,1-0.1,1.9-2.2,3.1c-2.2,1.2-7.6,2.7-10.6,0.5s-3.4-5.5-6.4-6.6c-3.1-1.2-7.9-2.6-8.4-3.8
			c-0.1-0.3-0.2-1.8-0.1-3L720.4,381.9L720.4,381.9z"/>
		<path class="st44" d="M700.5,365.4c4.1-0.7,5.9-1.4,7.5,0.3c1.5,1.7,2.2,4.3,4.1,6.2c1.9,1.8,5.1,5.3,6.2,6.4
			c1.1,1.1,3.8,3.7,1.2,5.2c-2.6,1.6-8.1,2.2-11.1,0s-4.1-5.9-7.2-7.1c-3.1-1.2-8.1-2.7-8.5-3.9c-0.4-1.2,1.1-11.9,2.1-10.6
			C695.9,363,696.5,366.1,700.5,365.4L700.5,365.4z"/>
		<path class="st7" d="M710.8,351.3l-1.3,6c-6.1-0.3-10.6-1.6-13.5-3.7c0.7-3.8,1-6.1,1-6.7c0-1-0.7-1.5,0-1.5
			c0.3,0,2.7,1.6,7.4,3.5C705.7,349.3,707.8,350.1,710.8,351.3L710.8,351.3z"/>
		<path class="st8" d="M696.5,353.9c-0.2-0.1-0.3-0.2-0.5-0.3c0.7-3.8,1-6.1,1-6.7c0-1-0.7-1.5,0-1.5c0.1,0,0.7,0.3,1.6,0.8
			L696.5,353.9L696.5,353.9z"/>
		<path class="st5" d="M680.7,226.8c0.7,7.9,1.3,13.3,1.7,16.3c2.2,15.1,4.2,23.1,5.3,27.3c2.2,8.1,9.4,26.9,9.4,29.6
			s1.2,4.8,1.7,5.2c0.4,0.4,0,3.3,0.6,3.8c1.1,0.8,0.5,1.6,1.1,2.7c0.6,1.2,1.6,2.2,1.9,2.6c0.4,0.5,7.2,15,20.5,43.4v1.6l3.4,7.5
			c7-1.2,11.3-3.4,12.9-6.4l-3.7-10.5h-1c-4.6-14.3-7.6-22.7-9.3-25.2c-1.6-2.4-3.2-5.6-4.9-9.3c-0.3-2.4-0.9-4.2-1.9-5.5
			c-1.6-1.9,0.5-4.3,0-5.5s-2.2-1.6-1.6-3.4c0.6-1.9,0.1-4-0.5-4.8c-0.5-0.8-0.5-6.2-0.5-7.4c0-1.2-3.7-12.5-3.7-15.1
			s-1.4-21.3-1.4-21.9c0-0.4,1.4-1.9,2.4-4.9s-0.3-12.3,0.6-13.9c1.9-3.5,1.2-5.7-1.6-7.5c13.5-2,20.4-2.6,20.7-1.9
			c1.8,1.2,2.7,1.2,2.7,0s-0.6-2.4-1.8-3.6L680.7,226.8L680.7,226.8z"/>
		<path class="st6" d="M680.5,226c0.8,8.4,1.4,14.1,1.9,17.1c1.3,9.3,2.6,15.9,3.7,20.6c0.5,2.2,1.1,4.5,1.7,6.7
			c0.8,2.9,0,0.1,0-8.8c0-2.1,0.8-4.7,0.8-7.5c0-1.8,0.9-4.1,1-7.1c0.1-1.9-1.8-4.6-1.8-8.7c0-1.3-2-3.4-1.7-5.9
			c0.1-0.7,2.5-1.2,2.6-2c0.2-0.9,0.5-2.4,0.9-4.4L680.5,226L680.5,226z"/>
		<path class="st42" d="M728.8,365.9c3.8,6.2,6.2,9.6,7.2,10.1c0.7,0.3,6,1.4,7.5-0.6c1.7-2.3,1.6-5.3,1.1-5.6
			c-0.9-0.5-3-2.7-3.6-3.5c-0.4-0.5-1.6-2.1-3.4-4.7L728.8,365.9L728.8,365.9z"/>
		<path class="st45" d="M728.8,366c4.9,7.9,7.9,12.1,8.9,12.6l0.7-1.3c-2.3-1.2-5.2-5.1-8.7-11.7L728.8,366L728.8,366z"/>
		<path class="st20" d="M730,367.9c0.2,0.3,1.3,2.2,1.4,2.4c2.4,3.9,3.8,5.4,4.6,5.8c0.7,0.3,6,1.4,7.5-0.6c1.7-2.3,1.6-5.3,1.1-5.6
			c-0.9-0.5-2.8-2.7-3.5-3.4c-0.2-0.2-1.3-1.5-1.7-2.2c0.2,1.9-0.2,3.1-1.3,3.7C736.5,368.8,733.8,368.8,730,367.9L730,367.9z"/>
		<path class="st11" d="M734.5,376.2c0.4,1.8,1.5,2.8,2.3,3.3c1.8,1.1,6,8,7.8,10.7c1.7,2.7,6,2.8,10,1.5s1-6.9,0-7.6L734.5,376.2
			L734.5,376.2z"/>
		<path class="st44" d="M731.8,370.9c1.7,4.4,3.2,6.9,4.4,7.7c1.8,1.1,6,7.8,8.1,10.4c2.1,2.6,6,2.1,9.7,1.2c3.7-0.9,2.1-4,1.1-6.2
			c-0.9-2.3-4.1-5.4-6.3-8.4c-2.2-3-4.7-7.1-5.3-7.1s1.6,3.1,0,4.7c-1.6,1.6-5.2,2.6-7.7,1.6C734.2,374,732.9,372.7,731.8,370.9
			L731.8,370.9z"/>
		<path class="st7" d="M722.8,357.6l-0.4,0.7l3.8,8.4c7-1.2,11.3-3.4,12.9-6.4l-3.7-10.5h-0.9L722.8,357.6z"/>
		<path class="st8" d="M722.8,357.6l-0.4,0.7l3.8,8.4c0.4-0.1,0.6-0.1,0.8-0.1l-3.2-9.6L722.8,357.6L722.8,357.6z"/>
		<path class="st14" d="M695,128.8c-0.6-0.3-1-0.3-1.4,0c-0.5,0.5-2.1,1.8-4.2,1.8c-2.1,0-16.6,5.1-18.2,7.5
			c-1.6,2.3-8.5,13.8-9.8,22.8c-2.6,10.4-4.5,16.3-5.7,17.4c-1.8,1.8-4.1,9.4-2,12.3l25.6-16.2c0,11.4-0.3,18.2-1,20.6
			c-1,3.6-1.5,8.8-1.6,11.5c-0.1,1.7,0.1,3,0.2,4.4c0.1,0.8-0.1,2.1-0.6,3.8c-0.4,1.7-0.3,3.1,0,4s1.3,0.9,1.5,2
			c0.6,2.8,1,5.8,3.3,5.8h22.6c3.1,0,13.7-1.9,15.6-2.7c1.9-0.8,13.2-3.2,15.3-4.7l-0.7-2.9c-1.8-5.8-2.3-9.8-1.4-12
			c0.6-1.4,2-1.2,3.1-2.7c1.4-2,2.5-5.6,2.6-7.6c0.1-3.5-0.1-4.5-0.1-6.3c0-1.7-0.4-3-0.3-4.1c0.1-1,0.6-2,1.3-2.6
			c1-0.9,2.1-0.9,2.8-0.9c0.9,0,1.7,0.9,2.5,2.6c1,2.1,2.2,3.4,3.6,3.9c-1.5,2.6-2.3,4.4-2.3,5.2c0,1.3-7.5,6.1-7.5,8.4v4l-2.2,2.2
			c1.5,0.6,2.5,1.1,3,1.4c1.4,0.9,2.3,1.9,2.7,2.3c1.2,1.2,1.4,2.5,1.1,3.1c-0.2,0.4-0.7,1-1.4,1.7c0.6,0.3,1.2,0.2,1.6-0.4
			c0.4-0.5,1.4-1.6,3-3.4c2.1,0.8,4,0.3,5.9-1.7c2.8-3,6-7,7.4-8.9c1.4-1.9,3.4-4.1,3-6c2.8-3.1,4.1-6,3.9-8.9
			c-0.2-4.3,0-10.7,0-12.6s-2.2-1.9-3-2.9c-0.5-0.6-3.3-6.3-7.5-11.5c-2.8-3.5-6.8-6.2-9-9.2c-2.5-3.5-4-3.8-5.7-5.8
			c-2.4-2.9-3.5-4.9-9.3-7.7c-5.9-2.9-7.9-2.3-10.4-3.7c-2.5-1.4-3.8-3.5-6-3.5H695V128.8L695,128.8z"/>
		<g class="st46">
			
				<linearGradient id="SVGID_2_" gradientUnits="userSpaceOnUse" x1="482.4089" y1="258.7686" x2="482.4089" y2="258.7686" gradientTransform="matrix(23.354 0 0 -28.2998 -10553.168 7495.8418)">
				<stop  offset="0" style="stop-color:#C8C8C8"/>
				<stop  offset="1" style="stop-color:#979797"/>
			</linearGradient>
			<path class="st47" d="M713,172.7"/>
			<path class="st48" d="M712.8,172.7"/>
			<path class="st48" d="M714,164.2"/>
			<path class="st48" d="M700.7,164.2L700.7,164.2"/>
			<path class="st48" d="M702.5,173.7"/>
		</g>
		<path class="st42" d="M695.2,91.3c-3.8,5.6-5.7,9-5.7,10.1c0,0.4,0.1,0.7,0.2,1.1c0,0.4-0.1,0.6,0,1.2c0.1,0.6,0.5,1.2,0.5,1.6
			c0,0.6-0.1,1.2-0.4,1.8c-0.4,0.8-1.2,2-1.3,2.9c0,0.6,0.3,1.2,1,1.4c-0.1,0.1-0.3,0.4-0.5,0.9c-0.2,0.4-0.3,0.8-0.4,1.2
			c-0.1,0.5,0.1,1.1,0.3,1.5c0.3,1.1,1.4,2.4,0.6,4.5c-0.8,2.1-1.1,5.6,3.1,6.5c1.7,0.4,2.8,0.5,3.6,0.5c1.2,0,0.2,1.6-1,2.2
			c-0.5,0.3-1,0.8-1.3,1.3c-0.5,1,0.8,3,1.5,3.7c1,1.1,4.7,3.1,7.3,3.7c2.4,0.5,7,1.1,9.9,0.6c2.8-0.5,4.9-3.3,5.2-4.6
			c0.4-1.4-1.3-2.9-2.2-5c-0.7-1.5-0.7-3.7-0.8-5.1c-0.4-4.2,0.4-7.4,0.4-7.7c0.3-1.7,2.9-3.5,3.7-6.4c0.7-2.6-0.7-4.7-1.4-4.7
			c-2,0-8.9-4.3-10.3-5.2c1.6-1.2,2.2-3,1.8-5.5c-0.3-1.7-2.5-2.6-5.4-2.9C702,90.7,699.2,90.8,695.2,91.3L695.2,91.3z"/>
		<path class="st43" d="M695.2,91.3c-3.8,5.6-5.7,9-5.7,10.1c0,0.4,0.1,0.7,0.2,1.1c0,0.4-0.1,0.6,0,1.2c0.1,0.6,0.5,1.2,0.5,1.6
			c0,0.6-0.1,1.2-0.4,1.8c-0.4,0.8-1.2,2-1.3,2.9c0,0.6,0.3,1.2,1,1.4c-0.1,0.1-0.3,0.4-0.5,0.9c-0.2,0.4-0.3,0.8-0.4,1.2
			c-0.1,0.5,0.1,1.1,0.2,1.5c0.3,1.1,1.4,2.4,0.7,4.5c-0.1,0.2,0.6-0.9,0.7-2.6c0.1-0.7-0.6-1.4-0.7-2.2c-0.1-1,0.5-2.2,0.6-3.2
			c0.1-1.2-1-0.6-0.8-2c0.4-2.2,2.4-4.1,3-7c0.1-0.7-0.1-1.4-0.9-2.1c0.5-2,2.1-5.1,4.9-9.2L695.2,91.3L695.2,91.3z"/>
		<path class="st45" d="M696.2,126.4c1.2,0,0.2,1.6-1,2.2c-0.5,0.3-1,0.8-1.3,1.3c-0.5,1,0.8,3,1.5,3.7c1,1.1,4.7,3.1,7.3,3.7
			c2.4,0.5,4.1-13.7-1.3-11.8C698.5,126.5,695.9,126.4,696.2,126.4L696.2,126.4z"/>
		<path class="st49" d="M695.2,91.6c0-0.5,0.1-1,0.3-1.6c0.9-2.1,3.5-2.6,3.8-2.6c1.9-0.3,3.7-0.7,7.3-0.4c3.3,0.3,7,0.7,10.8,2.5
			c2.7,1.3,3.5,2.4,3.9,3c0.2,0.3,0.7,1.3,1.3,2.3c0.1,0.1,0.5,0.9,0.7,1.5c0.5,1.2,1.4,3,1.6,5.4c0,0.5,0.1,1.8-0.2,3.5
			c-0.3,1.6-0.9,2.9-1.6,4.3c-0.4,0.8-1.6,2.3-3.8,5.8c-2.1,3.3-4.2,6.9-4.2,8c0,2.1-0.8-6.9,1.1-9.1c1.9-2.2,3.1-4.2,3.1-5.9
			c0-1.7-0.9-3.8-2-3.5c-1.1,0.3-3.9,2.1-5.1,3.2c-1.1,1.1-1.7,3.9-1.9,4.7c-0.2,0.9-0.3,1.6-0.5,2.9c-0.2,1.6-0.2,3.3-0.3,4
			c-0.2,1.2-4.9,5.9-9.2,6.8c-1.8,0.4-4.1,0.4-5.8,0.2c-2.3-0.2-4.1-1-4.7-2.1c-0.4-0.8-0.7-1.7-0.6-2.9c0-0.5,0.2-1.2,0.5-2.1
			c0.2,0.6,0.4,1.2,0.4,1.9c0,1,1,0.9,1-0.2c0-1-1.2-2.2,0.2-2.2c0.3,0,0.7,0.2,1,0.2c0.4,0,0.7-0.2,1-0.2c0.6,0,1.2,0.3,0.6,0.9
			c-0.6,0.6-0.9,1.3-0.7,1.8c0.1,0.2,0.5,0.3,1,0.2c0.5-0.2,1.5-0.5,2.3-1.2c1.2-1.1,2-1.8,2.2-2.6c0.1-0.3,0.1-0.6-0.2-1
			c-0.7-1.4-4.4-2-5.8-2.5c-0.4-0.1-1.1-0.1-1.5,0c-1.1,0.3-1.9,1.1-2.3,0.6c-0.4-0.4-0.5-1.7,0-2.6c0.2-0.3,0.3-0.8,0.8-0.9
			c0.3-0.1,0.6-0.2,0.9-0.2c0.4,0,0.9,0.1,1.3,0c0.5-0.1,0.9-0.2,1.3-0.3c0.4-0.1,1-0.1,1.3,0c1.3,0.5,1.9,1.8,3.8,1.8
			c1.9,0,1.4,3.5,1.4,3.9c0,0.4,0.6,0.9,1,0c0.4-0.9,2.9-4.4,5-5.3c2.1-0.9,4-7.4,3.4-9.3c-0.4-1.2-1-2.2-1.9-3
			c0.8-0.7,1.4-1.6,1.6-2.5c0.3-1.4,0.3-3.6-0.9-4.6c-1.3-1-3.5-1.3-5.9-1.3C700.6,91.1,698.3,91.2,695.2,91.6z"/>
		<path class="st45" d="M690.1,99.7c0.5,0.2,0.9,0.3,1.1,0.5c1.3,1,1.5,2.2,0.9,3.3c-0.8,1.4-1.7,3-2.9,4.7c0.8-1.5,1.1-2.7,0.9-3.6
			c-0.3-1.3-0.4-1.7-0.3-2.1c0-0.4-0.3-1.1,0-2L690.1,99.7L690.1,99.7z"/>
		<path class="st50" d="M695.4,101.5c-0.6-0.1-0.8-0.4-0.6-0.8c0.3-0.7,1.4-1.1,2.3-0.8c1,0.3,2.3-0.1,2.9,0.3
			c0.6,0.4,2.4,2,2.4,2.8c0,0.5-0.6-0.3-1.7-0.9c-0.5-0.3-1.1-0.6-1.8-0.6c-0.6,0-1.9,0-2.4,0C696.2,101.6,695.8,101.6,695.4,101.5z
			 M689.6,101.8c0.9-0.2,1.4-0.3,1.5-0.6c0.1-0.3,0.3-0.9,0-1.1s-1-0.4-1-0.4s-0.3,0.5-0.5,1.2C689.6,101.1,689.6,101.4,689.6,101.8
			L689.6,101.8z"/>
		<path class="st45" d="M711.2,113.8c0.1,0.9,0.3,1.3,0.7,1.3l-1.1,0.2L711.2,113.8z M713.9,109.2c-0.2-0.1-0.4,0-0.6,0.2
			c-0.2,0.3,0,0.7-0.3,1.1c-0.4,0.4-0.9,1-0.5,1.3c0.3,0.2,0.5,0.2,0.7,0c0.1-0.1,0.2-0.3,0.3-0.5c0.5-0.6,1.3,0.3,2.1,0
			c0.8-0.3,1.5-1.6,1.1-2.2"/>
		<path class="st45" d="M715,106.9c0.7-1,1.4-1.5,2-1.4c0.9,0.2,1.6,1.5,1.4,2.3s-0.5,2.4-1.7,3.7c0.5-1.3,0.8-2.2,0.9-2.6
			c0.2-1,0.2-1.3,0.1-1.7c-0.1-0.4-0.4-0.7-0.6-0.8c-0.3-0.2-0.8-0.3-1,0c-0.3,0.5,0,0.8-0.5,1C715.2,107.5,715,107.3,715,106.9
			L715,106.9z"/>
		<path class="st41" d="M673.3,168.5c1.7-12.1,4.5-19.5,8.4-22.1c3.9-2.6,7.2-1.3,9.7,3.8v3.6h-5.9l-1.7-1.8l-4.9,15.5L673.3,168.5z
			"/>
		<path class="st51" d="M671.8,170.4c-0.3,4.9,1.2,7.6,4.8,8.2c0.8-1.1,1.6-2.3,2.5-3.6c1.3-1.9,2-3.3,2.7-3.3s4.3-1.7,5-2.7
			s3-2.4,4.4-2.4c1.4,0,2.4,0.4,2.4-2.5c1.1-1,1.3-2,0.8-3.2c0.9-1.3,0.9-2.3,0-3.2c0.6-1.7,0.4-2.8-0.4-3.3
			c-2.5-0.9-4.2-1.3-5.2-1.3c-1.4,0-3.4,0.3-5.3,1v-2.7c1.3-1.7,2-3,2-3.8c0-1.3-1.3-1.7-1.6-1.2c-0.3,0.4-1.8,2.2-2.9,3.2
			c-0.1,0.1-0.3,0.3-0.4,0.5c0,0.1-0.1,0.1-0.1,0.2c-0.1,0.2-0.1,0.4-0.2,0.5c-0.2,2.7-0.4,4.3-0.7,4.9c-0.4,1,0.2,4.6-0.4,6
			c-0.6,1.4-2.9,2.3-3.7,3.4C674.9,165.7,673.7,167.6,671.8,170.4L671.8,170.4z"/>
		<path class="st42" d="M671.8,170.4c0,1.3,0,2.2,0,2.8c0.1,0.5,1,1.4,2.4,0.5c1.1-0.6,2.3-1.6,3.4-3.1c0.4-0.6,1.1-1.4,1.6-1.7
			c0.9-0.5,1.4-0.5,2.3-1.2c1.1-0.8,2.9-2.1,3.5-3c1.9-2.6-0.4-2.5,0.3-4.9c0.4-1.6-0.7-2.2-0.9-3.2c-0.1-0.8-0.4-2-2.3-2
			c-1.4,0-1.1-1.9-0.8-3.2c0.1-0.5,0.1-0.9,0.2-1c0.2-0.2,0.4-0.4,0.5-0.5c2-2.3,2.9-3.5,2.6-3.6c-0.4-0.2-0.8-0.2-0.9,0.1
			c-0.3,0.4-1.4,1.7-2.4,2.7c-0.1,0.1-0.3,0.3-0.5,0.4c-0.4,0.3-0.7,0.8-0.7,1.3v0.1c-0.2,2.6-0.4,4.1-0.7,4.7c-0.4,1,0.2,4.6-0.4,6
			c-0.6,1.4-2.9,2.3-3.7,3.4C674.9,165.7,673.7,167.6,671.8,170.4L671.8,170.4z"/>
		<path class="st52" d="M683.4,154.1v-2.7c1.3-1.7,2-3,2-3.8c0-0.4-0.1-0.7-0.3-1c-0.1,0.5-0.1,0.8-0.2,1.1
			c-0.2,0.8-0.4,1.2-0.8,1.7c-0.6,1.1-1.6,1.1-1.8,1.5c-0.2,0.5,0.2,2.1-0.2,3.7C683.3,154.2,684.3,153.8,683.4,154.1L683.4,154.1z
			 M685.9,156.4c0.6-0.2,1.4-0.1,2,0.1c0.6,0.2,1.9,0.4,3.4,0.7l3.1,0.6l0.1-0.6c-0.9,0-1.6,0-2.2-0.2c-0.9-0.3-2.1-0.4-2.7-0.7
			c-0.6-0.3-1.5-1-2.4-1c-0.9,0-1.7,0.6-2.1,1C684.7,156.6,685.3,156.6,685.9,156.4L685.9,156.4z M686.7,159.8
			c-0.6,0.3-0.7,0.2-0.5-0.3c0.4-0.8,1.2-0.8,1.9-0.5c0.7,0.3,1.6,0.6,2.4,0.6s1.7,0,2.2,0.4c0.4,0.2,1,0.4,1.7,0.6v0.3
			c-1.2-0.4-1.9-0.6-2.2-0.6c-0.4,0-2.8-0.1-3.4-0.3C688.3,159.9,687.7,159.8,686.7,159.8L686.7,159.8z"/>
		<path class="st41" d="M686.1,169.9c0.3,2.1,0.3,3.9,0,5.4s-1.3,7.3-3,17.6c1,0.3,1.7,0.5,2.2,0.6s1.3,0.1,2.4,0.2l1.3-6.9
			c1.1-1.1,1.6-2.2,1.6-3.3c0-1.7,1.1-10.7,1.1-12.7v-4.2c-1-0.2-2,0-3.1,0.6C687.6,167.9,686.7,168.8,686.1,169.9L686.1,169.9z"/>
		<path class="st53" d="M686.3,171c0.2,1.7,0.1,3.1-0.1,4.3c-0.3,1.5-1.3,7.3-3,17.6c0.4,0.1,0.7,0.2,0.9,0.3l1.5-7.9
			c1.3,0.2,2-0.3,2-1.4c0-0.5,0.2-2,0.7-4.6c0.1-0.5-0.2-1-0.7-1.2l-0.6-0.2c0-0.9,0.6-4.9,0.6-6C687.4,170.8,686.3,170.8,686.3,171
			L686.3,171z"/>
		<path class="st54" d="M671.9,173.6c0.9,1.4,1.6,2.1,2.3,2.1c1,0,1.6-1.5,2.4-2.4s1.8-1,2.3-1.4c0.4-0.4,1.7-1.6,2.1-1.3
			c0.5,0.3,1.7,0.3,2.3,0s2.2-1.7,2.9-2.6c0-0.1,0.1-0.1,0.1-0.2c0.5-0.9,1.1-1.2,2.1-1.7c1-0.6,2.3-0.2,3.3-0.2
			c0.9,0,1.8-0.1,1.8-0.1s0,1.1-1.9,0.9c-0.7-0.1-1.4,0.1-2.1,0.5c-0.5,0.2-1.2,0.7-2.2,1.4c-0.3,0.3-0.5,0.6-0.6,0.7
			c-0.9,0.8-2.1,1.4-3.1,1.8c-0.7,0.3-1.2,0.5-1.8,0.6c-0.3,0.1-0.5,0.3-0.7,0.5c-0.3,0.4-0.6,0.8-0.9,1.4c-0.5,0.8-1.7,2.5-3.4,5.1
			c-1.8-0.4-2.9-1-3.4-1.9C672.6,175.9,672.2,174.8,671.9,173.6L671.9,173.6z"/>
		<path class="st52" d="M686.3,162.7c0.4-0.6,1-0.7,1.8-0.3c1.1,0.5,0.8,0.8,1.5,0.8h2c0.6,0,1.4,0.2,1.8,0.5
			c0.3,0.2,0.4,0.3,0.4,0.4c-0.2,0-0.6,0-1.2-0.2c-1-0.3-1.6-0.3-2.2-0.3c-0.6,0-1.1,0.2-1.4-0.2c-0.3-0.3-1.2-0.5-1.8-0.3
			C686.7,163.1,686.4,163,686.3,162.7L686.3,162.7z"/>
		<path class="st14" d="M671.6,170.4h-0.5l-4,4.3c-1.2-0.5-2.3-0.5-3.4,0c-1.7,0.8-2.5,3.3-3.4,4.5c-0.9,1.3-4.6,1.8-5.9,5.4
			s-1.4,7.9,0.4,11.8c1.6-0.2,2.8,0.1,3.7,1.1c1.3,1.4,2.1,3.5,4.1,2.4c1.9-1,3.7-0.4,5.2-0.4s4.9-4.2,5.3-4.9c0.4-0.7,5-9.9,5-10.6
			s-0.8-2.4-0.8-2.4l1.9-4.2l-0.9-1.5l-1.8,2.7c-1.9-0.5-3.2-1.4-4-2.7C671.8,174.8,671.5,172.9,671.6,170.4L671.6,170.4z"/>
		<path class="st55" d="M663.7,199.6c1.9-1,2.6,0,4.1,0s4.9-4.2,5.3-4.9c0.4-0.6,5-9.9,5-10.6s-0.8-2.4-0.8-2.4s-2.4,8.9-8,13.9
			C668.4,196.5,666.5,197.8,663.7,199.6L663.7,199.6z"/>
		<path class="st15" d="M654.4,185.1c-1.3,3.6-0.5,7.4,0.5,11.4c1.6-0.2,2.8,0.1,3.7,1.1C660,199,655.8,181.5,654.4,185.1z"/>
		<path class="st15" d="M671.6,170.4h-0.5l-4,4.3c0.2,2.2,0.8,3.7,1.7,4.4c4.4,4,5-1.3,3.8-3.1C671.8,174.8,671.5,172.9,671.6,170.4
			z"/>
		<path class="st15" d="M671.8,170.4h-0.6l-0.5,0.5c0,3,0.8,5.3,2.5,6.7c0.2,0.2,0-1.1-0.3-1.5C672,174.8,671.7,172.9,671.8,170.4
			L671.8,170.4z M661.5,177.2c-0.4,0.8-0.8,1.5-1.2,2.1c-0.3,0.4-0.8,0.7-1.3,1c-1.5,0.8-2.2,6.3-0.4,10.3c0.7,2.3,1.1,3.4,1.4,3.4
			c1.4,0,1-4.9,1-10.7C661,181.9,661.2,179.8,661.5,177.2L661.5,177.2z"/>
		<path class="st51" d="M735.3,206.6c-1.3-1.1-2.1-1.8-2.6-2.1c-0.7-0.4-3.9,0.6-4.4,0.9c-0.5,0.4-0.8,1.4-0.8,1.5s0.2,0.9,1.6,0.2
			C730.1,206.6,732.1,206.4,735.3,206.6L735.3,206.6z"/>
		<path class="st54" d="M732.5,205.7c-1-0.1-3.1,0.1-3.6,0.5s-1.3,1.1-1.1,1.2c0.2,0.1,0.6,0.1,1.3-0.2c0.9-0.4,2.3-0.6,5.1-0.5
			C733.8,206,733.2,205.7,732.5,205.7L732.5,205.7z"/>
		<path class="st51" d="M736.5,206.6c-2.4-0.2-4-0.2-4.8-0.2c-1.3,0-1.6,0-2.3,0.5c-0.7,0.5-5.2,4.2-5.6,5c-0.3,0.7,0.9,1.8,1.8,1.3
			c0.9-0.5,4.7-3.2,5.1-3.5c0.4-0.3,1.5-0.9,2.1-0.4c-0.2,0.1-0.4,0.3-0.7,0.5c-0.5,0.2-3.6,2.7-4,3c-0.4,0.2-2,1.1-1.6,2
			c0.4,0.8,1.2,1.2,2,0.7c0.9-0.5,4.1-2.6,4.8-2.9c0.7-0.4,1.5-0.5,2.4-0.3c0.9,0.3,0,0.5-1.1,0.8c-1.1,0.3-2,0.6-2.9,0.9
			c-1,0.3-1.4,1.4-0.7,1.8c0.7,0.4,4.1-0.3,5.2,0c1.1,0.3,3.4,0.8,5.6-0.5c0.9-0.9,1.4-1.7,1.5-2.2c0.1-0.6-0.3-1.5-1-2.5
			s-2.4-2.4-4-3.1C737.4,207,736.9,206.7,736.5,206.6L736.5,206.6z"/>
		<path class="st54" d="M733.3,215.7c1.1-0.1,2.3-0.2,2.9,0c1.1,0.3,3.4,0.8,5.6-0.5c0.9-0.9,1.4-1.7,1.5-2.2
			c-0.7,0.6-1.6,1.2-2.6,1.6c-0.6,0.3-1.4,0.7-2.1,0.8c-0.9,0-1.3-0.1-2.1-0.2C735,215,732.2,215.8,733.3,215.7L733.3,215.7z"/>
		<path class="st41" d="M653.9,346.9h-0.4l-2.5,14.4l5.2,0.9l2.7-13.6l-0.5-0.5L653.9,346.9z"/>
		<path class="st56" d="M731.6,206.4c-1.3,0-1.6,0-2.3,0.5c-0.5,0.4-3.3,2.7-4.7,4c0.3,0,0.6,0.1,0.8,0.3c0.5-0.3,0.8-0.6,1-0.8
			c1.6-1.4,2.4-2.2,2.6-2.3C729.4,207.8,732.9,206.4,731.6,206.4L731.6,206.4z"/>
		<path class="st57" d="M683.1,192.8l-29.1,154c0.2,1.7,1.7,2.2,4.2,1.7l29.8-155c-0.8,0.1-1.7,0.1-2.5,0S683.9,193.2,683.1,192.8
			L683.1,192.8z"/>
		<path class="st15" d="M689,186.7c0.6,5.2,1.6,8.8,3.1,10.8c2.2,2.9,5.2,13.5,5.2,13.5v4.1c-1.8-6.7-3.5-10.8-5.2-12.1
			c-1.7-1.4-3.2-4.4-4.4-9L689,186.7z"/>
		<path class="st58" d="M656.9,348.7c0.4,0,0.8-0.1,1.3-0.2l29.8-155c-0.7,0.1-1.2,0.1-1.6,0.1L656.9,348.7L656.9,348.7z"/>
		<path class="st59" d="M629.3,378.7v1.5c0.9,0.1,1.7,0.2,2.3,0.3c0.4,0,0.9,0,1.4,0c1.7,0.1,1.8,0.2,3,0.2c0.3,0,0.6-0.3,1-0.2
			c2.2,0.2,2.3,0.5,4.4,0.6c1.7,0.1,2.2,0.2,3.3,0.2c0.3,0,0.7-0.2,1.1-0.2c2,0.2,1.7,0.5,3.9,0.6c1.8,0.1,2.1,0.2,3.5,0.3
			c0.3,0,0.7-0.3,1.1-0.3c2.3,0.2,2.4,0.5,4.5,0.7c1.7,0.1,2,0.2,3.2,0.2c0.3,0,0.6-0.2,1-0.2c2.1,0.2,2.9,0.5,4.3,0.6
			c0.2,0,0.5,0,0.8,0c0.6,0,1.6,0.1,3.1,0.2l2-2.3v-1.6L629.3,378.7L629.3,378.7z"/>
		<path class="st41" d="M628.8,374.7v2.9c0,0.6,0.4,1,1,1.1c26.5,1.9,40.1,2.9,40.9,2.9c1.2,0,2.8-2.9,2.8-3.5
			c0-0.4-0.3-1.5-0.8-3.3h-43.9V374.7z"/>
		<path class="st60" d="M640.8,371.3H632c-2.6,2.1-3.6,3.4-3,4c1,0.9,40.4,3.2,41.2,3.2c0.8,0,2.3-3.4,2.3-3.9
			c0-0.4-2.7-0.8-8.1-1.2L640.8,371.3L640.8,371.3z"/>
		<path class="st41" d="M669.1,266.8c-0.1,0-0.2-0.2-0.2-0.3l0.8-4.9c0-0.1,0.2-0.2,0.3-0.2h0.1c0.1,0,0.1,0.1,0.2,0.1
			c0.7,0.4,1.6,0.6,2.5,0.7c0.5,0,1.3,0,2.4-0.1c0.1,0,0.3,0.1,0.3,0.2v0.1l-1.2,5.1c0,0.1-0.1,0.2-0.3,0.2
			c-0.9-0.1-1.7-0.1-2.3-0.3C671.3,267.4,670.4,267.2,669.1,266.8L669.1,266.8z M674.1,266.2c0.1,0,0.1,0,0.1-0.1l0.5-2
			c-0.8,0.1-1.5,0.1-2.5,0c-0.5-0.1-1.2-0.2-2.1-0.5c-0.1,0-0.1,0-0.2,0.1l0,0l-0.3,1.7c0.4,0.3,1.1,0.5,2.1,0.6
			C672.2,266.1,673,266.1,674.1,266.2L674.1,266.2z M640.5,375.1c-0.4-2.5-0.1-4.2,0.9-5h7.5c-0.2-1.3-0.1-2.3,0.3-3
			c0.7-1.1,5.5-1.2,7,0.5c1,1.1,1.3,2.2,0.9,3.2c4.3,0.2,6.6,0.5,7.1,1c0.4,0.5,0.6,1.1,0.4,1.6l-2.2,2.9L640.5,375.1L640.5,375.1z"
			/>
		<path class="st61" d="M664.1,371.7c0.4,0.5,0.6,1.1,0.4,1.6l-2.2,2.9c0,0-0.4,0.4-0.8,0C660.9,375.5,663.5,370.9,664.1,371.7
			L664.1,371.7z"/>
		<path class="st30" d="M648.4,370.1c-0.1-1.5-0.1-2.7,0-3.5c0.2-2.1,0.9-4.1,1.3-4.5c0.8-0.9,2.5-0.5,4.3-0.3
			c1.4,0.2,2.4,0.3,3,0.7c1,0.8,1.7,2.8,1.8,5.2c0,0.9,0.1,1.9-0.1,3H657c0.1-2.5-0.9-3.9-2.8-4.2c-2.9-0.5-5.2,0.2-5.2,1.2v2.3
			L648.4,370.1L648.4,370.1z"/>
		<path class="st62" d="M657,362.5c1,0.8,1.7,2.8,1.8,5.2c0,0.9,0.1,1.9-0.1,3H657c0.1-1,0.1-1.7,0-2.1c-0.3-1.2-1.3-2-1.4-2.5
			c-0.4-2.4,0-3.3,0-3.8C655.7,361.8,656.9,362.4,657,362.5L657,362.5z"/>
		<path class="st15" d="M732.4,148c2.9,10.2,4.7,16.3,5.6,18.4c0.8,2.1,1.8,5.6,3,10.6l-1.7-12.5c-1.7-6-2.1-9.8-1.3-11.3
			c-1.4,2.2-2.2,2.9-2.2,2.2C735.8,154.6,734.7,152.2,732.4,148L732.4,148z M683.4,219.7h9.4c5,0,14.3-3.6,16.8-5.2
			s22.5-13.8,24.4-16.9c1.9-3.2,4.2-13.9,4.2-13.9s0.2-1.5,1.9-3.3c-3.4,1.8-5.9,5-7.5,9.9c-2.5,7.3-18.9,19.2-21,19.2
			c-2.1,0-9.5,8.5-18.9,8.5C686.5,218,683.4,218.6,683.4,219.7z"/>
		<path class="st15" d="M661,162.7l9.8-20.2l2.1-5.9c-1.1,0.8-1.8,1.5-2.1,1.9c-2.4,3.4-3.6,6.3-4.3,7.9c-0.6,1.4-2.3,4.6-3.9,9.4
			C662.2,157.2,661.6,159.5,661,162.7L661,162.7z"/>
		<path class="st15" d="M743.2,180.4c4.3-1.1,7.1-2,8.3-2.8c1.9-1.2,8.9-3.4,10.3-3.4c1.4,0,4.6-1.8,4.6-0.6s-3.3,3-4.6,3
			c-1.3,0-9.1,2.9-10.3,4.6c-1.2,1.7-2.5,5.3-3.6,5.3c-0.4,0-1.2-0.6-2.1-1.9c-0.3-0.4-0.7-1.4-1.3-2.4
			C744.3,181.8,743.9,181.2,743.2,180.4L743.2,180.4z M745.7,192.5c1.9-1.1,3-1.6,3.4-1.6l0.5-1c0,0-2.3,1.2-2.3,1v-0.8l2.3-1.1
			v-0.6c-1.7,0.5-2.6,0.9-2.8,1.2C746.6,190,746.2,191,745.7,192.5L745.7,192.5z M738.4,204.2l1.7-1.9c-1-1.5-1.5-2.3-1.5-2.5
			c0-0.1-0.1,0.6-0.2,2.2C738.4,202.4,738.4,203.1,738.4,204.2L738.4,204.2z M691.4,130.2c0.7,4.1,2.6,6.7,6,7.7
			c5,1.5,14.1,2.7,16.1,1.8c2-0.9,6.2-3.2,6.2-5.2c0.1,1.4-0.6,2.6-2,3.4c-2.1,1.3-4.1,2.5-5.8,2.7c-1.6,0.2-12.9-1.3-15.1-2.1
			c-0.8-0.3-2.8-1.6-4-3c-1.4-1.7-1.8-3.4-1.9-4c-0.1-0.3-0.1-0.7-0.1-1L691.4,130.2L691.4,130.2z"/>
		<path class="st63" d="M682.5,239.7c4-2.3,6.2-3.8,6.6-4.3c0.7-0.8,2.9-4,2.5-6.2c0.5-0.4,0.9-0.6,1.3-0.6c0.4,0,0.6-0.6,0.6-1.8
			v2.4c2.6,0.4,4.6,0.5,6.1,0.5c2.2,0,5.4-0.5,5.8-0.5l-5,1l-6.9-0.4l-0.6,1.7c-0.7,2.7-1.6,4.3-2.8,5.1c-1.8,1.1-7.6,4.2-7.6,4.7
			V239.7L682.5,239.7z"/>
		<path class="st63" d="M682.9,238.9c-0.9-3.1-1.1-4.9-0.7-5.5c0.7-0.9,6.3-1.9,6.7-1.9c0.3,0,0.3,0.9,0,2.7l1-2.7l-0.3-0.4
			c-1.7,0.3-3,0.5-4,0.7s-2.2,0.6-3.8,1.2c-0.2,0.6-0.2,1.5,0,2.6C682,236.7,682.4,237.8,682.9,238.9z"/>
	</g>
</g>
<g>
	<path class="st15" d="M719.9,163.8c0.5-1.1,1.6-2,2.9-1.9c0.4,0,0.8,0,1.1,0.1v-0.1c0-1.4-1.1-2.5-2.4-2.5s-2.4,1.1-2.4,2.5
		C719.2,162.8,719.4,163.4,719.9,163.8L719.9,163.8z"/>
	<path class="st15" d="M720.1,166c-0.1-0.4-0.4-0.8-0.4-1.1l0,0c0-0.1,0-0.5,0.1-0.6c-0.6-0.5-1-1.4-1-2.3v-0.1
		c-1.3,0-2.4,1-2.4,2.3s1.1,2.3,2.4,2.3C719.3,166.2,719.8,166.1,720.1,166L720.1,166z"/>
	<path class="st64" d="M708.9,166c0.1,0,5.1,2,5.1,2l0,0l0,0l-5.1-2.5l0,0l0,0l0,0l0,0l-5.3,2.5l0.4,0.5L708.9,166L708.9,166z"/>
	<path class="st64" d="M700.7,164.2L700.7,164.2L700.7,164.2l9.2-1.3l-5.7-1.3c0,0-2.3,1.6-2.4,1.8l0,0l0,0c0.1,0,2.4-1.3,2.4-1.3
		l4.3,1l-7.2,0.8C701.6,163.6,700.8,164.2,700.7,164.2L700.7,164.2z"/>
	<path class="st64" d="M716.6,162.8c0.1-0.1,0.4-0.4,0.4-0.4l-14,2l0,0l0,0L716.6,162.8L716.6,162.8z"/>
	<path class="st15" d="M720.4,166c0-0.1,0.1-0.1,0.1-0.4c0.4-0.5,0.8-0.8,1.3-1.3l0.1-0.1l-1.1,1.6c0,0.1-0.1,0.1-0.1,0.4l0,0
		c0,0,0,0.1,0.1,0.1l0,0c0.5,0.6,1.3,1,2.3,1c1.6,0,2.9-1.1,2.9-2.5s-1.3-2.5-2.9-2.5c-1.6,0-2.9,1.1-2.9,2.5
		C720.1,165.2,720.1,165.6,720.4,166L720.4,166z"/>
	<path class="st15" d="M703.7,156.2l0.8,0.8c5.6-4.3,13.7-3.9,19.2,0.6c1.9,1.8,3.5,3.9,4.6,6.3c0.1,0.4,1,2.3,1.3,3.5
		c0.1,0.8,0.5,1.8,0.5,2.5c0.1,1.3,0.1,1.8,0.4,3c0,0,0,0,0,0.1l0,0l0,0c0-0.1,0-0.5,0-0.5c0-1,0-2.7-0.1-3.7
		c-0.4-2.7-1.1-4.4-1.4-5.4c-1.1-2.7-2.9-5.1-4.9-7l0,0C718,151.8,709.8,151.7,703.7,156.2L703.7,156.2z"/>
	<path class="st64" d="M696.9,175.8c-0.1,0-0.4-0.1-0.5-0.1s-0.4,0-0.6,0c-0.5,0-0.8,0.1-1.1,0.4c-0.4,0.1-0.6,0.5-0.8,0.6
		c-0.1,0.1-0.4,0.6-0.4,1.1c0,0.6,0.1,1.1,0.6,1.4s1,0.5,1.6,0.6c0.4,0,0.6,0,0.8,0s0.4,0,0.5-0.1v-2.1h-1.4v0.5h0.8v1.3h-0.1
		c-0.1,0-0.1,0-0.5,0c-0.4,0-0.5,0-0.8-0.1c-0.4-0.1-0.5-0.4-0.5-0.5c0-0.1-0.1-0.5-0.1-0.8c0-0.5,0.1-0.8,0.5-1.1
		c0.4-0.4,0.6-0.5,1.1-0.5c0.4,0,0.5,0,0.6,0s0.4,0.1,0.5,0.1L696.9,175.8L696.9,175.8z M706.3,179.6h0.6v-3.5h1.3v-0.5h-3v0.5h1.3
		v3.5H706.3z M708.7,179.6h2.3v-0.5h-1.6v-1.3h1.4v-0.5h-1.4v-1h1.6v-0.5h-2.3V179.6L708.7,179.6z M726.6,176.1v1.8
		c0,0.4,0,0.6-0.1,1c-0.1,0.1-0.5,0.4-0.8,0.4c-0.4,0-0.6-0.1-0.8-0.4c-0.1-0.3-0.1-0.5-0.1-1v-2.3h-0.8v2.4c0,0.6,0.1,1,0.5,1.3
		c0.4,0.4,0.6,0.5,1.1,0.5s0.8-0.1,1.1-0.5s0.5-0.6,0.5-1.3v-1.9l0,0v-0.5h-1.1v0.5H726.6L726.6,176.1z M730.3,175.7
		c-0.1,0-0.4-0.1-0.5-0.1s-0.4,0-0.5,0c-0.4,0-0.6,0.1-1,0.4c-0.1,0.1-0.4,0.5-0.4,0.8c0,0.4,0.1,0.5,0.4,0.6
		c0.1,0.1,0.4,0.4,0.6,0.4c0.1,0.1,0.5,0.1,0.6,0.4c0.1,0.1,0.4,0.4,0.4,0.5c0,0.1,0,0.4-0.1,0.4s-0.1,0.1-0.4,0.1
		c-0.1,0-0.1,0-0.4,0c-0.1,0-0.4,0-0.5,0s-0.4-0.1-0.4-0.1v0.5c0.1,0,0.4,0.1,0.5,0.1s0.4,0,0.5,0c0.4,0,0.5,0,0.8-0.1
		c0.4-0.1,0.4-0.1,0.5-0.4c0.1-0.1,0.1-0.5,0.1-0.6c0-0.4-0.1-0.6-0.4-0.8c-0.1-0.1-0.4-0.4-0.6-0.5c-0.1-0.1-0.5-0.1-0.6-0.4
		c-0.1-0.1-0.4-0.4-0.4-0.5c0-0.1,0.1-0.4,0.1-0.5c0.1,0,0.4-0.1,0.5-0.1s0.4,0,0.4,0c0.1,0,0.1,0,0.4,0.1L730.3,175.7L730.3,175.7z
		 M719.4,175.7L719.4,175.7h-1.1v0.5h0.5v1.1h-1.9v-1.6h-0.6v3.9h0.6v-1.8h1.9v1.8h0.6V175.7L719.4,175.7L719.4,175.7z M714.5,176.1
		v2.3l0,0l0,0l-2.5-3v4.3h0.6V177l0,0l1.3,1.6l1,1.3l0.1,0.4v-0.4v-3.8l0,0l0,0h-1.1v0.5h0.6V176.1z M719.8,179.6h0.6l0.5-1h1.9
		l0.5,1h0.6l-1.9-4.3L719.8,179.6L719.8,179.6L719.8,179.6z M722.7,178.2h-1.6l0.8-1.8L722.7,178.2L722.7,178.2z M702,176.1v3.5h0.6
		V178l0,0h0.6l0,0l1,1.6h0.6l-1-1.8l0,0c0.1-0.1,0.5-0.1,0.6-0.5c0.1-0.5,0.1-1,0-1.4c-0.4-0.5-0.6-0.5-1.3-0.5l0,0
		c-0.1,0-0.1,0-0.4,0h-0.5l0,0h-1v0.5h0.6V176.1z M702.5,176.1h0.6h0.1c0.5,0,0.6,0.1,0.6,0.6c0,0.6-0.5,0.6-1,0.6l0,0h-0.5
		L702.5,176.1L702.5,176.1z M697.6,179.6h0.6l0.5-1h1.9l0.5,1h0.6l-1.9-4.3L697.6,179.6L697.6,179.6L697.6,179.6z M700.2,178.2h-1.6
		l0.8-1.8L700.2,178.2L700.2,178.2z"/>
	<path class="st64" d="M709.9,153.1c0.1,0,0.6-0.1,0.8-0.1l0,0l0,0c-0.1,0-0.6,0-0.6,0c-6.8,0.6-11.8,4.8-14.5,10.9
		c-1.1,2.4-1.6,4.9-1.8,7.6c0,0.8,0,1.6,0,2.4v0.1v0.1h1.1v-1.1c0.1-3.3,0.6-6.6,2-9.6C698.4,160.5,701.2,155.1,709.9,153.1
		L709.9,153.1z"/>
	<path class="st64" d="M700.8,173.1c-2.4,0-2.3,0,0.4,0v-8.6h-0.1h-0.4v8.6H700.8z"/>
	<path class="st64" d="M705.6,173.3c-2.7,0-2.5,0,0.4,0v-5.1h6.2v5.3c-0.6,0-0.5,0,0.4,0V168h-6.8L705.6,173.3L705.6,173.3z"/>
	<path class="st64" d="M717.3,173.6c0.1,0,0.4,0,0.4,0v-7.5c-0.1,0-0.4-0.1-0.4-0.1V173.6L717.3,173.6z"/>
	<path class="st64" d="M719,173.6c0.1,0,0.4,0,0.5,0c-0.1-0.1-0.1-0.5-0.4-0.6c-0.4-0.8-0.5-1.6-0.4-2.5c0.4-1.6,0.8-2.9,1.8-4.2
		c0,0,0,0,0-0.1l0,0l0,0l0,0c-0.5,0.6-0.8,1.1-1.1,1.8l-0.1,0.5v-0.1l0,0c0.1-0.5,0.4-1,0.5-1.4l0,0c0-0.1,0.1-0.5,0.4-0.5l0,0v-0.1
		c0,0,0,0-0.1,0l0,0l0,0c0,0,0,0.1-0.1,0.1c-0.4,0.6-0.5,1.1-0.6,1.8s-0.5,1.3-0.6,2c-0.1,0.6-0.1,1.4,0,2c0,0.1,0,0.4,0.1,0.5
		C718.8,173.1,719,173.4,719,173.6L719,173.6z"/>
	<path class="st15" d="M704.4,157.3l-0.8-0.8c-0.5,0.4-0.8,0.6-1.3,1.1l0,0c-4.2,4.2-6.3,9.9-6.3,15.5l0,0l0,0l0,0
		c0,0.1,0,0.4,0,0.5v0.5h32.7h1.6l0,0l0,0l0,0l0,0c-1.8-0.1-3.3-0.1-4.8-0.1c-4.4-0.1-6.7-0.1-11-0.4c-7.5-0.1-17.4-0.5-17.4-0.5
		c0.1-5.6,2-11,6.1-14.9C703.6,157.9,703.9,157.4,704.4,157.3L704.4,157.3z"/>
</g>
</svg>
