<?xml version="1.0" encoding="utf-8"?>
<!-- Generator: Adobe Illustrator 19.0.0, SVG Export Plug-In . SVG Version: 6.00 Build 0)  -->
<svg version="1.1" id="Layer_1" xmlns="http://www.w3.org/2000/svg" xmlns:xlink="http://www.w3.org/1999/xlink" x="0px" y="0px"
	 viewBox="-428 230 102 102" style="enable-background:new -428 230 102 102;" xml:space="preserve">
<style type="text/css">
	.st0{fill:#CFE8FD;}
	.st1{fill:#0F9C47;}
</style>
<title>Group</title>
<desc>Created with Sketch.</desc>
<path class="st0" d="M-402.2,274.3h50.3c0.6,0,1-0.5,1-1.1s-0.5-1.1-1-1.1h-50.3c-0.6,0-1,0.5-1,1.1S-402.7,274.3-402.2,274.3z"/>
<path class="st0" d="M-386.3,281.9h18.5c0.7,0,1.2-0.5,1.2-1.1s-0.5-1.1-1.2-1.1h-18.5c-0.7,0-1.2,0.5-1.2,1.1
	C-387.5,281.4-386.9,281.9-386.3,281.9z"/>
<g>
	<path class="st1" d="M-388.6,280.8h23.4c0.8,0,1.5-0.5,1.5-1.1s-0.7-1.1-1.5-1.1h-23.4c-0.8,0-1.5,0.5-1.5,1.1
		C-390.2,280.4-389.5,280.8-388.6,280.8z"/>
	<path class="st1" d="M-374.6,245.1c-1.3-1.2-3.4-1.2-4.7,0l-39.2,23.6c-0.3,0.2-0.6,0.6-0.6,1v41.9c0,1.9,1.6,3.5,3.5,3.5h77.3
		c1.9,0,3.5-1.6,3.5-3.5v-41.9c0-0.4-0.2-0.7-0.6-1L-374.6,245.1z M-378.1,247c0.1-0.1,0.2-0.1,0.2-0.2c0.2-0.2,0.6-0.4,0.9-0.4
		s0.7,0.1,0.9,0.4c0.1,0.1,0.1,0.1,0.2,0.2l38.2,23.1l-27.7,16.4c-0.5,0.3-0.7,1-0.4,1.5c0.2,0.3,0.6,0.6,1,0.6
		c0.2,0,0.4-0.1,0.6-0.2l27.1-16.2v39.4l-37.5-25c-1.2-1-3.5-1-4.7-0.1l-37.6,25v-39.4l27.1,16.2c0.2,0.1,0.4,0.2,0.6,0.2
		c0.4,0,0.7-0.2,1-0.6c0.3-0.5,0.2-1.2-0.4-1.5l-27.7-16.5L-378.1,247z M-339.1,313h-75.8l36.9-24.6c0.4-0.3,1.6-0.3,2,0.1
		L-339.1,313z"/>
	<path class="st1" d="M-404.7,273h55.4c0.6,0,1.1-0.5,1.1-1.1c0-0.6-0.5-1.1-1.1-1.1h-55.4c-0.6,0-1.1,0.5-1.1,1.1
		C-405.8,272.5-405.3,273-404.7,273z"/>
</g>
</svg>
