<?xml version="1.0" encoding="utf-8"?>
<!-- Generator: Adobe Illustrator 19.0.0, SVG Export Plug-In . SVG Version: 6.00 Build 0)  -->
<svg version="1.1" id="Layer_1" xmlns="http://www.w3.org/2000/svg" xmlns:xlink="http://www.w3.org/1999/xlink" x="0px" y="0px"
	 viewBox="-343 138 272 285" style="enable-background:new -343 138 272 285;" xml:space="preserve">
<style type="text/css">
	.st0{filter:url(#filter-4);}
	.st1{fill:#FFFFFF;}
	.st2{fill:none;stroke:#CACACA;stroke-width:2;stroke-linecap:round;stroke-linejoin:round;}
	.st3{fill:#CFE8FD;}
	.st4{fill:none;stroke:#0F9C47;stroke-width:2;stroke-miterlimit:10;}
	.st5{fill:none;stroke:#383838;stroke-width:2;stroke-miterlimit:10;}
</style>
<filter  height="126.7%" width="126.7%" y="-10.0%" id="filter-4" x="-13.3%" filterUnits="objectBoundingBox">
	<feOffset  dx="0" dy="6" result="shadowOffsetOuter1" in="SourceAlpha"></feOffset>
	<feGaussianBlur  stdDeviation="7" result="shadowBlurOuter1" in="shadowOffsetOuter1"></feGaussianBlur>
	
		<feColorMatrix  type="matrix" values="0 0 0 0 0.652051446   0 0 0 0 0.652051446   0 0 0 0 0.652051446  0 0 0 0.5 0" in="shadowBlurOuter1">
		</feColorMatrix>
</filter>
<title>Group</title>
<desc>Created with Sketch.</desc>
<g id="Page-1">
	<g id="Group" transform="translate(13.000000, -3.000000)">
		
			<g id="Rectangle-13-Copy-3" transform="translate(127.279221, 148.000000) rotate(45.000000) translate(-127.279221, -148.000000) ">
			<g class="st0">
				<path id="path-3_2_" d="M-92.3,398.1H56.9c5.3,0,7.3,0.6,9.2,1.6c2,1,3.5,2.6,4.5,4.5c1,2,1.6,3.9,1.6,9.2v149.2
					c0,5.3-0.6,7.3-1.6,9.2s-2.6,3.5-4.5,4.5c-2,1-3.9,1.6-9.2,1.6H-92.3c-5.3,0-7.3-0.6-9.2-1.6c-2-1-3.5-2.6-4.5-4.5
					c-1-2-1.6-3.9-1.6-9.2V413.5c0-5.3,0.6-7.3,1.6-9.2c1-2,2.6-3.5,4.5-4.5C-99.6,398.7-97.6,398.1-92.3,398.1z"/>
			</g>
			<g>
				<path id="path-3_1_" class="st1" d="M-92.3,398.1H56.9c5.3,0,7.3,0.6,9.2,1.6c2,1,3.5,2.6,4.5,4.5c1,2,1.6,3.9,1.6,9.2v149.2
					c0,5.3-0.6,7.3-1.6,9.2s-2.6,3.5-4.5,4.5c-2,1-3.9,1.6-9.2,1.6H-92.3c-5.3,0-7.3-0.6-9.2-1.6c-2-1-3.5-2.6-4.5-4.5
					c-1-2-1.6-3.9-1.6-9.2V413.5c0-5.3,0.6-7.3,1.6-9.2c1-2,2.6-3.5,4.5-4.5C-99.6,398.7-97.6,398.1-92.3,398.1z"/>
			</g>
		</g>
		<g id="Group-3" transform="translate(86.279221, 95.000000)">
			<path id="Shape" class="st2" d="M-339,139.5h5.8"/>
			<path id="Shape_1_" class="st2" d="M-336.2,136.7v5.7"/>
			<path id="Shape_2_" class="st2" d="M-268.2,120.1h5.8"/>
			<path id="Shape_3_" class="st2" d="M-265.3,117.3v5.7"/>
			<path id="Shape_4_" class="st2" d="M-239.2,159.2h5.8"/>
			<path id="Shape_5_" class="st2" d="M-236.3,156.3v5.7"/>
		</g>
	</g>
</g>
<path id="Shape-Copy-7_9_" class="st2" d="M-159.3,239.4"/>
<path id="Shape-Copy-7_7_" class="st2" d="M-159.3,231.5"/>
<path id="Shape-Copy-8_4_" class="st2" d="M-155.1,235.5"/>
<path id="Shape-Copy-8_3_" class="st2" d="M-163.2,235.5"/>
<path id="Shape-Copy-7_6_" class="st2" d="M-159.3,239.4"/>
<path id="Shape-Copy-7_5_" class="st2" d="M-159.3,231.5"/>
<path id="Shape-Copy-8_2_" class="st2" d="M-155.1,235.5"/>
<path id="Shape-Copy-8_1_" class="st2" d="M-163.2,235.5"/>
<path id="Shape-Copy-7_4_" class="st2" d="M-159.3,239.4"/>
<path id="Shape-Copy-7_3_" class="st2" d="M-159.3,231.5"/>
<path id="Shape-Copy-7_2_" class="st2" d="M-159.3,239.4"/>
<path id="Shape-Copy-7_1_" class="st2" d="M-159.3,231.5"/>
<polyline class="st3" points="-263.5,313.5 -252.9,303 -225.3,330.8 -235.9,341.1 "/>
<path class="st3" d="M-230.5,325.7L-230.5,325.7c0,0,10.6-19.9,16.2-25.5h17.4c5.4,0,9.6-4.4,9.6-9.6v-0.3c0-1.3-1-2.4-2.4-2.4
	h-29.9c-7.6,0-14.7,3.1-19.6,8.9l-9.3,10.7"/>
<path class="st3" d="M-239.1,306.4l54.9-8.6c2.1,0,4.4-0.4,6.6-1.4l8.3-4.1c4.7-2.4,10.3-1,13.4,3.1l1,1.3c0.4,0.7,0.3,1.7-0.4,2.1
	l-25.2,16.2c-4.9,3.1-10.6,4.9-16.2,4.9h-24.2c-2.4,0-4.7,1-6.4,2.7l-3.1,3.1L-239.1,306.4z"/>
<path class="st3" d="M-212.5,300.2l4.9-0.7l7.9,0.3c0,0-0.7,1.9-1.6,2c-0.9,0.1-16.3,2-16.3,2l0.7-2.9l2.7-1.1L-212.5,300.2z"/>
<g id="Layer_2">
	<g>
		<g>
			<polyline class="st4" points="-266.1,308.5 -254.9,297.4 -225.8,326.8 -236.9,337.7 			"/>
			<path class="st4" d="M-214.2,294.7h18.3c5.7,0,10-4.6,10-10v-0.3c0-1.3-1-2.6-2.6-2.6h-31.5c-8,0-15.4,3.3-20.6,9.3l-9.9,11.3"/>
			<path class="st4" d="M-188.4,292.1h6c2.3,0,4.6-0.6,7-1.6l8.7-4.4c4.9-2.6,10.9-1,14.2,3.3l1,1.3c0.6,0.7,0.3,1.9-0.6,2.3
				l-26.6,17c-5.1,3.3-11.2,5.1-17,5.1h-25.6c-2.6,0-4.9,1-6.7,2.9l-3.3,3.3"/>
			<line class="st4" x1="-238.8" y1="324.8" x2="-235.1" y2="328.7"/>
			<path class="st5" d="M-163.1,276.8l-2.9-2.9c1.3-2.3,2.3-4.9,3.1-7.4h8V251h-8c-0.7-2.6-1.9-5.1-3.1-7.4l5.7-5.7l-12.2-12.2
				l-5.7,5.7c-2.6-1.9-5.1-2.9-7.7-3.6v-8h-15.4v8c-2.6,0.7-5.1,1.9-7.4,3.1l-5.7-5.7l-12.2,12.2l5.7,5.7c-1.6,2.6-2.6,5.1-3.3,7.7
				h-8v15.4h8c0.7,2.6,1.9,5.1,3.1,7.4"/>
			<circle class="st5" cx="-193.6" cy="258.5" r="15.4"/>
		</g>
	</g>
</g>
</svg>
