<?xml version="1.0" encoding="utf-8"?>
<!-- Generator: Adobe Illustrator 19.0.0, SVG Export Plug-In . SVG Version: 6.00 Build 0)  -->
<svg version="1.1" id="Layer_1" xmlns="http://www.w3.org/2000/svg" xmlns:xlink="http://www.w3.org/1999/xlink" x="0px" y="0px"
	 viewBox="-428 230 102 102" style="enable-background:new -428 230 102 102;" xml:space="preserve">
<style type="text/css">
	.st0{fill:none;stroke:#CACACA;stroke-width:2;stroke-linecap:round;stroke-linejoin:round;}
	.st1{fill:#CFE8FD;}
	.st2{fill:none;stroke:#0F9C47;stroke-width:2;stroke-linecap:round;stroke-linejoin:round;}
	.st3{fill:#0F9C47;}
</style>
<title>Group</title>
<desc>Created with Sketch.</desc>
<path id="Shape-Copy-8_8_" class="st0" d="M-405.1,265.3h5.8"/>
<path id="Shape-Copy-7_8_" class="st0" d="M-402.2,262.5v5.7"/>
<path id="Shape-Copy-8_7_" class="st0" d="M-405.1,265.3h5.8"/>
<path id="Shape-Copy-7_7_" class="st0" d="M-402.2,262.5v5.7"/>
<path id="Shape-Copy-8_6_" class="st0" d="M-405.1,265.3h5.8"/>
<path id="Shape-Copy-7_6_" class="st0" d="M-402.2,262.5v5.7"/>
<path id="Shape-Copy-8_5_" class="st0" d="M-405.1,265.3h5.8"/>
<path id="Shape-Copy-7_5_" class="st0" d="M-402.2,262.5v5.7"/>
<path class="st1" d="M-368.3,319c-8.1-3.2-17.1-7.2-17.8-9.7v-2.6c1.8-2,3.1-4.4,3.8-7.1c1.9-1.4,2.3-4.1,0.9-6l-0.1-0.1v-5.8
	c0-6-3.3-10.1-10.7-10.1c-7.3,0-10.7,4.1-10.7,10.1v5.8c-1.5,1.8-1.2,4.5,0.7,6l0.1,0.1c0.7,2.6,2,5.1,3.8,7.1v2.6
	c-0.8,2.5-9.7,6.4-17.8,9.7c-0.7,0.3-1.2,1-1.1,1.7v6.5c0,1,0.8,1.8,1.8,1.8h46.7c1,0,1.8-0.8,1.8-1.8v-6.5
	C-367.1,320-367.6,319.3-368.3,319z"/>
<path class="st2" d="M-364.6,316.9c-8.3-3.3-17.6-7.4-18.4-9.9v-2.7c1.9-2.1,3.2-4.6,3.9-7.3c2-1.4,2.4-4.2,0.9-6.1l-0.1-0.1v-6
	c0-6.2-3.4-10.4-11.1-10.4c-7.5,0-11.1,4.2-11.1,10.4v6c-1.5,1.9-1.2,4.7,0.7,6.2l0.1,0.1c0.7,2.7,2,5.2,3.9,7.3v2.7
	c-0.8,2.5-10,6.6-18.4,9.9c-0.7,0.3-1.2,1-1.2,1.8v6.7c0,1,0.8,1.9,1.8,1.9h48.1c1,0,1.9-0.9,1.8-1.9v-6.7
	C-363.4,317.9-363.8,317.2-364.6,316.9z"/>
<g>
	<g>
		<path class="st3" d="M-344.7,238.7c10.8,4.3,16.1,16.6,11.8,27.5c-3,7.5-9.9,12.5-17.9,13.2c-0.4,0-0.7-0.2-0.8-0.5
			c-0.1-0.3-0.1-0.7,0.2-1c2.2-2,3.9-4.4,5-7.2c4-9.9-0.9-21.3-10.8-25.3c-2.8-1.1-5.8-1.6-8.8-1.3c-0.4,0-0.7-0.2-0.8-0.5
			c-0.1-0.3-0.1-0.7,0.2-1C-360.6,237.2-352.2,235.7-344.7,238.7z M-348.5,277.3c6.3-1.3,11.6-5.7,14-11.8c4-9.9-0.9-21.3-10.8-25.3
			c-6.2-2.5-13-1.6-18.3,2.1c2.4,0.1,4.7,0.6,7,1.5c10.8,4.3,16.1,16.6,11.8,27.5C-345.8,273.5-347,275.5-348.5,277.3z"/>
	</g>
</g>
<path id="Shape-Copy-8_4_" class="st0" d="M-369.8,279.3h5.8"/>
<path id="Shape-Copy-7_4_" class="st0" d="M-366.9,276.5v5.7"/>
<path id="Shape-Copy-8_3_" class="st0" d="M-369.8,279.3h5.8"/>
<path id="Shape-Copy-7_3_" class="st0" d="M-366.9,276.5v5.7"/>
<path id="Shape-Copy-8_2_" class="st0" d="M-369.8,279.3h5.8"/>
<path id="Shape-Copy-7_2_" class="st0" d="M-366.9,276.5v5.7"/>
<path id="Shape-Copy-8_1_" class="st0" d="M-369.8,279.3h5.8"/>
<path id="Shape-Copy-7_1_" class="st0" d="M-366.9,276.5v5.7"/>
<path id="Shape-Copy-8_12_" class="st0" d="M-379.9,251.8h5.8"/>
<path id="Shape-Copy-7_12_" class="st0" d="M-377,249v5.7"/>
<path id="Shape-Copy-8_11_" class="st0" d="M-379.9,251.8h5.8"/>
<path id="Shape-Copy-7_11_" class="st0" d="M-377,249v5.7"/>
<path id="Shape-Copy-8_10_" class="st0" d="M-379.9,251.8h5.8"/>
<path id="Shape-Copy-7_10_" class="st0" d="M-377,249v5.7"/>
<path id="Shape-Copy-8_9_" class="st0" d="M-379.9,251.8h5.8"/>
<path id="Shape-Copy-7_9_" class="st0" d="M-377,249v5.7"/>
</svg>
