<?xml version="1.0" encoding="utf-8"?>
<!-- Generator: Adobe Illustrator 19.0.0, SVG Export Plug-In . SVG Version: 6.00 Build 0)  -->
<svg version="1.1" id="Layer_1" xmlns="http://www.w3.org/2000/svg" xmlns:xlink="http://www.w3.org/1999/xlink" x="0px" y="0px"
	 viewBox="-428 230 102 102" style="enable-background:new -428 230 102 102;" xml:space="preserve">
<style type="text/css">
	.st0{fill:none;stroke:#CFE8FD;stroke-width:2;stroke-linecap:round;stroke-linejoin:round;}
	.st1{fill:none;stroke:#CACACA;stroke-width:2;stroke-linecap:round;stroke-linejoin:round;}
	.st2{fill:none;}
	.st3{fill:none;stroke:#0F9C47;stroke-width:2;stroke-linecap:round;stroke-linejoin:round;}
	.st4{fill:none;stroke:#0F9C47;stroke-width:2;stroke-linecap:round;stroke-linejoin:round;stroke-miterlimit:10;}
</style>
<polyline class="st0" points="-394.3,299.1 -385.8,308.5 -363.8,281.8 "/>
<title>Group</title>
<desc>Created with Sketch.</desc>
<path id="Shape-Copy-8_4_" class="st1" d="M-344.1,268.7h5.8"/>
<path id="Shape-Copy-7_4_" class="st1" d="M-341.3,265.9v5.7"/>
<path id="Shape-Copy-8_3_" class="st1" d="M-408.4,242.3h5.8"/>
<path id="Shape-Copy-7_3_" class="st1" d="M-405.6,239.4v5.7"/>
<path id="Shape-Copy-7_9_" class="st1" d="M-338.4,252.8"/>
<path id="Shape-Copy-7_2_" class="st1" d="M-338.4,252.8"/>
<path id="Shape-Copy-7_1_" class="st1" d="M-338.4,252.8"/>
<path id="Shape-Copy-8_5_" class="st1" d="M-368.4,238.2h5.8"/>
<path id="Shape-Copy-7_5_" class="st1" d="M-365.6,235.3v5.7"/>
<rect x="-381.8" y="248.9" class="st2" width="22.7" height="22.7"/>
<rect x="-327.2" y="247.7" class="st2" width="80.3" height="80.3"/>
<g>
	<path class="st3" d="M-369.3,253h-4.1v-2.2c0-2.6-2.2-4.7-4.9-4.7h-2.5c-2.7,0-4.9,2.1-4.9,4.7v2.2h-4.2c-6.5,0-6.6,9.7,0,9.7h20.6
		C-362.8,262.8-362.8,253-369.3,253z"/>
	<polyline class="st3" points="-357.8,256.1 -351,256.1 -351,323.3 -408.2,323.3 -408.2,256.1 -401.4,256.1 	"/>
	<polyline class="st3" points="-394.3,296.8 -385.8,306.2 -363.8,279.5 	"/>
	<line class="st4" x1="-379.6" y1="251.7" x2="-379.6" y2="251.7"/>
</g>
</svg>
