<?xml version="1.0" encoding="utf-8"?>
<!-- Generator: Adobe Illustrator 19.0.0, SVG Export Plug-In . SVG Version: 6.00 Build 0)  -->
<svg version="1.1" id="Layer_1" xmlns="http://www.w3.org/2000/svg" xmlns:xlink="http://www.w3.org/1999/xlink" x="0px" y="0px"
	 viewBox="-428 230 102 102" style="enable-background:new -428 230 102 102;" xml:space="preserve">
<style type="text/css">
	.st0{fill:#CFE8FD;}
	.st1{fill:none;stroke:#0F9C47;stroke-width:2;stroke-linecap:round;stroke-linejoin:round;}
</style>
<title>Group</title>
<desc>Created with Sketch.</desc>
<path class="st0" d="M-351.8,319.3c-1.4,1-7.9,5.2-11.7,7.5c-1.4,0.8-3,1-4.5,0.6h-0.1c-0.8-0.3-1.5-0.6-2.3-1.2
	c-21.6-17.7-35.9-42.7-40.4-70.2c-0.1-0.9-0.1-1.7,0.1-2.6l0,0c0.4-1.5,1.4-2.8,2.8-3.6c4-2.2,12.5-6.5,12.5-6.5s2.1-1.2,2.7,0.8
	c1.5,7.5,3.7,15,6.6,22.1c-2.3,3-4.6,5.8-7.2,8.5c4,9.7,9.3,18.8,15.6,27.1c3.6-0.8,7.2-1.4,11-1.9c4.8,6.1,10.1,11.6,15.7,16.6
	C-351.2,316.6-349.8,318-351.8,319.3z"/>
<path class="st1" d="M-348.7,314.4c-1.4,1-8.1,5.3-12.1,7.7c-1.4,0.9-3.1,1-4.6,0.6h-0.1c-0.9-0.3-1.7-0.6-2.3-1.2
	c-22.2-18.2-36.9-44-41.6-72.3c-0.1-0.9-0.1-1.8,0.1-2.6l0,0c0.4-1.5,1.4-3,3-3.7c4.1-2.3,12.9-6.7,12.9-6.7s2.2-1.3,2.7,0.8
	c1.5,7.7,3.9,15.4,6.7,22.7c-2.3,3.1-4.8,5.9-7.4,8.8c4.1,9.9,9.5,19.4,16.1,27.9c3.7-0.9,7.5-1.5,11.4-1.9
	c4.9,6.2,10.3,11.9,16.3,17.2C-348,311.5-346.7,313-348.7,314.4z"/>
</svg>
