<?xml version="1.0" encoding="utf-8"?>
<!-- Generator: Adobe Illustrator 19.0.0, SVG Export Plug-In . SVG Version: 6.00 Build 0)  -->
<svg version="1.1" id="Layer_1" xmlns="http://www.w3.org/2000/svg" xmlns:xlink="http://www.w3.org/1999/xlink" x="0px" y="0px"
	 viewBox="-428 230 102 102" style="enable-background:new -428 230 102 102;" xml:space="preserve">
<style type="text/css">
	.st0{fill:none;stroke:#CACACA;stroke-width:2;stroke-linecap:round;stroke-linejoin:round;}
	.st1{fill:#CFE8FD;}
	.st2{fill:none;stroke:#0F9C47;stroke-width:2;stroke-miterlimit:10;}
	.st3{fill:none;stroke:#0F9C47;stroke-width:1.5;stroke-linecap:round;stroke-linejoin:round;stroke-miterlimit:10;}
	.st4{fill:#0F9C47;}
</style>
<title>Group</title>
<desc>Created with Sketch.</desc>
<path id="Shape-Copy-8_4_" class="st0" d="M-393.4,243.1h5.8"/>
<path id="Shape-Copy-7_4_" class="st0" d="M-390.5,240.4v5.7"/>
<path id="Shape-Copy-8_3_" class="st0" d="M-356.8,237.6h5.8"/>
<path id="Shape-Copy-7_3_" class="st0" d="M-354,234.7v5.7"/>
<path id="Shape-Copy-8_5_" class="st0" d="M-347.2,259.4h5.8"/>
<path id="Shape-Copy-7_5_" class="st0" d="M-344.4,256.5v5.7"/>
<polyline class="st1" points="-415.4,308.1 -408,300.6 -388.6,320.1 -396.1,327.4 "/>
<path class="st1" d="M-392.3,316.6L-392.3,316.6c0,0,7.4-13.9,11.3-17.8h12.2c3.8,0,6.7-3.1,6.7-6.7v-0.2c0-0.9-0.7-1.7-1.7-1.7
	h-20.9c-5.3,0-10.3,2.2-13.7,6.2l-6.5,7.5"/>
<path class="st1" d="M-398.3,303.1l38.4-6c1.5,0,3.1-0.3,4.6-1l5.8-2.9c3.3-1.7,7.2-0.7,9.4,2.2l0.7,0.9c0.3,0.5,0.2,1.2-0.3,1.5
	l-17.6,11.3c-3.4,2.2-7.4,3.4-11.3,3.4h-16.9c-1.7,0-3.3,0.7-4.5,1.9l-2.2,2.2L-398.3,303.1z"/>
<path class="st1" d="M-379.6,298.8l3.4-0.5l5.5,0.2c0,0-0.5,1.3-1.1,1.4s-11.4,1.4-11.4,1.4l0.5-2l1.9-0.8L-379.6,298.8z"/>
<g id="Layer_2">
	<g>
		<g>
			<polyline class="st2" points="-417.1,304.6 -409.4,296.8 -389,317.4 -396.8,325 			"/>
			<path class="st2" d="M-380.9,294.9h12.8c4,0,7-3.2,7-7v-0.2c0-0.9-0.7-1.8-1.8-1.8h-22c-5.6,0-10.8,2.3-14.4,6.5l-6.9,7.9"/>
			<path class="st2" d="M-362.9,293.1h4.2c1.6,0,3.2-0.4,4.9-1.1l6.1-3.1c3.4-1.8,7.6-0.7,9.9,2.3l0.7,0.9c0.4,0.5,0.2,1.3-0.4,1.6
				l-18.6,11.9c-3.6,2.3-7.8,3.6-11.9,3.6h-17.9c-1.8,0-3.4,0.7-4.7,2l-2.3,2.3"/>
			<line class="st2" x1="-398.1" y1="316" x2="-395.5" y2="318.6"/>
		</g>
	</g>
</g>
<g id="Icons">
	<g>
		<g>
			<g>
				<g>
					<g>
						<g>
							<ellipse class="st3" cx="-372.9" cy="264.3" rx="17.6" ry="17.6"/>
							<ellipse class="st3" cx="-372.9" cy="264.3" rx="14.2" ry="14.2"/>
						</g>
					</g>
				</g>
			</g>
		</g>
	</g>
</g>
<path class="st4" d="M-366.9,256.3h-8c-0.6,0-1,0.4-1,1v9h-3c-0.6,0-1,0.4-1,1c0,0.6,0.4,1,1,1h3v3c0,0.6,0.4,1,1,1s1-0.4,1-1v-3h3
	c0.6,0,1-0.4,1-1c0-0.6-0.4-1-1-1h-3v-3h5c0.6,0,1-0.4,1-1c0-0.6-0.4-1-1-1h-5v-3h7c0.6,0,1-0.4,1-1
	C-365.9,256.7-366.4,256.3-366.9,256.3z"/>
</svg>
