<?xml version="1.0" encoding="utf-8"?>
<!-- Generator: Adobe Illustrator 19.0.0, SVG Export Plug-In . SVG Version: 6.00 Build 0)  -->
<svg version="1.1" id="Layer_1" xmlns="http://www.w3.org/2000/svg" xmlns:xlink="http://www.w3.org/1999/xlink" x="0px" y="0px"
	 viewBox="-428 230 102 102" style="enable-background:new -428 230 102 102;" xml:space="preserve">
<style type="text/css">
	.st0{fill:#CFE8FD;}
	.st1{fill:none;stroke:#CACACA;stroke-width:2;stroke-linecap:round;stroke-linejoin:round;}
	.st2{fill:none;stroke:#0F9C47;stroke-width:2;stroke-linecap:round;stroke-linejoin:round;stroke-miterlimit:10;}
	.st3{fill:none;}
</style>
<path class="st0" d="M-339.2,261.6l-7.4-7.4c-2.2-2.2-5.9-2.2-8.1,0l-46.6,46.6l16.1,16.1l46-46
	C-336.6,268.3-336.6,264.1-339.2,261.6z"/>
<title>Group</title>
<desc>Created with Sketch.</desc>
<path id="Shape-Copy-8_4_" class="st1" d="M-340.2,286.2h5.8"/>
<path id="Shape-Copy-7_4_" class="st1" d="M-337.3,283.4v5.7"/>
<path id="Shape-Copy-8_3_" class="st1" d="M-385.4,251.2h5.8"/>
<path id="Shape-Copy-7_3_" class="st1" d="M-382.6,248.3v5.7"/>
<path id="Shape-Copy-7_9_" class="st1" d="M-338.4,252.8"/>
<path id="Shape-Copy-7_2_" class="st1" d="M-338.4,252.8"/>
<path id="Shape-Copy-7_1_" class="st1" d="M-338.4,252.8"/>
<path id="Shape-Copy-8_5_" class="st1" d="M-368.4,238.2h5.8"/>
<path id="Shape-Copy-7_5_" class="st1" d="M-365.6,235.3v5.7"/>
<g>
	<line class="st2" x1="-407.9" y1="275.4" x2="-397.4" y2="264.9"/>
	<line class="st2" x1="-402.1" y1="281.1" x2="-397.9" y2="276.9"/>
	<line class="st2" x1="-370.3" y1="313" x2="-366.1" y2="308.8"/>
	<line class="st2" x1="-364.3" y1="319" x2="-353.8" y2="308.5"/>
	<path class="st2" d="M-405.2,299.6c-0.2,0.2-8.5,21.4-8.5,21.4c-0.7,1.7,1.2,3.8,3.1,3.1c0,0,21.3-8.2,21.5-8.4"/>
	<line class="st2" x1="-410.5" y1="312.8" x2="-402.4" y2="320.8"/>
	<path class="st2" d="M-343,260.3l-7.5-7.5c-2.2-2.2-5.9-2.2-8.1,0l-46.7,46.7l16.2,16.2l46.1-46.1
		C-340.4,267-340.4,262.8-343,260.3z"/>
	<g>
		<polyline class="st2" points="-379.6,265.5 -394.9,250.1 -414.1,269.3 -398.8,284.7 		"/>
		<polyline class="st2" points="-374.2,309.2 -358.4,325.1 -339.2,305.9 -355,290 		"/>
	</g>
	<line class="st2" x1="-396" y1="308.7" x2="-357.9" y2="270.7"/>
</g>
<rect x="-381.8" y="248.9" class="st3" width="22.7" height="22.7"/>
</svg>
