<?xml version="1.0" encoding="utf-8"?>
<!-- Generator: Adobe Illustrator 19.0.0, SVG Export Plug-In . SVG Version: 6.00 Build 0)  -->
<svg version="1.1" id="Layer_1" xmlns="http://www.w3.org/2000/svg" xmlns:xlink="http://www.w3.org/1999/xlink" x="0px" y="0px"
	 viewBox="-343 138 272 285" style="enable-background:new -343 138 272 285;" xml:space="preserve">
<style type="text/css">
	.st0{filter:url(#filter-4);}
	.st1{fill:#FFFFFF;}
	.st2{fill:none;stroke:#CACACA;stroke-width:2;stroke-linecap:round;stroke-linejoin:round;}
	.st3{fill:none;stroke:#0F9C47;stroke-width:2.5;stroke-miterlimit:10;}
	.st4{fill:none;stroke:#383838;stroke-width:2.5;stroke-linecap:round;stroke-linejoin:round;stroke-miterlimit:10;}
	.st5{fill:none;stroke:#0F9C47;stroke-width:2.5;stroke-linecap:round;stroke-linejoin:round;stroke-miterlimit:10;}
	.st6{fill:none;stroke:#383838;stroke-width:2.5;stroke-miterlimit:10;}
</style>
<filter  width="126.7%" height="126.7%" x="-13.3%" y="-10.0%" filterUnits="objectBoundingBox" id="filter-4">
	<feOffset  in="SourceAlpha" dy="6" result="shadowOffsetOuter1" dx="0"></feOffset>
	<feGaussianBlur  in="shadowOffsetOuter1" result="shadowBlurOuter1" stdDeviation="7"></feGaussianBlur>
	
		<feColorMatrix  type="matrix" in="shadowBlurOuter1" values="0 0 0 0 0.652051446   0 0 0 0 0.652051446   0 0 0 0 0.652051446  0 0 0 0.5 0">
		</feColorMatrix>
</filter>
<title>Group</title>
<desc>Created with Sketch.</desc>
<g id="Page-1">
	<g id="Group" transform="translate(13.000000, -3.000000)">
		
			<g id="Rectangle-13-Copy-3" transform="translate(127.279221, 148.000000) rotate(45.000000) translate(-127.279221, -148.000000) ">
			<g class="st0">
				<path id="path-3_2_" d="M-92.3,398.1H56.9c5.3,0,7.3,0.6,9.2,1.6c2,1,3.5,2.6,4.5,4.5c1,2,1.6,3.9,1.6,9.2v149.2
					c0,5.3-0.6,7.3-1.6,9.2s-2.6,3.5-4.5,4.5c-2,1-3.9,1.6-9.2,1.6H-92.3c-5.3,0-7.3-0.6-9.2-1.6c-2-1-3.5-2.6-4.5-4.5
					c-1-2-1.6-3.9-1.6-9.2V413.5c0-5.3,0.6-7.3,1.6-9.2c1-2,2.6-3.5,4.5-4.5C-99.6,398.7-97.6,398.1-92.3,398.1z"/>
			</g>
			<g>
				<path id="path-3_1_" class="st1" d="M-92.3,398.1H56.9c5.3,0,7.3,0.6,9.2,1.6c2,1,3.5,2.6,4.5,4.5c1,2,1.6,3.9,1.6,9.2v149.2
					c0,5.3-0.6,7.3-1.6,9.2s-2.6,3.5-4.5,4.5c-2,1-3.9,1.6-9.2,1.6H-92.3c-5.3,0-7.3-0.6-9.2-1.6c-2-1-3.5-2.6-4.5-4.5
					c-1-2-1.6-3.9-1.6-9.2V413.5c0-5.3,0.6-7.3,1.6-9.2c1-2,2.6-3.5,4.5-4.5C-99.6,398.7-97.6,398.1-92.3,398.1z"/>
			</g>
		</g>
		<g id="Group-3" transform="translate(86.279221, 95.000000)">
			<path id="Shape" class="st2" d="M-367.5,174.5h5.8"/>
			<path id="Shape_1_" class="st2" d="M-364.6,171.6v5.7"/>
			<path id="Shape_2_" class="st2" d="M-271.9,131.3h5.8"/>
			<path id="Shape_3_" class="st2" d="M-269.1,128.5v5.7"/>
			<path id="Shape_4_" class="st2" d="M-322.7,136h5.8"/>
			<path id="Shape_5_" class="st2" d="M-319.8,133.1v5.7"/>
		</g>
	</g>
</g>
<g>
	<polyline class="st3" points="-214,273.7 -233.7,254 -234.1,245.9 -250.9,236.1 -258.5,243.7 -248.7,260.5 -240.6,260.9 
		-220.9,280.6 	"/>
	<path class="st4" d="M-218.3,292.3c0,0,5.9-0.1,16,10.1c2.9,2.9,5.5,6.2,6.7,10c1.6,6.6,3.9,15.7,10.4,23.7c0.3,0.3,5.7,6.4,7,7.4
		c1.3,1,11.7,10.3,24.5-2.5c12.9-12.9,3.5-23.3,2.6-24.5c-1-1.3-7.1-6.7-7.4-7c-8-6.4-17.1-8.7-23.7-10.4c-3.7-1.2-7.1-3.9-10-6.7
		c-10.2-10.2-10.1-16-10.1-16c-0.4-3.3-4.1,0.7-8.5,5.2c0,0,0,0,0,0l-2.3,2.3c0,0,0,0,0,0C-217.6,288.2-221.6,291.9-218.3,292.3z"/>
	<line class="st5" x1="-181.7" y1="339.1" x2="-155.5" y2="312.9"/>
</g>
<g>
	<g>
		<path class="st6" d="M-197.1,308.4l-42.6,42.6c-1.9,1.9-5,1.9-6.8,0l-5.5-5.5c-1.9-1.9-1.9-5,0-6.8l42.9-42.9"/>
	</g>
	<path class="st4" d="M-129.7,286.9l-8.7-8.7c0,0-3.6-3.9-9.9-2.6c0,0,2.6-7.2-1.2-11L-169,245c0,0-15.1-17.4-45.9-3.5
		c0,0,20.8,4.8,26.8,12.4c3.8,4.8,4.5,10.6,0.8,14.3c-4.6,4.6-8.1,8.1-8.1,8.1l17.5,17.5c0,0,2.5-2.5,7.6-7.6c5.1-5.1,11,0.4,11,0.4
		c-1.8,6.6,2.1,10.4,2.1,10.4l8.7,8.7L-129.7,286.9z"/>
</g>
</svg>
