<?xml version="1.0" encoding="utf-8"?>
<!-- Generator: Adobe Illustrator 19.0.0, SVG Export Plug-In . SVG Version: 6.00 Build 0)  -->
<svg version="1.1" id="Layer_1" xmlns="http://www.w3.org/2000/svg" xmlns:xlink="http://www.w3.org/1999/xlink" x="0px" y="0px"
	 viewBox="-76 78 102 102" style="enable-background:new -76 78 102 102;" xml:space="preserve">
<style type="text/css">
	.st0{fill:#CFE8FD;}
	.st1{fill:none;stroke:#CACACA;stroke-width:2;stroke-linecap:round;stroke-linejoin:round;}
	.st2{fill:#0F9C47;}
</style>
<path class="st0" d="M-25.8,102.6c-15.8,0-28.6,12.8-28.6,28.6s12.9,28.6,28.6,28.6c15.8,0,28.6-12.8,28.6-28.6
	S-10,102.6-25.8,102.6z"/>
<title>Group</title>
<desc>Created with Sketch.</desc>
<path id="Shape-Copy-8_4_" class="st1" d="M-63.9,98.9h5.8"/>
<path id="Shape-Copy-7_4_" class="st1" d="M-61,96.2v5.7"/>
<path id="Shape-Copy-8_3_" class="st1" d="M-4.8,85.6H1"/>
<path id="Shape-Copy-7_3_" class="st1" d="M-2,82.7v5.7"/>
<path id="Shape-Copy-8_5_" class="st1" d="M14.3,109.3h5.8"/>
<path id="Shape-Copy-7_5_" class="st1" d="M17.1,106.4v5.7"/>
<path class="st2" d="M-25.8,168.5c-20.5,0-37.2-16.7-37.2-37.2S-46.3,94-25.8,94c20.5,0,37.2,16.7,37.2,37.2S-5.2,168.5-25.8,168.5z
	 M-25.8,96.9c-19,0-34.4,15.4-34.4,34.4s15.4,34.4,34.4,34.4c19,0,34.4-15.4,34.4-34.4S-6.8,96.9-25.8,96.9z M-25.8,162.8
	c-17.4,0-31.5-14.1-31.5-31.5s14.1-31.5,31.5-31.5s31.5,14.1,31.5,31.5S-8.4,162.8-25.8,162.8z M-25.8,102.6
	c-15.8,0-28.6,12.8-28.6,28.6s12.9,28.6,28.6,28.6c15.8,0,28.6-12.8,28.6-28.6S-10,102.6-25.8,102.6z M-0.4,132.3
	c-0.3,0.3-0.6,0.4-1,0.4c-0.4,0-0.7-0.2-1-0.4c-0.3-0.3-0.4-0.6-0.4-1c0-0.4,0.2-0.7,0.4-1c0.5-0.5,1.5-0.5,2,0
	c0.3,0.3,0.4,0.6,0.4,1C0,131.6-0.2,132-0.4,132.3z M-25.8,135.5c-1.9,0-3.4-1.2-4-2.9h-11.7c-0.8,0-1.4-0.6-1.4-1.4
	s0.6-1.4,1.4-1.4h11.7c0.4-1.2,1.4-2.2,2.6-2.6v-13.2c0-0.8,0.6-1.4,1.4-1.4c0.8,0,1.4,0.6,1.4,1.4v13.2c1.7,0.6,2.9,2.2,2.9,4
	C-21.5,133.6-23.4,135.5-25.8,135.5z M-25.8,129.8c-0.8,0-1.4,0.6-1.4,1.4c0,0.8,0.6,1.4,1.4,1.4c0.8,0,1.4-0.6,1.4-1.4
	C-24.3,130.5-25,129.8-25.8,129.8z M-25.8,108.3c-0.4,0-0.7-0.2-1-0.4c-0.3-0.3-0.4-0.6-0.4-1c0-0.4,0.2-0.7,0.4-1
	c0.5-0.5,1.5-0.5,2,0c0.3,0.3,0.4,0.6,0.4,1c0,0.4-0.2,0.7-0.4,1C-25,108.2-25.4,108.3-25.8,108.3z M-24.8,154.6
	c0.3,0.3,0.4,0.6,0.4,1c0,0.4-0.2,0.7-0.4,1c-0.3,0.3-0.6,0.4-1,0.4c-0.4,0-0.7-0.2-1-0.4c-0.3-0.3-0.4-0.6-0.4-1
	c0-0.4,0.2-0.7,0.4-1C-26.3,154-25.3,154-24.8,154.6z M-50.1,132.7c-0.4,0-0.7-0.2-1-0.4c-0.3-0.3-0.4-0.6-0.4-1s0.2-0.7,0.4-1
	c0.5-0.5,1.5-0.5,2,0c0.3,0.3,0.4,0.6,0.4,1c0,0.4-0.2,0.7-0.4,1C-49.4,132.5-49.8,132.7-50.1,132.7z"/>
</svg>
