<?xml version="1.0" encoding="utf-8"?>
<!-- Generator: Adobe Illustrator 19.0.0, SVG Export Plug-In . SVG Version: 6.00 Build 0)  -->
<svg version="1.1" id="Layer_1" xmlns="http://www.w3.org/2000/svg" xmlns:xlink="http://www.w3.org/1999/xlink" x="0px" y="0px"
	 viewBox="-381.5 215.5 102 102" style="enable-background:new -381.5 215.5 102 102;" xml:space="preserve">
<style type="text/css">
	.st0{fill:#CFE8FD;}
	.st1{fill:none;stroke:#CACACA;stroke-width:2;stroke-linecap:round;stroke-linejoin:round;}
	.st2{fill:none;stroke:#0F9C47;stroke-width:2;stroke-linecap:round;stroke-linejoin:round;}
	.st3{fill:none;stroke:#0F9C47;stroke-width:2;}
</style>
<ellipse id="Oval-4_1_" class="st0" cx="-311.8" cy="297" rx="16.1" ry="16"/>
<title>Group</title>
<desc>Created with Sketch.</desc>
<path id="Shape-Copy-8_12_" class="st1" d="M-296.3,278.2h5.8"/>
<path id="Shape-Copy-7_12_" class="st1" d="M-293.5,275.3v5.7"/>
<path id="Shape-Copy-7_4_" class="st1" d="M-301.6,276.7"/>
<path id="Shape-Copy-7_3_" class="st1" d="M-313.8,255.9"/>
<path id="Shape-Copy-8_10_" class="st1" d="M-307.4,230h5.8"/>
<path id="Shape-Copy-7_10_" class="st1" d="M-304.5,227.1v5.7"/>
<path id="Shape-Copy-8_9_" class="st1" d="M-307.4,230h5.8"/>
<path id="Shape-Copy-7_9_" class="st1" d="M-304.5,227.1v5.7"/>
<path id="Shape-Copy-8_2_" class="st1" d="M-307.4,230h5.8"/>
<path id="Shape-Copy-7_2_" class="st1" d="M-304.5,227.1v5.7"/>
<path id="Shape-Copy-8_1_" class="st1" d="M-307.4,230h5.8"/>
<path id="Shape-Copy-7_1_" class="st1" d="M-304.5,227.1v5.7"/>
<path class="st2" d="M-322.7,274c2.9-3.1,5-6.7,5.9-10.7c0.2,0,0.2-0.2,0.4-0.2c2.9-2.3,3.2-6.3,1-9v-8.8c0-1,0-2.1-0.2-3.1
	c-1.1-7.8-8.6-13.3-16.4-12.2c-11.6,0-16.6,6.3-16.6,15.3v8.8c0,0.2-0.2,0.2-0.2,0.4c-1.9,2.9-1.3,6.7,1.5,8.8
	c1.1,4,3.1,7.6,5.9,10.7v3.8c-1.1,3.6-15.1,9.7-27.5,14.5c-1,0.6-1.7,1.5-1.7,2.7v9.7c0,1.5,1.1,2.9,2.7,2.9h28.4"/>
<ellipse id="Oval-4" class="st3" cx="-313.8" cy="295.1" rx="16.1" ry="16"/>
<polyline id="Path-185" class="st2" points="-317.1,294.9 -314.5,298.5 -307.4,292.4 "/>
<path id="Shape-Copy-8_3_" class="st1" d="M-313.9,270.4h5.8"/>
<path id="Shape-Copy-7_5_" class="st1" d="M-311.1,267.5v5.7"/>
</svg>
